<?xml version="1.0" encoding="utf-8"?>
<!-- Generator: Adobe Illustrator 24.1.2, SVG Export Plug-In . SVG Version: 6.00 Build 0)  -->
<svg version="1.1" id="Layer_1" xmlns="http://www.w3.org/2000/svg" xmlns:xlink="http://www.w3.org/1999/xlink" x="0px" y="0px"
	 viewBox="0 0 192 191.6" style="enable-background:new 0 0 192 191.6;" xml:space="preserve">
<style type="text/css">
	.st0{display:none;}
	.st1{display:inline;}
	.st2{fill:none;}
	.st3{fill:#DFE0E0;}
	.st4{fill:#48515A;}
	.st5{fill:#F58E70;}
	.st6{fill:#5FE0ED;}
	.st7{fill:#FFD15D;}
	.st8{fill:#475059;}
	.st9{fill:none;stroke:#48515A;stroke-width:2;stroke-miterlimit:10;}
	.st10{fill:none;stroke:#48515A;stroke-width:2;stroke-linecap:round;stroke-miterlimit:10;}
	.st11{fill:none;stroke:#48515A;stroke-width:2;stroke-linecap:round;stroke-linejoin:round;stroke-miterlimit:10;}
	.st12{fill:none;stroke:#48515A;stroke-width:2;stroke-linejoin:round;stroke-miterlimit:10;}
	.st13{fill:#FFFFFF;}
	.st14{fill:none;stroke:#475059;stroke-width:2;stroke-miterlimit:10;}
	.st15{fill:none;stroke:#F58E70;stroke-width:3;stroke-miterlimit:10;}
	
		.st16{fill:none;stroke:#48515A;stroke-width:2;stroke-linecap:round;stroke-linejoin:round;stroke-miterlimit:10;stroke-dasharray:0,4;}
	.st17{display:inline;fill:#FFD15D;}
	.st18{display:inline;fill:#F58E70;}
	.st19{fill:#DEDEDD;}
	.st20{fill:#DEDEDD;stroke:#DEDEDD;stroke-width:2;stroke-miterlimit:10;}
	.st21{fill:#FFFFFF;stroke:#475059;stroke-width:2;stroke-miterlimit:10;}
	.st22{fill:none;stroke:#48515A;stroke-width:2;stroke-linecap:square;stroke-miterlimit:10;}
	.st23{fill:#FFFFFF;stroke:#48515A;stroke-width:2;stroke-linecap:round;stroke-miterlimit:10;}
	.st24{display:inline;fill:none;stroke:#48515A;stroke-width:2;stroke-linejoin:round;stroke-miterlimit:10;}
	.st25{display:inline;fill:#5FE0ED;}
	.st26{display:inline;fill:#DEDEDD;}
	.st27{display:inline;fill:none;stroke:#475059;stroke-width:2;stroke-miterlimit:10;}
	.st28{display:inline;fill:#FFFFFF;stroke:#475059;stroke-width:2;stroke-miterlimit:10;}
	.st29{display:inline;fill:none;stroke:#48515A;stroke-width:2;stroke-linecap:round;stroke-linejoin:round;stroke-miterlimit:10;}
	.st30{fill:none;stroke:#475059;stroke-width:2;stroke-linecap:round;stroke-miterlimit:10;}
	.st31{fill:none;stroke:#475059;stroke-width:2;stroke-linecap:square;stroke-miterlimit:10;}
	.st32{fill:#FFFFFF;stroke:#48515A;stroke-width:2;stroke-miterlimit:10;}
	.st33{fill:#FFFFFF;stroke:#48515A;stroke-width:2;stroke-linecap:round;stroke-miterlimit:10;stroke-dasharray:0,4;}
	.st34{display:inline;fill:#DFE0E0;}
	.st35{display:inline;fill:none;stroke:#48515A;stroke-width:2;stroke-linecap:round;stroke-miterlimit:10;}
	.st36{display:inline;fill:none;stroke:#48515A;stroke-width:2;stroke-miterlimit:10;}
	.st37{fill:none;stroke:#48515A;stroke-width:2;stroke-linecap:round;stroke-miterlimit:10;stroke-dasharray:0,4;}
	.st38{display:inline;fill:#FFFFFF;stroke:#48515A;stroke-width:2;stroke-miterlimit:10;}
	.st39{fill:#FFFFFF;stroke:#232323;stroke-miterlimit:10;}
	.st40{fill:#5FE0ED;stroke:#48515A;stroke-width:2;stroke-miterlimit:10;}
	.st41{fill:#FFFFFF;stroke:#475059;stroke-width:2;stroke-miterlimit:10;stroke-dasharray:2;}
	.st42{fill:#F58E70;stroke:#F58E70;stroke-width:2;stroke-miterlimit:10;}
</style>
<desc>
	Color line, employee, salary illustration, icon, background and graphics. The illustration is colorful, flat, vector, pixel perfect, suitable for web and print. Linear stokes and fills.
	</desc>
<g class="st0">
	<g class="st1">
		<g>
			<g>
				<g>
					<g>
						<g>
							<g>
								<g>
									<path class="st2" d="M44.9,87.3L44.9,87.3C44.9,87.4,45,87.4,44.9,87.3C45,87.4,45,87.4,44.9,87.3
										C45,87.3,45,87.3,44.9,87.3L44.9,87.3z"/>
								</g>
							</g>
							<g>
								<path class="st3" d="M23,87.4v3.2l10.9,6.3l11-6.1v-5.9v-5c0-0.4,0.8-0.9,1.2-1.3c-0.1,0.1-0.3,0.2-0.4,0.4
									c-1.6,1.7-3.9,3.6-5.5,4.9c-1.3,1.1-2.9,1.8-4.5,1.8h-1.9H32h-1.1c-1.7,0-3.3-0.7-4.5-1.8c-1.5-1.3-3.7-3-5.3-4.6
									c0,0-0.1-0.1-0.2-0.2c0.5,0.5,1.2,1,1.8,1.5h0.2V86v1.4H23L23,87.4z"/>
							</g>
							<g>
								<g>
									<rect x="22" y="80.6" class="st4" width="2" height="10"/>
								</g>
								<g>
									<path class="st4" d="M45,91.6c-0.6,0-1-0.4-1-1V79.5l0.3-0.3c0.9-1,1.8-2,2.1-2.7l4.5-9.4l5.1-2.5l1.1-5.6
										c0-0.4-0.2-0.7-0.4-0.9c-0.3-0.3-0.6-0.4-1-0.4h-2.2l0.2-1.2c0.3-1.7,0.3-4,0.3-5.8V49l0.1-0.2c0-2.9-0.6-5.6-1.7-7.9
										L52,39.7c-1.4-2.6-3.2-4.9-5.5-6.7c-3.7-2.9-8-4.4-12.6-4.4h-0.1c-5.3,0-10.4,2.1-14.3,6c-4.1,4-6.4,9.6-6.4,15.3V51
										c0,1.8,0,3.9,0.3,5.6l0.2,1.2h-2.1c-0.8,0-1.4,0.5-1.5,1.3l1.6,5.6l4.4,2.6l4.4,9.4c0.6,1.6,3.3,3.8,5.3,5.4
										c0.5,0.4,1,0.8,1.4,1.2c1.2,1,2.6,1.6,3.9,1.6h5c0.6,0,1,0.4,1,1s-0.4,1-1,1h-5.1c-1.8,0-3.6-0.7-5.2-2.1
										c-0.4-0.4-0.9-0.7-1.4-1.1c-2.4-2-5.1-4.2-5.9-6.2l-4.1-8.7l-4.6-2.7l-1.9-6.8c0-1.8,1.4-3.3,3.2-3.4c0-1.8,0-3.6,0-5.1v-1
										c0-6.2,2.5-12.3,7-16.7c4.3-4.2,9.8-6.6,15.7-6.6c0.1,0,0.1,0,0.2,0c5.1,0,9.9,1.7,13.9,4.9c2.6,2.1,4.8,4.7,6.3,7.8
										c0.1,0.2,0.2,0.4,0.3,0.6l0.7,1.6H55c0.9,2.3,1.3,4.9,1.3,7.7v0.4L56,49.7v1c0,1.5,0,3.3-0.2,5c0.9,0,1.7,0.4,2.3,1
										s1,1.5,0.9,2.4v0.2l-1.3,6.6l-5.3,2.6l-4.2,8.7c-0.4,0.9-1.2,2-2.2,3v10.4C46,91.2,45.6,91.6,45,91.6z"/>
								</g>
							</g>
							<g>
								<polygon class="st4" points="1.2,100.7 0.6,98.8 14.7,94.1 18.8,86.6 22,86.6 22,88.6 20,88.6 16.1,95.7 								"/>
							</g>
							<g>
								<path class="st4" d="M33.9,98.1L22,91.5c-0.5-0.3-0.7-0.9-0.4-1.4c0.3-0.5,0.9-0.7,1.4-0.4l10.9,6.1L44.3,90
									c0.5-0.3,1.1-0.1,1.4,0.4c0.3,0.5,0.1,1.1-0.4,1.4L33.9,98.1z"/>
							</g>
							<g>
								<polygon class="st4" points="57.1,97.7 51.6,95.8 47.2,88.6 45,88.6 45,86.6 48.3,86.6 53,94.1 57.8,95.8 								"/>
							</g>
							<g>
								<path class="st4" d="M27.2,106.8c-0.2,0-0.5-0.1-0.7-0.3c-0.4-0.4-0.4-1-0.1-1.4l7.4-8.2l4.8,5.5c0.4,0.4,0.3,1-0.1,1.4
									c-0.4,0.4-1,0.3-1.4-0.1l-3.3-3.8l-5.9,6.6C27.8,106.7,27.5,106.8,27.2,106.8z"/>
							</g>
							<g>
								<path class="st3" d="M33.9,98.4"/>
							</g>
						</g>
					</g>
				</g>
				<g>
					<g>
						<g>
							<g>
								<g>
									<path class="st5" d="M103.9,139.6c0,0-2.7-24.4-4-29.7l0,0l0,0c1.1,0,2-0.9,2-2v-5l-5.1-6l-4.9,6v5c0,1.1,0.9,2,2,2l0,0
										l0,0c-1.3,5.3-4,29.7-4,29.7H103.9z"/>
								</g>
							</g>
							<g>
								<g>
									<path class="st2" d="M111.8,81.8L111.8,81.8c0.1,0.1,0.1,0.1,0.2,0.1l0,0l0,0C111.9,81.8,111.9,81.8,111.8,81.8z"/>
								</g>
							</g>
							<g>
								<path class="st3" d="M82,81.9v4.4l14.9,8.5l15-8.2l0.1-8v-6.7c0-0.6,1.1-1.2,1.6-1.8c-0.2,0.2-0.4,0.3-0.5,0.5
									c-2.1,2.3-5.3,4.8-7.5,6.7c-1.7,1.5-3.9,2.5-6.1,2.5H97h-2.5H93c-2.2,0-4.4-1-6.1-2.5c-2.1-1.8-5.1-4.1-7.2-6.3
									c-0.1-0.1-0.1-0.2-0.2-0.2c0.6,0.7,1.6,1.3,2.3,2H82V80L82,81.9L82,81.9L82,81.9z"/>
							</g>
							<g>
								<g>
									<rect x="81" y="72.6" class="st4" width="2" height="14"/>
								</g>
								<g>
									<path class="st4" d="M112,86.6c-0.6,0-1-0.4-1-1V71.4l0.2-0.3c0.4-0.6,0.9-1.2,1.4-1.7c0.7-0.8,1.4-1.6,1.6-2.2l6-12.7
										l6.9-3.5l1.6-7.9c0-0.6-0.3-1.3-0.8-1.8c-0.4-0.4-1-0.7-1.5-0.7h-2.6l0.3-1.5c0.5-2.9,0.9-5.2,0.9-7.6l-0.1-1.4
										c0-3.8-0.9-7.8-2.5-11.4c-0.2-0.3-0.3-0.7-0.5-1c-1.9-3.8-4.6-7.1-7.9-9.7c-5-3.9-11-6-17.4-6.1c-7.4,0-14.5,2.9-19.9,8.3
										C71.2,15.8,68,23.4,68,31.1v0.5c0,2.3,0.2,4.6,0.7,7.9l0.2,1.1h-2.4c-1.2,0-2.3,1.2-2.4,2.5l2.2,8.1l6,3.5l5.9,12.6
										c0.8,2.2,4.6,5.3,7.3,7.5c0.7,0.6,1.3,1.1,1.9,1.6c1.7,1.5,3.6,2.3,5.5,2.3H99c0.6,0,1,0.4,1,1s-0.4,1-1,1h-6.1
										c-2.3,0-4.7-1-6.8-2.7c-0.6-0.5-1.2-1-1.8-1.5c-3.2-2.6-6.9-5.6-7.8-8.3l-5.6-12l-6.2-3.6l-2.5-9.3c0-2.5,2-4.6,4.4-4.6
										h0.1c-0.4-2.8-0.6-4.9-0.6-7.1v-0.5c0-8.2,3.4-16.3,9.3-22.2c5.7-5.8,13.3-9,21.2-8.9c6.8,0,13.3,2.3,18.6,6.5
										c3.5,2.8,6.5,6.4,8.5,10.4c0.2,0.4,0.3,0.7,0.5,1.1c1.8,3.8,2.7,8,2.7,12.1l0.1,0.4v1.1c0,2.4-0.3,4.6-0.8,7.1h0.2
										c1.1,0,2.1,0.5,2.9,1.3c0.9,0.9,1.3,2.1,1.3,3.3v0.2l-1.8,9l-7.2,3.6L116,68c-0.3,0.9-1.1,1.8-1.9,2.8
										c-0.4,0.4-0.8,0.9-1.1,1.3v13.6C113,86.2,112.6,86.6,112,86.6z"/>
								</g>
							</g>
							<g>
								<path class="st4" d="M32.9,139.4h-2l0.1-27.9c0-6,3.8-7.9,9.1-9.9L71.2,91l5.5-10.3H81v2h-3.1l-5.3,9.9l-31.9,10.9
									c-5.3,2-7.8,3.5-7.8,8L32.9,139.4z"/>
							</g>
							<g>
								<path class="st4" d="M96.9,96L81,87.1c-0.5-0.3-0.7-0.9-0.4-1.4c0.3-0.5,0.9-0.7,1.4-0.4l14.9,8.3l14.3-8
									c0.5-0.3,1.1-0.1,1.4,0.4s0.1,1.1-0.4,1.4L96.9,96z"/>
							</g>
							<g>
								<path class="st4" d="M163,139.4h-2v-27.8c0-4.5-2.3-6-8-8.1l-31.9-10.9l-6.1-10h-3v-2h4.2l6.3,10.4l31.2,10.6
									c5.3,1.9,9.3,3.9,9.3,10V139.4z"/>
							</g>
							<g>
								<path class="st4" d="M105.9,107.9c-0.3,0-0.5-0.1-0.7-0.3l-8.3-9.2l-8.3,9.2c-0.4,0.4-1,0.4-1.4,0.1c-0.4-0.4-0.4-1-0.1-1.4
									l9.7-10.8l9.7,10.8c0.4,0.4,0.3,1-0.1,1.4C106.4,107.8,106.2,107.9,105.9,107.9z"/>
							</g>
							<g>
								<path class="st3" d="M96.9,96.9"/>
							</g>
						</g>
					</g>
				</g>
				<g>
					<g>
						<g>
							<g>
								<g>
									<path class="st2" d="M172,87.3L172,87.3c0,0.1,0.1,0.1,0.1,0.1S172,87.4,172,87.3c0.1,0,0.1,0,0.1,0
										C172,87.3,172,87.3,172,87.3z"/>
								</g>
							</g>
							<g>
								<path class="st3" d="M150,87.4v3.2l11,6.3l11-6.1v-5.9v-5c0-0.4,0.8-0.9,1.2-1.3c-0.1,0.1-0.3,0.2-0.4,0.4
									c-1.6,1.7-3.9,3.6-5.5,4.9c-1.3,1.1-2.9,1.8-4.5,1.8H161h-1.8H158c-1.7,0-3.3-0.7-4.5-1.8c-1.5-1.3-3.7-3-5.3-4.6
									c0,0-0.1-0.1-0.2-0.2c0.5,0.5,1.2,1,1.8,1.5h0.2V86V87.4L150,87.4L150,87.4z"/>
							</g>
							<g>
								<g>
									<rect x="149" y="80.6" class="st4" width="2" height="10"/>
								</g>
								<g>
									<path class="st4" d="M172,91.6c-0.6,0-1-0.4-1-1V79.5l0.3-0.3c0.9-0.9,1.8-2,2.1-2.7L178,67l5.1-2.5l1.1-5.6
										c0-0.4-0.2-0.7-0.4-0.9c-0.3-0.3-0.6-0.4-1-0.4h-2.2l0.2-1.2c0.3-1.5,0.3-3.5,0.3-5.2c0-0.4,0-0.8,0-1.1v-1.3l0.2-0.2
										c0-3-0.6-5.6-1.6-7.9l-0.5-1c-1.4-2.7-3.3-5-5.6-6.9c-3.7-2.9-8-4.4-12.7-4.4h-0.1c-5.3,0-10.4,2.1-14.3,6
										c-4.1,4-6.4,9.6-6.4,15.2V50c0,2.2,0,4.5,0.3,6.3l0.2,1.2h-2.1c-0.8,0-1.4,0.5-1.5,1.3l1.6,5.6L143,67l4.4,9.4
										c0.6,1.6,3.3,3.8,5.3,5.4c0.5,0.4,1,0.8,1.4,1.2c1.2,1,2.6,1.6,3.9,1.6h5c0.6,0,1,0.4,1,1s-0.4,1-1,1h-5
										c-1.8,0-3.6-0.7-5.2-2.1c-0.4-0.4-0.9-0.7-1.4-1.1c-2.4-2-5.1-4.2-5.9-6.2l-4.1-8.7l-4.6-2.7l-1.9-6.8
										c0-1.8,1.4-3.3,3.2-3.4c-0.2-1.7-0.2-3.6-0.2-5.5v-0.4c0-6.2,2.5-12.3,7-16.7c4.3-4.2,9.9-6.6,15.7-6.6c0,0,0.1,0,0.2,0
										c5.1,0,9.9,1.7,13.9,4.9c2.6,2.1,4.8,4.8,6.3,7.8c0.1,0.2,0.2,0.4,0.3,0.6l0.7,1.6h0c0.8,2.3,1.2,4.9,1.2,7.7v0.4l-0.2,0.2
										V50c0,0.4,0,0.7,0,1.1c0,1.4,0,2.9-0.1,4.4c0.9,0,1.7,0.4,2.3,1s1,1.5,0.9,2.4v0.2l-1.3,6.6l-5.3,2.6l-4.2,8.7
										c-0.4,1-1.3,2-2.2,3v10.4C173,91.2,172.6,91.6,172,91.6z"/>
								</g>
							</g>
							<g>
								<polygon class="st4" points="136.4,97.8 135.8,95.9 141.8,94.1 145.9,86.6 149,86.6 149,88.6 147,88.6 143.2,95.7 								
									"/>
							</g>
							<g>
								<path class="st4" d="M161,98.1l-11.8-6.6c-0.5-0.3-0.7-0.9-0.4-1.4s0.9-0.7,1.4-0.4l10.9,6.1l10.4-5.8
									c0.5-0.3,1.1-0.1,1.4,0.4c0.3,0.5,0.1,1.1-0.4,1.4L161,98.1z"/>
							</g>
							<g>
								<polygon class="st4" points="190.3,99.6 178.7,95.8 174.3,88.6 172,88.6 172,86.6 175.4,86.6 180,94.1 190.9,97.7 								
									"/>
							</g>
							<g>
								<path class="st4" d="M167.9,106.8c-0.3,0-0.5-0.1-0.7-0.3l-6.2-6.6l-4,4.3c-0.4,0.4-1,0.4-1.4,0.1c-0.4-0.4-0.4-1-0.1-1.4
									L161,97l7.7,8.1c0.4,0.4,0.4,1,0,1.4C168.4,106.7,168.1,106.8,167.9,106.8z"/>
							</g>
							<g>
								<path class="st3" d="M160.9,98.4"/>
							</g>
						</g>
					</g>
				</g>
				<g>
					<g>
						<g>
							<rect x="48" y="180.6" class="st6" width="124" height="11"/>
						</g>
						<g>
							<g>
								<g>
									<rect x="48" y="121.6" class="st6" width="124" height="62"/>
								</g>
								<g>
									<path class="st4" d="M169,178.6H51v-54h118V178.6z M53,176.6h114v-50H53V176.6z"/>
								</g>
								<g>
									<g>
										<path class="st4" d="M115.8,164.8h-11c-3,0-5.4-2.4-5.4-5.4h2c0,1.9,1.5,3.4,3.4,3.4h11c2.2,0,4-1.8,4-4v-1.9
											c0-2.2-1.8-4-4-4h-10.9c-3.3,0-6-2.7-6-6V145c0-3.3,2.7-6,6-6h11.7c2.5,0,4.5,2,4.5,4.5h-2c0-1.4-1.1-2.5-2.5-2.5h-11.7
											c-2.2,0-4,1.8-4,4v1.9c0,2.2,1.8,4,4,4h10.9c3.3,0,6,2.7,6,6v1.9C121.8,162.1,119.1,164.8,115.8,164.8z"/>
									</g>
									<g>
										<rect x="110" y="133.6" class="st4" width="2" height="36"/>
									</g>
								</g>
								<g>
									<g>
										<rect x="130" y="146.6" class="st4" width="14" height="2"/>
									</g>
									<g>
										<rect x="130" y="150.6" class="st4" width="14" height="2"/>
									</g>
									<g>
										<rect x="130" y="154.6" class="st4" width="14" height="2"/>
									</g>
								</g>
								<g>
									<g>
										<rect x="80" y="146.6" class="st4" width="14" height="2"/>
									</g>
									<g>
										<rect x="80" y="150.6" class="st4" width="14" height="2"/>
									</g>
									<g>
										<rect x="80" y="154.6" class="st4" width="14" height="2"/>
									</g>
								</g>
								<g>
									<g>
										<path class="st4" d="M152,177.7h-2c0-9.9,8.1-18,18-18v2C159.2,161.7,152,168.8,152,177.7z"/>
									</g>
								</g>
								<g>
									<g>
										<path class="st4" d="M51.9,143.6v-2c8.8,0,16-7.2,16-16h2C69.9,135.6,61.9,143.6,51.9,143.6z"/>
									</g>
									<g>
										<path class="st4" d="M69.9,177.7h-2c0-8.8-7.2-16-16-16v-2C61.9,159.7,69.9,167.7,69.9,177.7z"/>
									</g>
								</g>
							</g>
						</g>
						<g>
							<g>
								<rect x="48" y="183.6" class="st4" width="124" height="2"/>
							</g>
						</g>
					</g>
					<g>
						<rect x="48" y="189.6" class="st4" width="124" height="2"/>
					</g>
				</g>
				<g>
					<g>
						<circle class="st7" cx="168" cy="133.6" r="24"/>
					</g>
					<g>
						<path class="st8" d="M168,153.3L168,153.3c-10.9,0-19.7-8.8-19.7-19.7c0-10.8,8.8-19.6,19.7-19.6l0,0c2,0,3.9,0.3,5.8,0.9
							l1.3,0.5c0.5,0.2,0.7,0.8,0.5,1.3s-0.8,0.7-1.3,0.5l-1.2-0.5c-1.6-0.5-3.3-0.7-5.1-0.8l0,0c-9.7,0-17.7,7.9-17.7,17.6
							c0,9.7,7.9,17.7,17.6,17.7l0,0c9.7,0,17.7-7.9,17.7-17.6c0-4.1-1.4-8.1-4-11.2c-0.4-0.4-0.3-1.1,0.1-1.4
							c0.4-0.4,1.1-0.3,1.4,0.1c2.9,3.5,4.5,8,4.5,12.5C187.7,144.5,178.8,153.3,168,153.3z"/>
					</g>
					<g>
						<g>
							<path class="st8" d="M171.3,142.6h-7.4c-2.2,0-3.9-1.8-3.9-4c0-0.6,0.4-1,1-1s1,0.4,1,1c0,1.1,0.9,2,1.9,2h7.4
								c1.4,0,2.7-1.2,2.7-2.4V137c0-1.2-1.3-2.3-2.7-2.3H164c-2.3,0-4-1.9-4-4.4V129c0-2.5,1.7-4.4,4-4.4h7.9
								c1.9,0,3.4,1.5,3.4,3.4c0,0.6-0.4,1-1,1s-1-0.4-1-1c0-0.8-0.6-1.4-1.4-1.4H164c-1.4,0-2,1.2-2,2.4v1.3c0,1.1,0.6,2.4,2,2.4
								h7.3c2.5,0,4.7,2,4.7,4.3v1.3C176,140.6,173.8,142.6,171.3,142.6z"/>
						</g>
						<g>
							<path class="st8" d="M168,146.6c-0.6,0-1-0.4-1-1v-24c0-0.6,0.4-1,1-1s1,0.4,1,1v24C169,146.2,168.5,146.6,168,146.6z"/>
						</g>
					</g>
					<g>
						<path class="st8" d="M178.7,120c-0.3,0-0.5-0.1-0.7-0.3c-0.2-0.2-0.3-0.4-0.3-0.7c0-0.3,0.1-0.5,0.3-0.7c0.4-0.4,1-0.4,1.4,0
							c0.2,0.2,0.3,0.4,0.3,0.7c0,0.3-0.1,0.5-0.3,0.7C179.2,119.9,179,120,178.7,120z"/>
					</g>
				</g>
				<g>
					<g>
						<circle class="st7" cx="16.5" cy="141.2" r="16.5"/>
					</g>
					<g>
						<g>
							<path class="st8" d="M18.7,147.7h-5.1c-1.7,0-3-1.4-3-3c0-0.6,0.4-1,1-1s1,0.4,1,1s0.5,1,1,1h5.1c0.7,0,1.3-0.6,1.3-1.3v-0.9
								c0-0.7-0.6-1.3-1.3-1.3h-5c-1.8,0-3.7-1.4-3.7-3.3V138c0-1.9,2-3.3,3.7-3.3h5.4c1.4,0,2.6,1.2,2.6,2.6c0,0.6-0.4,1-1,1
								s-1-0.4-1-1c0-0.3-0.3-0.6-0.6-0.6h-5.4c-0.8,0-1.7,0.7-1.7,1.3v0.9c0,0.6,0.9,1.3,1.7,1.3h5c1.8,0,3.3,1.5,3.3,3.3v0.9
								C22.1,146.2,20.5,147.7,18.7,147.7z"/>
						</g>
						<g>
							<path class="st8" d="M16.5,150.4c-0.6,0-1-0.4-1-1V133c0-0.6,0.4-1,1-1s1,0.4,1,1v16.5C17.5,150,17,150.4,16.5,150.4z"/>
						</g>
					</g>
				</g>
				<g>
					<g>
						<circle class="st7" cx="37.5" cy="174.1" r="16.5"/>
					</g>
					<g>
						<g>
							<path class="st8" d="M39.8,180.6h-5.1c-1.7,0-3-1.4-3-3c0-0.6,0.4-1,1-1s1,0.4,1,1s0.5,1,1,1h5.1c0.7,0,1.3-0.6,1.3-1.3v-0.9
								c0-0.7-0.6-1.3-1.3-1.3h-5c-1.8,0-3.7-1.4-3.7-3.3v-0.9c0-1.9,2-3.3,3.7-3.3h5.4c1.4,0,2.6,1.2,2.6,2.6c0,0.6-0.4,1-1,1
								s-1-0.4-1-1c0-0.3-0.3-0.6-0.6-0.6h-5.4c-0.8,0-1.7,0.7-1.7,1.3v0.9c0,0.6,0.9,1.3,1.7,1.3h5c1.8,0,3.3,1.5,3.3,3.3v0.9
								C43.1,179.1,41.7,180.6,39.8,180.6z"/>
						</g>
						<g>
							<path class="st8" d="M37.6,183.3c-0.6,0-1-0.4-1-1v-16.5c0-0.6,0.4-1,1-1s1,0.4,1,1v16.5C38.6,182.9,38.1,183.3,37.6,183.3z"
								/>
						</g>
					</g>
				</g>
			</g>
			<g>
				<g>
					<g>
						<rect x="184" y="19.6" class="st4" width="2" height="4"/>
					</g>
					<g>
						<rect x="184" y="29.6" class="st4" width="2" height="4"/>
					</g>
				</g>
				<g>
					<g>
						<rect x="188" y="25.6" class="st4" width="4" height="2"/>
					</g>
					<g>
						<rect x="178" y="25.6" class="st4" width="4" height="2"/>
					</g>
				</g>
			</g>
			<g>
				<g>
					<g>
						<rect x="18" y="5.6" class="st4" width="2" height="4"/>
					</g>
					<g>
						<rect x="18" y="15.6" class="st4" width="2" height="4"/>
					</g>
				</g>
				<g>
					<g>
						<rect x="22" y="11.6" class="st4" width="4" height="2"/>
					</g>
					<g>
						<rect x="12" y="11.6" class="st4" width="4" height="2"/>
					</g>
				</g>
			</g>
			<g>
				<g>
					<g>
						<rect x="6" y="107.6" class="st4" width="2" height="4"/>
					</g>
					<g>
						<rect x="6" y="117.6" class="st4" width="2" height="4"/>
					</g>
				</g>
				<g>
					<g>
						<rect x="10" y="113.6" class="st4" width="4" height="2"/>
					</g>
					<g>
						<rect y="113.6" class="st4" width="4" height="2"/>
					</g>
				</g>
			</g>
		</g>
	</g>
</g>
<g class="st0">
	<g class="st1">
		<g>
			<line class="st9" x1="170.2" y1="91.3" x2="170.2" y2="95.3"/>
			<line class="st9" x1="170.2" y1="101.3" x2="170.2" y2="105.3"/>
		</g>
		<g>
			<line class="st9" x1="177.2" y1="98.3" x2="173.2" y2="98.3"/>
			<line class="st9" x1="167.2" y1="98.3" x2="163.2" y2="98.3"/>
		</g>
	</g>
	<g class="st1">
		<g>
			<polyline class="st7" points="125.2,32.3 125.2,56.3 149.2,56.3 			"/>
			<g>
				<polyline class="st10" points="44.2,87.3 44.2,32.3 61.2,32.3 				"/>
				<polyline class="st10" points="70.2,32.3 125.7,32.3 149.2,56.3 149.2,175.3 44.2,175.3 44.2,125.3 				"/>
			</g>
			<line class="st10" x1="65.6" y1="32.4" x2="65.6" y2="32.4"/>
		</g>
		<g>
			<circle class="st5" cx="119.2" cy="74.3" r="15"/>
			<g>
				<g>
					<path class="st11" d="M114.5,74.3l7.1,0c2.3,0,4.2,2,4.2,4.5l0,0c0,2.5-1.8,4.5-4.1,4.5h-7.4v-18h6c2.3,0,4.2,2,4.2,4.5v0
						c0,2.5-1.9,4.5-4.2,4.5h-6"/>
				</g>
			</g>
		</g>
		<g>
			<circle class="st7" cx="73.7" cy="73.8" r="15.5"/>
			<g>
				<polyline class="st11" points="66.5,82.7 73.8,64.8 81,82.8 				"/>
				<line class="st11" x1="69.2" y1="77.3" x2="78.2" y2="77.3"/>
			</g>
		</g>
		<g>
			<circle class="st11" cx="59.2" cy="107.3" r="1"/>
			<line class="st11" x1="65.2" y1="107.3" x2="89.2" y2="107.3"/>
		</g>
		<g>
			<circle class="st11" cx="59.2" cy="115.3" r="1"/>
			<line class="st11" x1="65.2" y1="115.3" x2="89.2" y2="115.3"/>
		</g>
		<g>
			<circle class="st11" cx="59.2" cy="123.3" r="1"/>
			<line class="st11" x1="65.2" y1="123.3" x2="89.2" y2="123.3"/>
		</g>
		<g>
			<circle class="st11" cx="59.2" cy="131.3" r="1"/>
			<line class="st11" x1="65.2" y1="131.3" x2="89.2" y2="131.3"/>
		</g>
		<g>
			<circle class="st11" cx="59.2" cy="147.3" r="1"/>
			<line class="st11" x1="65.2" y1="147.3" x2="89.2" y2="147.3"/>
		</g>
		<g>
			<circle class="st11" cx="59.2" cy="139.3" r="1"/>
			<line class="st11" x1="65.2" y1="139.3" x2="89.2" y2="139.3"/>
		</g>
		<g>
			<circle class="st11" cx="105.3" cy="107.3" r="1"/>
			<line class="st11" x1="111.2" y1="107.3" x2="135.2" y2="107.3"/>
		</g>
		<g>
			<circle class="st11" cx="105.3" cy="115.3" r="1"/>
			<line class="st11" x1="111.2" y1="115.3" x2="135.2" y2="115.3"/>
		</g>
		<g>
			<circle class="st11" cx="105.3" cy="123.3" r="1"/>
			<line class="st11" x1="111.2" y1="123.3" x2="135.2" y2="123.3"/>
		</g>
		<g>
			<circle class="st11" cx="105.3" cy="131.3" r="1"/>
			<line class="st11" x1="111.2" y1="131.3" x2="135.2" y2="131.3"/>
		</g>
		<g>
			<circle class="st11" cx="105.3" cy="147.3" r="1"/>
			<line class="st11" x1="111.2" y1="147.3" x2="135.2" y2="147.3"/>
		</g>
		<g>
			<circle class="st11" cx="105.3" cy="139.3" r="1"/>
			<line class="st11" x1="111.2" y1="139.3" x2="135.2" y2="139.3"/>
		</g>
	</g>
	<g class="st1">
		<path class="st11" d="M161.3,5.2c-16.5,0-29.9,13.4-29.9,29.9c0,12.5,7.6,23.1,18.5,27.6c-0.3,3.7-3.4,6.6-7.2,6.6h3.6
			c4.2,0,7.9-1.8,10.6-4.6c1.4,0.2,2.9,0.3,4.4,0.3c16.5,0,29.9-13.4,29.9-29.9C191.2,18.6,177.8,5.2,161.3,5.2z"/>
		<line class="st12" x1="144.2" y1="22.3" x2="178.2" y2="22.3"/>
		<line class="st12" x1="144.2" y1="26.3" x2="178.2" y2="26.3"/>
		<line class="st12" x1="144.2" y1="30.3" x2="178.2" y2="30.3"/>
		<polyline class="st9" points="166.4,42.3 169.4,45.4 179.2,35.6 		"/>
		<line class="st9" x1="148.2" y1="38.4" x2="156.2" y2="46.4"/>
		<line class="st9" x1="156.2" y1="38.4" x2="148.2" y2="46.4"/>
		<rect x="145.2" y="35.3" class="st9" width="14" height="14"/>
		<polyline class="st9" points="177.2,41.3 177.2,49.3 163.2,49.3 163.2,35.3 175.2,35.3 		"/>
	</g>
	<g class="st1">
		<g>
			<g>
				<g>
					<rect x="142.2" y="138.3" class="st13" width="44" height="28"/>
				</g>
			</g>
		</g>
		<g>
			<g>
				<g>
					<rect x="142.2" y="138.3" class="st9" width="44" height="28"/>
					<polyline class="st12" points="179.8,142.7 164.4,152.6 148.2,142.4 					"/>
				</g>
				<line class="st12" x1="183.1" y1="162.5" x2="174.2" y2="151.8"/>
				<line class="st12" x1="145.6" y1="162.5" x2="154.5" y2="151.8"/>
			</g>
			<line class="st9" x1="166.2" y1="169.3" x2="166.2" y2="183.3"/>
			<line class="st10" x1="166.2" y1="186.4" x2="166.2" y2="186.4"/>
			<line class="st9" x1="175.2" y1="169.3" x2="175.2" y2="174.3"/>
			<line class="st10" x1="174.9" y1="177.7" x2="174.9" y2="177.7"/>
			<line class="st9" x1="157.2" y1="169.3" x2="157.2" y2="177.3"/>
			<line class="st10" x1="157.5" y1="180.6" x2="157.5" y2="180.6"/>
		</g>
	</g>
	<g class="st1">
		<path class="st14" d="M16.9,108.3c-2.6-5.2-0.6-11.6,4.6-14.2s11.6-0.6,14.2,4.6"/>
		<ellipse transform="matrix(0.7174 -0.6967 0.6967 0.7174 -64.6047 47.5965)" class="st15" cx="26.4" cy="103.4" rx="5" ry="5"/>
		<path class="st9" d="M6.1,117.1l3-1.5c3.3-1.7,6.7,1.8,5.1,5.1l-1.5,3l5.4,2.8l1.5-3c1.7-3.3,6.5-2.5,7.1,1.1l0.5,3.3l6-0.9
			l-0.5-3.3c-0.6-3.6,3.8-5.9,6.4-3.3l2.3,2.3l4.3-4.3l-2.3-2.3c-2.6-2.6-0.3-7,3.3-6.4l3.3,0.5l1-6l-3.3-0.5
			c-3.6-0.6-4.4-5.4-1.1-7.1l3-1.5l-2.7-5.3l-3,1.5c-3.3,1.7-6.7-1.8-5.1-5.1l1.5-3l-5.4-2.8l-1.5,3c-1.7,3.3-6.5,2.5-7.1-1.1
			L25.6,79l-6,0.9l0.5,3.3c0.6,3.6-3.8,5.9-6.4,3.3l-2.3-2.3l-4.3,4.3l2.3,2.3c2.6,2.6,0.3,7-3.3,6.4l-3.3-0.5l-1,6l3.3,0.5
			c3.6,0.6,4.4,5.4,1.1,7.1l-3,1.5L6.1,117.1z"/>
		<ellipse transform="matrix(0.7174 -0.6967 0.6967 0.7174 -64.6047 47.5964)" class="st16" cx="26.4" cy="103.4" rx="14" ry="14"/>
	</g>
	<g class="st1">
		
			<ellipse transform="matrix(7.021621e-02 -0.9975 0.9975 7.021621e-02 -117.2098 192.147)" class="st14" cx="44.5" cy="158.9" rx="11.7" ry="11.7"/>
		<ellipse class="st14" cx="44.5" cy="158.9" rx="6.3" ry="11.7"/>
		<line class="st14" x1="33.2" y1="159.3" x2="56.2" y2="159.3"/>
	</g>
	<g class="st1">
		<g>
			<line class="st9" x1="29.2" y1="174.3" x2="29.2" y2="178.3"/>
			<line class="st9" x1="29.2" y1="184.3" x2="29.2" y2="188.3"/>
		</g>
		<g>
			<line class="st9" x1="36.2" y1="181.3" x2="32.2" y2="181.3"/>
			<line class="st9" x1="26.2" y1="181.3" x2="22.2" y2="181.3"/>
		</g>
	</g>
	<g class="st1">
		<g>
			<line class="st9" x1="29.2" y1="44.3" x2="29.2" y2="48.3"/>
			<line class="st9" x1="29.2" y1="54.3" x2="29.2" y2="58.3"/>
		</g>
		<g>
			<line class="st9" x1="36.2" y1="51.3" x2="32.2" y2="51.3"/>
			<line class="st9" x1="26.2" y1="51.3" x2="22.2" y2="51.3"/>
		</g>
	</g>
	<circle class="st17" cx="159.2" cy="120.3" r="3"/>
	<circle class="st17" cx="31.2" cy="68.3" r="3"/>
	<circle class="st18" cx="88.2" cy="185.3" r="4"/>
</g>
<g class="st0">
	<g class="st1">
		<circle class="st6" cx="165.4" cy="87.7" r="2.8"/>
		<circle class="st6" cx="37.3" cy="30.7" r="2.8"/>
		<circle class="st6" cx="3.4" cy="125.9" r="2.8"/>
		<line class="st12" x1="91" y1="162.2" x2="101.8" y2="162.2"/>
		<path class="st19" d="M168.1,103.6l-28-12l12.2,29.6l4.8-9.7l7.1,7.1l2.9-2.7l-7.3-7.3L168.1,103.6z"/>
		<rect x="50.3" y="7.2" class="st19" width="92" height="6"/>
		<rect x="82.4" y="139.5" class="st20" width="28.1" height="11.9"/>
		<rect x="120.2" y="113.6" class="st20" width="6.5" height="4.3"/>
		<rect x="66.1" y="113.6" class="st20" width="6.5" height="4.3"/>
		<rect x="136.5" y="122.2" class="st20" width="6.5" height="4.3"/>
		<rect x="125.6" y="122.2" class="st20" width="6.5" height="4.3"/>
		<rect x="114.8" y="122.2" class="st20" width="6.5" height="4.3"/>
		<rect x="104" y="122.2" class="st20" width="6.5" height="4.3"/>
		<rect x="82.4" y="122.2" class="st20" width="6.5" height="4.3"/>
		<rect x="71.5" y="122.2" class="st20" width="6.5" height="4.3"/>
		<rect x="60.7" y="122.2" class="st20" width="6.5" height="4.3"/>
		<rect x="49.9" y="122.2" class="st20" width="6.5" height="4.3"/>
		<rect x="131.1" y="130.9" class="st20" width="6.5" height="4.3"/>
		<rect x="120.2" y="130.9" class="st20" width="6.5" height="4.3"/>
		<rect x="109.4" y="130.9" class="st20" width="6.5" height="4.3"/>
		<rect x="76.9" y="130.9" class="st20" width="6.5" height="4.3"/>
		<rect x="66.1" y="130.9" class="st20" width="6.5" height="4.3"/>
		<rect x="55.3" y="130.9" class="st20" width="6.5" height="4.3"/>
		<path class="st12" d="M43.2,88.9V41.1c0-1.2,1-2.2,2.2-2.2h4.9"/>
		<path class="st12" d="M142.3,38.9h4.5c1.2,0,2.2,1,2.2,2.2v8.8v14v5"/>
		<path class="st9" d="M53.5,161.7H39.3c-2.2,0-3.9-1.8-3.9-3.9v-5.9l7.8-42.9H149l7.8,42.9v5.9c0,2.2-1.8,3.9-3.9,3.9h-12"/>
		<rect x="55.3" y="113.6" class="st20" width="6.5" height="4.3"/>
		<rect x="76.9" y="113.6" class="st20" width="6.5" height="4.3"/>
		<rect x="87.8" y="113.6" class="st20" width="6.5" height="4.3"/>
		<rect x="98.6" y="113.6" class="st20" width="6.5" height="4.3"/>
		<rect x="109.4" y="113.6" class="st20" width="6.5" height="4.3"/>
		<rect x="131.1" y="113.6" class="st20" width="6.5" height="4.3"/>
		<rect x="93.2" y="122.2" class="st20" width="6.5" height="4.3"/>
		<rect x="87.8" y="130.9" class="st20" width="6.5" height="4.3"/>
		<rect x="98.6" y="130.9" class="st20" width="6.5" height="4.3"/>
		<line class="st12" x1="40.2" y1="153.6" x2="51.3" y2="153.6"/>
		<line class="st12" x1="143.2" y1="153.6" x2="152.7" y2="153.6"/>
		<line class="st12" x1="94.3" y1="155.7" x2="98.6" y2="155.7"/>
		<g>
			
				<rect x="109.8" y="172.7" transform="matrix(1 -5.862900e-03 5.862900e-03 1 -1.0529 0.7363)" class="st6" width="30.5" height="14.6"/>
			<rect x="54.1" y="172.7" class="st6" width="30.5" height="14.6"/>
			<g>
				<g>
					<g>
						<path class="st11" d="M112.4,172.7l0-3.6c0-0.7-0.4-1.7-0.9-2.1l-4.8-5.6c-2.6-2.6-3.8-5.4-3.7-10.1l0-4.9
							c0-2,1.6-3.7,3.6-3.7h0c2,0,3.6,1.6,3.6,3.6c0,2.6,0,5.7,0,6.1l0-23.9c0-2.2,2-4,4.3-3.6c1.9,0.3,3.2,2,3.2,3.9l0,15.6l0,0
							l0-18.6c0-2.1,2-3.8,4.1-3.7c1.8,0.2,3.3,1.9,3.3,3.8l0,18.5l0-15.3c0-2.1,1.8-3.9,4-3.6c1.9,0.2,3.3,2.5,3.3,4.4l-0.1,14.5
							l0-10.9c0-2.1,1.7-3.8,3.8-3.7c1.9,0.1,3.4,1.9,3.4,3.8l0,14.9c0,6.7-1.4,13.4-3.8,19.7c-0.1,0.1,0,0.2,0,0.3l0,4.3"/>
					</g>
				</g>
				<line class="st11" x1="114.4" y1="147.2" x2="114.4" y2="147.2"/>
				<line class="st11" x1="121.7" y1="147.2" x2="121.7" y2="147.2"/>
				<line class="st11" x1="129" y1="147.2" x2="129" y2="147.2"/>
				<line class="st11" x1="136.4" y1="147.2" x2="136.4" y2="147.2"/>
			</g>
			<line class="st12" x1="109.7" y1="172.7" x2="140.2" y2="172.7"/>
			<line class="st11" x1="132.5" y1="179.9" x2="132.5" y2="179.9"/>
			<g>
				<g>
					<g>
						<path class="st11" d="M81.9,172.7l0-3.6c0-0.7,0.4-1.7,0.9-2.1l4.8-5.6c2.6-2.6,3.8-5.4,3.7-10.1l0-4.9c0-2-1.6-3.7-3.6-3.7h0
							c-2,0-3.6,1.6-3.6,3.6c0,2.6,0,5.7,0,6.1l0-23.9c0-2.2-2-4-4.3-3.6c-1.9,0.3-3.2,2-3.2,3.9l0,15.6l0,0l0-18.6
							c0-2.1-2-3.8-4.1-3.7c-1.8,0.2-3.3,1.9-3.3,3.8l0,18.5l0-15.3c0-2.1-1.8-3.9-4-3.6c-1.9,0.2-3.3,2.5-3.3,4.4l0.1,14.5l0-10.9
							c0-2.1-1.7-3.8-3.8-3.7c-1.9,0.1-3.4,1.9-3.4,3.8l0,14.9c0,6.7,1.4,13.4,3.8,19.7c0.1,0.1,0,0.2,0,0.3l0,4.3"/>
					</g>
				</g>
				<line class="st11" x1="58.3" y1="147.2" x2="58.3" y2="147.2"/>
				<line class="st11" x1="65.7" y1="147.2" x2="65.7" y2="147.2"/>
				<line class="st11" x1="73" y1="147.2" x2="73" y2="147.2"/>
				<line class="st11" x1="80.4" y1="147.2" x2="80.4" y2="147.2"/>
			</g>
			<line class="st12" x1="84.6" y1="172.7" x2="54.1" y2="172.7"/>
			<line class="st11" x1="61.8" y1="179.9" x2="61.8" y2="179.9"/>
		</g>
		<g>
			<line class="st14" x1="142.5" y1="72.8" x2="157.5" y2="72.8"/>
			<line class="st14" x1="32.5" y1="72.8" x2="50.4" y2="72.8"/>
			<g>
				<g>
					<path class="st14" d="M142.5,68.8l21.6,0c2.2,0,4,1.8,4,4v0c0,2.2-1.8,4-4,4l-21.6,0"/>
				</g>
				<line class="st14" x1="157.5" y1="76.8" x2="157.5" y2="69.2"/>
			</g>
			<g>
				<g>
					<polyline class="st14" points="50.4,76.8 31.7,76.8 23,72.8 31.7,68.8 50.4,68.8 					"/>
				</g>
			</g>
		</g>
		<polygon class="st9" points="142.3,45.4 142.3,63.4 142.3,103.2 50.3,103.2 50.3,7.2 142.4,7.2 		"/>
		<g>
			<circle class="st13" cx="57.3" cy="10.7" r="1"/>
			<circle class="st13" cx="53.3" cy="10.7" r="1"/>
			<circle class="st13" cx="61.3" cy="10.7" r="1"/>
		</g>
		<path class="st12" d="M43.2,76.9"/>
		<g>
			<g>
				<line class="st9" x1="181.6" y1="91.2" x2="181.6" y2="95.2"/>
				<line class="st9" x1="181.6" y1="101.2" x2="181.6" y2="105.2"/>
			</g>
			<g>
				<line class="st9" x1="188.6" y1="98.2" x2="184.6" y2="98.2"/>
				<line class="st9" x1="178.6" y1="98.2" x2="174.6" y2="98.2"/>
			</g>
		</g>
		<g>
			<g>
				<line class="st9" x1="18.5" y1="150.2" x2="18.5" y2="154.2"/>
				<line class="st9" x1="18.5" y1="160.2" x2="18.5" y2="164.2"/>
			</g>
			<g>
				<line class="st9" x1="25.5" y1="157.2" x2="21.5" y2="157.2"/>
				<line class="st9" x1="15.5" y1="157.2" x2="11.5" y2="157.2"/>
			</g>
		</g>
		<circle class="st5" cx="22.3" cy="111.7" r="2.8"/>
		<ellipse class="st7" cx="160.6" cy="171.7" rx="1.5" ry="1.6"/>
		<g>
			<g>
				<path class="st21" d="M36.5,90.4c-2.4-1.1-5.2-1.6-8-1.5c-10,0.4-17.8,8.8-17.4,18.8c0.4,10,8.8,17.8,18.8,17.4
					c10-0.4,17.8-8.8,17.4-18.8c-0.1-2.9-0.9-5.5-2.2-7.9l1.7-10.1L36.5,90.4z"/>
			</g>
		</g>
		<line class="st9" x1="21.4" y1="103.2" x2="37.1" y2="103.2"/>
		<line class="st9" x1="21.4" y1="107.2" x2="37.1" y2="107.2"/>
		<line class="st9" x1="21.4" y1="111.2" x2="37.1" y2="111.2"/>
		<rect x="55.4" y="17.2" class="st9" width="82" height="18"/>
		<rect x="55.4" y="39.2" class="st9" width="24" height="12"/>
		<rect x="84.4" y="39.2" class="st9" width="24" height="12"/>
		<rect x="113.4" y="39.2" class="st9" width="24" height="12"/>
		<g>
			<line class="st22" x1="55.4" y1="55.2" x2="79.4" y2="55.2"/>
			<line class="st22" x1="84.4" y1="55.2" x2="108.4" y2="55.2"/>
			<line class="st22" x1="113.4" y1="55.2" x2="137.4" y2="55.2"/>
		</g>
		<g>
			<line class="st22" x1="55.4" y1="59.2" x2="79.4" y2="59.2"/>
			<line class="st22" x1="84.4" y1="59.2" x2="108.4" y2="59.2"/>
			<line class="st22" x1="113.4" y1="59.2" x2="137.4" y2="59.2"/>
		</g>
		<g>
			<line class="st22" x1="55.4" y1="63.2" x2="79.4" y2="63.2"/>
			<line class="st22" x1="84.4" y1="63.2" x2="108.4" y2="63.2"/>
			<line class="st22" x1="113.4" y1="63.2" x2="137.4" y2="63.2"/>
		</g>
		<g>
			<line class="st22" x1="55.4" y1="67.2" x2="79.4" y2="67.2"/>
			<line class="st22" x1="84.4" y1="67.2" x2="108.4" y2="67.2"/>
			<line class="st22" x1="113.4" y1="67.2" x2="137.4" y2="67.2"/>
		</g>
		<rect x="55.4" y="71.2" class="st9" width="24" height="12"/>
		<rect x="84.4" y="71.2" class="st9" width="24" height="12"/>
		<rect x="113.4" y="71.2" class="st9" width="24" height="12"/>
		<g>
			<line class="st22" x1="55.4" y1="87.2" x2="79.4" y2="87.2"/>
			<line class="st22" x1="84.4" y1="87.2" x2="108.4" y2="87.2"/>
			<line class="st22" x1="113.4" y1="87.2" x2="137.4" y2="87.2"/>
		</g>
		<g>
			<line class="st22" x1="55.4" y1="91.2" x2="79.4" y2="91.2"/>
			<line class="st22" x1="84.4" y1="91.2" x2="108.4" y2="91.2"/>
			<line class="st22" x1="113.4" y1="91.2" x2="137.4" y2="91.2"/>
		</g>
		<g>
			<line class="st22" x1="55.4" y1="95.2" x2="79.4" y2="95.2"/>
			<line class="st22" x1="84.4" y1="95.2" x2="108.4" y2="95.2"/>
			<line class="st22" x1="113.4" y1="95.2" x2="137.4" y2="95.2"/>
		</g>
		<g>
			<line class="st22" x1="55.4" y1="99.2" x2="79.4" y2="99.2"/>
			<line class="st22" x1="84.4" y1="99.2" x2="108.4" y2="99.2"/>
			<line class="st22" x1="113.4" y1="99.2" x2="137.4" y2="99.2"/>
		</g>
		<g>
			<path class="st23" d="M158.1,93.6l-28-12l12.2,29.6l4.8-9.7l8.1,8.1l2.8-2.8l-8.2-8.2L158.1,93.6z"/>
		</g>
	</g>
	<line class="st24" x1="149" y1="77.2" x2="149" y2="89.6"/>
	<circle class="st17" cx="189.5" cy="123.3" r="3"/>
</g>
<g class="st0">
	<circle class="st25" cx="179.5" cy="29.8" r="3"/>
	<rect x="48.5" y="22.8" class="st25" width="96" height="22"/>
	<rect x="102.5" y="115.8" class="st25" width="44" height="16"/>
	<rect x="160.5" y="138.8" class="st25" width="28" height="8"/>
	<rect x="48.5" y="64.8" class="st17" width="46" height="22"/>
	<path class="st26" d="M192.3,75.2l-28-12l12.2,29.6l4.8-9.7l7.1,7.1l2.9-2.7l-7.3-7.3L192.3,75.2z"/>
	<polygon class="st26" points="42.5,112.8 42.5,34.8 23.8,34.8 	"/>
	<polygon class="st26" points="149.5,112.8 149.5,34.8 168.4,34.8 	"/>
	<path class="st26" d="M21.5,115.8v13.2c0,1.3,1.1,2.8,2.4,2.8h144.2c1.3,0,2.4-1.5,2.4-2.8V116L21.5,115.8z"/>
	<rect x="79.5" y="131.8" class="st26" width="34" height="14"/>
	<rect x="43.5" y="1.8" class="st26" width="106" height="14"/>
	<g class="st1">
		<g>
			<g>
				<g>
					<g>
						<g>
							<path class="st14" d="M149.6,34.7l18.7-0.2c1.3,0,2.4,1.1,2.4,2.4l-0.1,92.3c0,1.3-1.1,2.6-2.4,2.6H23.9
								c-1.3,0-2.4-1.5-2.4-2.8V37c0-1.3,1.1-2.2,2.4-2.2h18.6"/>
						</g>
					</g>
				</g>
			</g>
		</g>
	</g>
	<line class="st27" x1="69.5" y1="145.8" x2="122.5" y2="145.8"/>
	<line class="st27" x1="79.5" y1="145.8" x2="79.5" y2="131.8"/>
	<line class="st27" x1="112.5" y1="131.8" x2="112.5" y2="145.8"/>
	<polyline class="st27" points="149.5,115.8 149.5,1.8 43.5,1.8 43.5,59.8 43.5,60.7 43.5,115.8 	"/>
	<circle class="st28" cx="50.4" cy="9" r="2.4"/>
	<circle class="st28" cx="60" cy="9" r="2.4"/>
	<circle class="st28" cx="69.6" cy="9" r="2.4"/>
	<path class="st29" d="M159.6,29"/>
	<g class="st1">
		<path class="st23" d="M182.3,65.2l-28-12l12.2,29.6l4.8-9.7l8.1,8.1l2.8-2.8l-8.2-8.2L182.3,65.2z"/>
	</g>
	<g class="st1">
		<g>
			<g>
				<path class="st13" d="M72.9,162.8H5.5c-2.2,0-4,1.7-4,3.9l0,0c0,2.2,1.8,4,4,4h67.4l8.7-4L72.9,162.8z"/>
			</g>
		</g>
		<g>
			<g>
				<g>
					<path class="st14" d="M72.9,162.8H5.5c-2.2,0-4,1.7-4,3.9l0,0c0,2.2,1.8,4,4,4h67.4l8.7-4L72.9,162.8z"/>
				</g>
				<line class="st14" x1="12.5" y1="170.8" x2="12.5" y2="162.8"/>
			</g>
			<line class="st14" x1="72.5" y1="166.8" x2="12.5" y2="166.8"/>
		</g>
	</g>
	<circle class="st27" cx="17.5" cy="17.8" r="3"/>
	<circle class="st17" cx="21.5" cy="148.8" r="5"/>
	<g class="st1">
		<g>
			<line class="st9" x1="7.5" y1="56.8" x2="7.5" y2="60.8"/>
			<line class="st9" x1="7.5" y1="66.8" x2="7.5" y2="70.8"/>
		</g>
		<g>
			<line class="st9" x1="14.5" y1="63.8" x2="10.5" y2="63.8"/>
			<line class="st9" x1="4.5" y1="63.8" x2="0.5" y2="63.8"/>
		</g>
	</g>
	<g class="st1">
		<path class="st13" d="M191.5,187.8c0,2.2-1.8,4-4,4h-26c-2.2,0-4-1.8-4-4v-56c0-2.2,1.8-4,4-4h26c2.2,0,4,1.8,4,4V187.8z"/>
		<path class="st14" d="M191.5,187.8c0,2.2-1.8,4-4,4h-26c-2.2,0-4-1.8-4-4v-56c0-2.2,1.8-4,4-4h26c2.2,0,4,1.8,4,4V187.8z"/>
		<line class="st14" x1="160.5" y1="183.8" x2="188.5" y2="183.8"/>
		<line class="st14" x1="188.5" y1="135.8" x2="160.5" y2="135.8"/>
		<line class="st14" x1="171.5" y1="187.8" x2="177.5" y2="187.8"/>
		<line class="st14" x1="173.5" y1="131.8" x2="175.5" y2="131.8"/>
	</g>
	<g class="st1">
		<path class="st13" d="M151.5,187.8c0,2.2-1.8,4-4,4h-46c-2.2,0-4-1.8-4-4v-79c0-2.2,1.8-4,4-4h46c2.2,0,4,1.8,4,4V187.8z"/>
		<path class="st14" d="M151.5,187.8c0,2.2-1.8,4-4,4h-46c-2.2,0-4-1.8-4-4v-79c0-2.2,1.8-4,4-4h46c2.2,0,4,1.8,4,4V187.8z"/>
		<line class="st14" x1="100.5" y1="183.8" x2="148.5" y2="183.8"/>
		<line class="st14" x1="148.5" y1="112.8" x2="100.5" y2="112.8"/>
		<line class="st14" x1="121.5" y1="187.8" x2="127.5" y2="187.8"/>
		<line class="st14" x1="123.5" y1="108.8" x2="125.5" y2="108.8"/>
	</g>
	<rect x="48.5" y="64.8" class="st27" width="46" height="22"/>
	<rect x="98.5" y="64.8" class="st27" width="46" height="22"/>
	<g class="st1">
		<line class="st14" x1="50.5" y1="50.8" x2="92.5" y2="50.8"/>
		<line class="st14" x1="50.5" y1="54.8" x2="92.5" y2="54.8"/>
		<line class="st14" x1="50.5" y1="58.8" x2="80.5" y2="58.8"/>
	</g>
	<g class="st1">
		<line class="st14" x1="100.5" y1="50.8" x2="142.5" y2="50.8"/>
		<line class="st14" x1="100.5" y1="54.8" x2="142.5" y2="54.8"/>
		<line class="st14" x1="100.5" y1="58.8" x2="130.5" y2="58.8"/>
	</g>
	<polygon class="st27" points="114.5,70.8 114.5,80.8 128.5,75.8 	"/>
	<line class="st27" x1="102.5" y1="134.8" x2="145.5" y2="134.8"/>
	<line class="st27" x1="102.5" y1="138.8" x2="145.5" y2="138.8"/>
	<line class="st27" x1="102.5" y1="142.8" x2="145.5" y2="142.8"/>
	<rect x="102.5" y="146.8" class="st17" width="44" height="14"/>
	<rect x="102.5" y="146.8" class="st27" width="44" height="14"/>
	<rect x="102.5" y="164.8" class="st27" width="44" height="14"/>
	<polygon class="st27" points="120.5,168.8 120.5,174.7 128.9,171.7 	"/>
	<line class="st27" x1="188.5" y1="149.8" x2="160.5" y2="149.8"/>
	<line class="st27" x1="188.5" y1="153.8" x2="160.5" y2="153.8"/>
	<rect x="161.5" y="157.8" class="st17" width="26" height="9"/>
	<rect x="161.5" y="157.8" class="st27" width="26" height="9"/>
	<rect x="161.5" y="170.8" class="st27" width="26" height="9"/>
	<g class="st1">
		<polygon class="st8" points="172.5,173.1 172.5,177.5 178.1,175.2 		"/>
	</g>
	<line class="st27" x1="50.5" y1="91.8" x2="92.5" y2="91.8"/>
	<line class="st27" x1="50.5" y1="95.8" x2="92.5" y2="95.8"/>
	<line class="st27" x1="50.5" y1="99.8" x2="80.5" y2="99.8"/>
	<line class="st27" x1="100.5" y1="91.8" x2="142.5" y2="91.8"/>
	<line class="st27" x1="100.5" y1="95.8" x2="142.5" y2="95.8"/>
	<line class="st27" x1="100.5" y1="99.8" x2="130.5" y2="99.8"/>
	<g class="st1">
		<g>
			<line class="st9" x1="53.5" y1="177.8" x2="53.5" y2="181.8"/>
			<line class="st9" x1="53.5" y1="187.8" x2="53.5" y2="191.8"/>
		</g>
		<g>
			<line class="st9" x1="60.5" y1="184.8" x2="56.5" y2="184.8"/>
			<line class="st9" x1="50.5" y1="184.8" x2="46.5" y2="184.8"/>
		</g>
	</g>
</g>
<g class="st0">
	<circle class="st25" cx="6.7" cy="128.8" r="2.8"/>
	<path class="st26" d="M189.4,174.9l-28-12l12.2,29.6l4.8-9.7l7.1,7.1l2.9-2.7l-7.3-7.3L189.4,174.9z"/>
	<g class="st1">
		<g>
			<line class="st9" x1="140.4" y1="162.5" x2="140.4" y2="166.5"/>
			<line class="st9" x1="140.4" y1="172.5" x2="140.4" y2="176.5"/>
		</g>
		<g>
			<line class="st9" x1="147.4" y1="169.5" x2="143.4" y2="169.5"/>
			<line class="st9" x1="137.4" y1="169.5" x2="133.4" y2="169.5"/>
		</g>
	</g>
	<g class="st1">
		<g>
			<line class="st9" x1="10.4" y1="178.5" x2="10.4" y2="182.5"/>
			<line class="st9" x1="10.4" y1="188.5" x2="10.4" y2="192.5"/>
		</g>
		<g>
			<line class="st9" x1="17.4" y1="185.5" x2="13.4" y2="185.5"/>
			<line class="st9" x1="7.4" y1="185.5" x2="3.4" y2="185.5"/>
		</g>
	</g>
	<circle class="st17" cx="182.2" cy="96.3" r="2.8"/>
	<circle class="st17" cx="136.7" cy="3.8" r="2.8"/>
	<g class="st1">
		<rect x="23.4" y="45.5" class="st6" width="97" height="60"/>
		<circle class="st6" cx="163.7" cy="29.5" r="3"/>
		
			<rect x="57.4" y="108.5" transform="matrix(-1.836970e-16 1 -1 -1.836970e-16 237.9207 -18.8687)" class="st19" width="142" height="2"/>
		<rect x="28.4" y="26.5" class="st5" width="10" height="6"/>
		<rect x="15.4" y="9.5" class="st19" width="156" height="11"/>
		<rect x="15.4" y="146.5" class="st19" width="113" height="2"/>
		<rect x="15.4" y="37.5" class="st19" width="156" height="2"/>
		<rect x="15.4" y="9.5" class="st14" width="156" height="172"/>
		<circle class="st21" cx="22.7" cy="15.7" r="2.4"/>
		<circle class="st21" cx="32.3" cy="15.7" r="2.4"/>
		<circle class="st21" cx="41.9" cy="15.7" r="2.4"/>
		<rect x="40.4" y="25.5" class="st14" width="116" height="8"/>
		<line class="st30" x1="143.4" y1="29.5" x2="150.4" y2="29.5"/>
		<line class="st14" x1="137.4" y1="25.5" x2="137.4" y2="33.5"/>
		<rect x="20.4" y="27.5" class="st14" width="8" height="4"/>
		<rect x="20.4" y="42.5" class="st14" width="103" height="66"/>
		<rect x="22.4" y="118.5" class="st14" width="10" height="10"/>
		<rect x="22.4" y="152.5" class="st14" width="10" height="10"/>
		<line class="st31" x1="22.4" y1="114.5" x2="86.4" y2="114.5"/>
		<line class="st31" x1="36.4" y1="119.5" x2="74.4" y2="119.5"/>
		<rect x="36.4" y="122.5" class="st5" width="14" height="6"/>
		<rect x="52.4" y="123.5" class="st31" width="12" height="4"/>
		<g>
			<rect x="132.4" y="46.5" class="st14" width="16" height="12"/>
			<line class="st14" x1="152.4" y1="48.5" x2="166.4" y2="48.5"/>
			<line class="st32" x1="152.4" y1="52.5" x2="158.4" y2="52.5"/>
			<line class="st32" x1="152.4" y1="56.5" x2="162.4" y2="56.5"/>
		</g>
		<g>
			<rect x="132.4" y="66.5" class="st14" width="16" height="12"/>
			<line class="st14" x1="152.4" y1="68.5" x2="166.4" y2="68.5"/>
			<line class="st32" x1="152.4" y1="72.5" x2="158.4" y2="72.5"/>
			<line class="st32" x1="152.4" y1="76.5" x2="162.4" y2="76.5"/>
		</g>
		<line class="st33" x1="132.4" y1="62.5" x2="166.4" y2="62.5"/>
		<g>
			<rect x="132.4" y="82.5" class="st14" width="16" height="12"/>
			<line class="st14" x1="152.4" y1="84.5" x2="166.4" y2="84.5"/>
			<line class="st32" x1="152.4" y1="88.5" x2="158.4" y2="88.5"/>
			<line class="st32" x1="152.4" y1="92.5" x2="162.4" y2="92.5"/>
		</g>
		<g>
			<rect x="132.4" y="98.5" class="st14" width="16" height="12"/>
			<line class="st14" x1="152.4" y1="100.5" x2="166.4" y2="100.5"/>
			<line class="st32" x1="152.4" y1="104.5" x2="158.4" y2="104.5"/>
			<line class="st32" x1="152.4" y1="108.5" x2="162.4" y2="108.5"/>
		</g>
		<g>
			<rect x="132.4" y="114.5" class="st14" width="16" height="12"/>
			<line class="st14" x1="152.4" y1="116.5" x2="166.4" y2="116.5"/>
			<line class="st32" x1="152.4" y1="120.5" x2="158.4" y2="120.5"/>
			<line class="st32" x1="152.4" y1="124.5" x2="162.4" y2="124.5"/>
		</g>
		<g>
			<rect x="132.4" y="130.5" class="st14" width="16" height="12"/>
			<line class="st14" x1="152.4" y1="132.5" x2="166.4" y2="132.5"/>
			<line class="st32" x1="152.4" y1="136.5" x2="158.4" y2="136.5"/>
			<line class="st32" x1="152.4" y1="140.5" x2="162.4" y2="140.5"/>
		</g>
		<line class="st33" x1="22.4" y1="134.5" x2="124.4" y2="134.5"/>
		<line class="st33" x1="22.4" y1="166.5" x2="124.4" y2="166.5"/>
		<line class="st31" x1="108.4" y1="130.5" x2="122.4" y2="130.5"/>
		<line class="st31" x1="115.4" y1="138.5" x2="122.4" y2="138.5"/>
		<line class="st31" x1="108.4" y1="138.5" x2="111.4" y2="138.5"/>
		<line class="st31" x1="33.4" y1="138.5" x2="40.4" y2="138.5"/>
		<line class="st31" x1="22.4" y1="138.5" x2="29.4" y2="138.5"/>
		<line class="st31" x1="44.4" y1="138.5" x2="51.4" y2="138.5"/>
		<g>
			<polygon class="st21" points="60.4,62.5 60.4,82.5 86.4,72.5 			"/>
			<g>
				<path class="st5" d="M63.4,66.9v11.3L78,72.5L63.4,66.9z"/>
			</g>
		</g>
		<line class="st14" x1="26.4" y1="96.5" x2="116.4" y2="96.5"/>
		<line class="st14" x1="44.4" y1="92.5" x2="44.4" y2="100.5"/>
		<polygon class="st14" points="38.7,152.5 122.4,152.5 122.4,162.5 41.4,162.5 41.4,156.5 		"/>
		<rect x="26.4" y="170.5" class="st14" width="6" height="6"/>
		<line class="st14" x1="40.4" y1="173.5" x2="118.4" y2="173.5"/>
	</g>
	<g class="st1">
		<g>
			<g>
				<path class="st13" d="M101,148.5l48.4,0c2.2,0,4,1.8,4,4l0,0c0,2.2-1.8,4-4,4l-48.4,0l-8.7-4L101,148.5z"/>
			</g>
		</g>
		<g>
			<g>
				<g>
					<path class="st14" d="M101,148.5l48.4,0c2.2,0,4,1.8,4,4l0,0c0,2.2-1.8,4-4,4l-48.4,0l-8.7-4L101,148.5z"/>
				</g>
				<line class="st14" x1="142.4" y1="156.5" x2="142.4" y2="148.5"/>
			</g>
			<line class="st14" x1="101.4" y1="152.5" x2="142.4" y2="152.5"/>
		</g>
	</g>
	<g class="st1">
		<path class="st23" d="M187.4,164.9l-28-12l12.2,29.6l4.8-9.7l8.1,8.1l2.8-2.8l-8.2-8.2L187.4,164.9z"/>
	</g>
</g>
<g class="st0">
	<polygon class="st17" points="93.5,29.8 93.5,53.8 75.5,53.8 75.5,143.8 27.5,143.8 27.5,29.8 	"/>
	<polyline class="st17" points="150.5,56.8 150.5,76.8 170.5,76.8 	"/>
	<path class="st34" d="M119.7,59.8h11l0,99H81.5v-9h38.2C119.7,149.8,119.5,60,119.7,59.8z"/>
	<g class="st1">
		<path class="st10" d="M155.9,29.5c5.1,0,9.3,4.2,9.3,9.3v-0.2c0,5.1-4.2,9.1-9.3,9.1h-13l3.7,3.9"/>
		<path class="st10" d="M133.6,48.1c-5.1,0-9.3-4.2-9.3-9.3V39c0-5.1,4.2-9.2,9.3-9.2h13l-3.7-3.9"/>
	</g>
	<g class="st1">
		<polyline class="st10" points="70.5,146.8 24.5,146.8 24.5,26.8 96.5,26.8 116.5,46.8 116.5,146.8 96.5,146.8 		"/>
		<polyline class="st10" points="96.5,26.8 96.5,46.8 116.5,46.8 		"/>
	</g>
	<g class="st1">
		<polyline class="st10" points="124.5,56.8 150.5,56.8 170.5,76.8 170.5,176.8 78.5,176.8 78.5,56.8 92.5,56.8 		"/>
	</g>
	<polygon class="st35" points="96.5,142.8 96.5,150.8 88.5,146.8 	"/>
	<polygon class="st35" points="92.5,52.8 92.5,60.8 100.5,56.8 	"/>
	<line class="st35" x1="120.5" y1="56.8" x2="120.5" y2="56.8"/>
	<line class="st35" x1="74.5" y1="146.8" x2="74.5" y2="146.8"/>
	<g class="st1">
		<path class="st10" d="M89.5,82.8c0,1.7-1.3,3-3,3l0,0c-1.7,0-3-1.3-3-3v-2c0-1.7,1.3-3,3-3l0,0c1.7,0,3,1.3,3,3V82.8z"/>
		<polyline class="st10" points="93.5,77.8 95.5,77.8 95.5,85.8 		"/>
		<polyline class="st10" points="99.5,77.8 101.5,77.8 101.5,85.8 		"/>
		<path class="st10" d="M111.5,82.8c0,1.7-1.3,3-3,3l0,0c-1.7,0-3-1.3-3-3v-2c0-1.7,1.3-3,3-3l0,0c1.7,0,3,1.3,3,3V82.8z"/>
	</g>
	<g class="st1">
		<path class="st10" d="M95.5,95.8c0,1.7-1.3,3-3,3l0,0c-1.7,0-3-1.3-3-3v-2c0-1.7,1.3-3,3-3l0,0c1.7,0,3,1.3,3,3V95.8z"/>
		<polyline class="st10" points="99.5,90.8 101.5,90.8 101.5,98.8 		"/>
		<path class="st10" d="M111.5,95.8c0,1.7-1.3,3-3,3l0,0c-1.7,0-3-1.3-3-3v-2c0-1.7,1.3-3,3-3l0,0c1.7,0,3,1.3,3,3V95.8z"/>
		<polyline class="st10" points="83.5,90.8 85.5,90.8 85.5,98.8 		"/>
	</g>
	<g class="st1">
		<path class="st10" d="M95.5,108.8c0,1.7-1.3,3-3,3l0,0c-1.7,0-3-1.3-3-3v-2c0-1.7,1.3-3,3-3l0,0c1.7,0,3,1.3,3,3V108.8z"/>
		<polyline class="st10" points="83.5,103.8 85.5,103.8 85.5,111.8 		"/>
		<polyline class="st10" points="108.5,103.8 110.5,103.8 110.5,111.8 		"/>
		<path class="st10" d="M105.5,108.8c0,1.7-1.3,3-3,3l0,0c-1.7,0-3-1.3-3-3v-2c0-1.7,1.3-3,3-3l0,0c1.7,0,3,1.3,3,3V108.8z"/>
	</g>
	<g class="st1">
		<path class="st10" d="M99.5,121.8c0,1.7-1.3,3-3,3l0,0c-1.7,0-3-1.3-3-3v-2c0-1.7,1.3-3,3-3l0,0c1.7,0,3,1.3,3,3V121.8z"/>
		<path class="st10" d="M89.5,121.8c0,1.7-1.3,3-3,3l0,0c-1.7,0-3-1.3-3-3v-2c0-1.7,1.3-3,3-3l0,0c1.7,0,3,1.3,3,3V121.8z"/>
		<polyline class="st10" points="102.5,116.8 104.5,116.8 104.5,124.8 		"/>
		<polyline class="st10" points="108.5,116.8 110.5,116.8 110.5,124.8 		"/>
	</g>
	<g class="st1">
		<line class="st9" x1="134.5" y1="104.8" x2="158.5" y2="104.8"/>
		<line class="st9" x1="134.5" y1="108.8" x2="158.5" y2="108.8"/>
		<line class="st9" x1="134.5" y1="112.8" x2="158.5" y2="112.8"/>
		<line class="st9" x1="134.5" y1="128.8" x2="158.5" y2="128.8"/>
		<line class="st9" x1="134.5" y1="132.8" x2="158.5" y2="132.8"/>
		<line class="st9" x1="134.5" y1="136.8" x2="158.5" y2="136.8"/>
	</g>
	<g class="st1">
		<g>
			<g>
				<g>
					<path class="st14" d="M32.3,141.5l0.6-2l2.2,0.7c2.5,0.8,4.5-2,3-4.1l-1.4-1.9l3.5-2.5l1.4,1.9c1.5,2.1,4.8,1,4.8-1.6l0-2.3
						l4.3,0l0,2.3c0,2.6,3.3,3.7,4.8,1.6l1.4-1.9l3.5,2.5l-1.4,1.9c-1.5,2.1,0.5,4.9,3,4.1l2.2-0.7l1.3,4.1l-2.2,0.7
						c-2.5,0.8-2.5,4.3,0,5.1l2.2,0.7l-0.6,2"/>
					<path class="st14" d="M41.5,144.6c1.3-3.9,5.5-6.1,9.4-4.8s6.1,5.5,4.8,9.4"/>
				</g>
				<g>
					<path class="st14" d="M41.5,144.5c-1.3,3.9,0.9,8.1,4.8,9.4s8.1-0.9,9.4-4.8"/>
					<path class="st14" d="M32.4,141.2l-0.8,2.3l2.2,0.7c2.5,0.8,2.5,4.3,0,5.1l-2.2,0.7l1.3,4.1l2.2-0.7c2.5-0.8,4.5,2,3,4.1
						l-1.4,1.9l3.5,2.5l1.4-1.9c1.5-2.1,4.8-1,4.8,1.6l0,2.3l4.3,0l0-2.3c0-2.6,3.3-3.7,4.8-1.6l1.4,1.9l3.5-2.5l-1.4-1.9
						c-1.5-2.1,0.5-4.9,3-4.1l2.2,0.7l0.8-2.5"/>
				</g>
			</g>
			<circle class="st14" cx="48.5" cy="147" r="4"/>
		</g>
	</g>
	<circle class="st17" cx="61.5" cy="171.8" r="3"/>
	<circle class="st17" cx="15.5" cy="135.8" r="3"/>
	<circle class="st17" cx="168.5" cy="54.8" r="2"/>
	<g class="st1">
		<line class="st9" x1="39.5" y1="72.8" x2="63.5" y2="72.8"/>
		<line class="st9" x1="39.5" y1="76.8" x2="63.5" y2="76.8"/>
		<line class="st9" x1="39.5" y1="80.8" x2="63.5" y2="80.8"/>
		<line class="st9" x1="39.5" y1="96.8" x2="63.5" y2="96.8"/>
		<line class="st9" x1="39.5" y1="100.8" x2="63.5" y2="100.8"/>
		<line class="st9" x1="39.5" y1="104.8" x2="63.5" y2="104.8"/>
	</g>
	<g class="st1">
		<line class="st9" x1="7.5" y1="97.8" x2="7.5" y2="101.8"/>
		<line class="st9" x1="7.5" y1="107.8" x2="7.5" y2="111.8"/>
		<g>
			<line class="st9" x1="14.5" y1="104.8" x2="10.5" y2="104.8"/>
			<line class="st9" x1="4.5" y1="104.8" x2="0.5" y2="104.8"/>
		</g>
	</g>
	<g class="st1">
		<line class="st9" x1="185.5" y1="87.8" x2="185.5" y2="91.8"/>
		<line class="st9" x1="185.5" y1="97.8" x2="185.5" y2="101.8"/>
		<g>
			<line class="st9" x1="192.5" y1="94.8" x2="188.5" y2="94.8"/>
			<line class="st9" x1="182.5" y1="94.8" x2="178.5" y2="94.8"/>
		</g>
	</g>
	<circle class="st17" cx="178.5" cy="74.8" r="2"/>
	<g class="st1">
		<line class="st9" x1="155.5" y1="156.8" x2="155.5" y2="160.8"/>
		<line class="st9" x1="155.5" y1="166.8" x2="155.5" y2="170.8"/>
		<g>
			<line class="st9" x1="162.5" y1="163.8" x2="158.5" y2="163.8"/>
			<line class="st9" x1="152.5" y1="163.8" x2="148.5" y2="163.8"/>
		</g>
	</g>
	<circle class="st17" cx="88.5" cy="17.8" r="2"/>
</g>
<g class="st0">
	<g class="st1">
		<g>
			<g>
				<g>
					<path class="st19" d="M47.8,63.7c-3,0.5-6-0.2-8.3-1.8c-0.2-0.1-0.4-0.3-0.5-0.4l7.1-5l32.7-15.4c0,0,16,0,15.8,0
						C93.1,41.5,49.2,63.5,47.8,63.7z"/>
					<path class="st19" d="M169.6,6.1L169.6,6.1c0-1.2,0.8-2,2-2c0,0,0,0,0,0l7-0.2v14.2l-7.1,0c-0.6,0-1.1-0.2-1.5-0.6
						c-0.4-0.4-0.6-1-0.6-1.5L169.6,6.1z"/>
					<g>
						<g>
							<g>
								<path class="st9" d="M166.5,30.4l-20.8,20.8c-3.1,3.1-7.5,5-11.9,5l-49.7,0.2c0-8.7,7-15.2,15.7-15.2h18.3
									c0,0-19.6,0-25.1,0H71.5l-27,13c-7.4,4.3-15.3,2.2-21.1-3.5l44.8-27.5l77.4-15h21"/>
							</g>
						</g>
						<g>
							<g>
								<path class="st9" d="M44.5,54.1l-10,6.8c0.9,1.3,2,2.4,3.2,3.4c3,2.2,6.8,2.9,10.5,2.3h0c2.2-0.4,4.3-1,6.3-2l31.3-16.2"/>
							</g>
						</g>
						<path class="st9" d="M166.4,6.1l-0.1,31c0,2.8,2.3,5.2,5.2,5.2l10.1,0V0.9l-10,0C168.8,0.9,166.4,3.3,166.4,6.1z"/>
					</g>
					<g>
						<path class="st19" d="M118.1,45.1L118.1,45.1l-23.4,0c-3.6,1-6.3,4-7.2,8h4.8c2.1-2,4.7-2,7.5-2h12.3
							C115.4,51.1,118.1,48.5,118.1,45.1z"/>
						<path class="st19" d="M34.5,53.1l34.8-20.2l76.6-14.8h17.5l0-7h-17.5L69.3,25.9L28.6,50.9C31,52.4,31.9,53.1,34.5,53.1z"/>
					</g>
				</g>
			</g>
		</g>
	</g>
	<g class="st1">
		<g>
			<line class="st9" x1="160.5" y1="187.9" x2="160.5" y2="191.9"/>
		</g>
		<g>
			<line class="st9" x1="167.5" y1="184.9" x2="163.5" y2="184.9"/>
			<line class="st9" x1="157.5" y1="184.9" x2="153.5" y2="184.9"/>
		</g>
	</g>
	<g class="st1">
		<g>
			<line class="st9" x1="40.4" y1="-0.3" x2="40.4" y2="3.7"/>
			<line class="st9" x1="40.4" y1="9.7" x2="40.4" y2="13.7"/>
		</g>
		<g>
			<line class="st9" x1="47.4" y1="6.7" x2="43.4" y2="6.7"/>
			<line class="st9" x1="37.4" y1="6.7" x2="33.4" y2="6.7"/>
		</g>
	</g>
	<g class="st1">
		<g>
			<line class="st9" x1="10.4" y1="109.8" x2="10.4" y2="113.8"/>
			<line class="st9" x1="10.4" y1="119.8" x2="10.4" y2="123.8"/>
		</g>
		<g>
			<line class="st9" x1="17.4" y1="116.8" x2="13.4" y2="116.8"/>
			<line class="st9" x1="7.4" y1="116.8" x2="3.4" y2="116.8"/>
		</g>
	</g>
	<g class="st1">
		<g>
			<path class="st6" d="M118.4,59.2c-4.5,12.3-15.8,21.4-29.4,22.6V59.3l-6.1,0v22.4c-15.5-1.4-28-12.9-30.8-28l-6.2,3
				c-2.1,1.2-4.4,2-6.6,2.4l-2.9,1.4c1,3,0.7,2.2,1.7,5.2l8.7-1.4c1.2,2.4,1.2,2.3,2.4,4.7L43,75.3c1.8,2.5,1.3,1.9,3.2,4.4l7.9-4
				c1.9,1.9,1.8,1.8,3.7,3.7l-4.1,7.9c2.5,1.9,1.9,1.3,4.4,3.2l6.2-6.3c2.4,1.2,2.3,1.2,4.7,2.4l-1.4,8.7c3,1,2.2,0.7,5.2,1.7l4-7.9
				c2.6,0.4,2.5,0.4,5.2,0.8l1.3,8.7c3.1,0,2.3,0,5.4,0l1.4-8.7c2.6-0.4,2.5-0.4,5.2-0.8l4,7.9c3-1,2.2-0.7,5.2-1.7l-1.4-8.7
				c2.4-1.2,2.3-1.2,4.7-2.4l6.2,6.3c2.5-1.8,1.9-1.3,4.4-3.2l-4-7.9c1.9-1.9,1.8-1.8,3.7-3.7l7.9,4.1c1.9-2.5,1.3-1.9,3.2-4.4
				l-6.3-6.2c1.2-2.4,1.2-2.3,2.4-4.7l8.7,1.4c1-3,0.7-2.2,1.7-5.2l-3.1-1.6L118.4,59.2z"/>
		</g>
		<path class="st9" d="M59.4,50.3c1.4,13.5,12.9,24.1,26.8,24.1c10.7,0,19.9-6.2,24.2-15.1"/>
	</g>
	<g class="st1">
		<g>
			<g>
				<g>
					<path class="st19" d="M164.3,127.9c3-0.5,6,0.2,8.3,1.8c0.2,0.1,0.4,0.3,0.5,0.4l-7.1,5l-32.7,15.4c0,0-16,0-15.7,0
						C119,150.1,162.8,128.1,164.3,127.9z"/>
					<path class="st19" d="M42.4,185.5L42.4,185.5c0,1.2-0.8,2-2,2c0,0,0,0,0,0l-7,0.2v-14.2l7.1,0c0.6,0,1.1,0.2,1.5,0.6
						c0.4,0.4,0.6,1,0.6,1.5L42.4,185.5z"/>
					<g>
						<g>
							<g>
								<path class="st9" d="M45.6,161.2l20.8-20.8c3.1-3.1,7.5-5,11.9-5l49.7-0.2c0,8.7-7,15.2-15.7,15.2H94c0,0,19.6,0,25.1,0
									h21.5l27-13c7.4-4.3,15.3-2.2,21.1,3.5l-44.8,27.5l-77.4,15h-21"/>
							</g>
						</g>
						<g>
							<g>
								<path class="st9" d="M167.5,137.4l10-6.8c-0.9-1.3-2-2.4-3.2-3.4c-3-2.2-6.8-2.9-10.5-2.3h0c-2.2,0.4-4.3,1-6.3,2
									l-31.3,16.2"/>
							</g>
						</g>
						<path class="st9" d="M45.6,185.5l0.1-31c0-2.8-2.3-5.2-5.2-5.2l-10.1,0v41.3l10,0C43.3,190.7,45.6,188.3,45.6,185.5z"/>
					</g>
					<g>
						<path class="st19" d="M94,146.5L94,146.5l23.4,0c3.6-1,6.3-4,7.2-8h-4.8c-2.1,2-4.7,2-7.5,2H100C96.7,140.5,94,143.1,94,146.5
							z"/>
						<path class="st19" d="M177.5,138.5l-34.8,20.2l-76.6,14.8H48.6l0,7h17.5l76.6-14.8l40.7-24.9
							C181,139.2,180.1,138.5,177.5,138.5z"/>
					</g>
				</g>
			</g>
		</g>
	</g>
	<g class="st1">
		<g>
			<path class="st5" d="M93.6,132.4c4.5-12.3,15.8-21.4,29.4-22.6v22.5l6.1,0v-22.4c15.5,1.4,28,12.9,30.8,28l6.2-3
				c2.1-1.2,4.4-2,6.6-2.4l2.9-1.4c-1-3-0.7-2.2-1.7-5.2l-8.7,1.4c-1.2-2.4-1.2-2.3-2.4-4.7l6.3-6.2c-1.8-2.5-1.3-1.9-3.2-4.4
				l-7.9,4c-1.9-1.9-1.8-1.8-3.7-3.7l4.1-7.9c-2.5-1.9-1.9-1.3-4.4-3.2l-6.2,6.3c-2.4-1.2-2.3-1.2-4.7-2.4l1.4-8.7
				c-3-1-2.2-0.7-5.2-1.7l-4,7.9c-2.6-0.4-2.5-0.4-5.2-0.8l-1.3-8.7c-3.1,0-2.3,0-5.4,0l-1.4,8.7c-2.6,0.4-2.5,0.4-5.2,0.8l-4-7.9
				c-3,1-2.2,0.7-5.2,1.7l1.4,8.7c-2.4,1.2-2.3,1.2-4.7,2.4l-6.2-6.3c-2.5,1.8-1.9,1.3-4.4,3.2l4,7.9c-1.9,1.9-1.8,1.8-3.7,3.7
				l-7.9-4.1c-1.9,2.5-1.3,1.9-3.2,4.4l6.3,6.2c-1.2,2.4-1.2,2.3-2.4,4.7l-8.7-1.4c-1,3-0.7,2.2-1.7,5.2l3.1,1.6L93.6,132.4z"/>
		</g>
		<path class="st9" d="M152.6,141.3c-1.4-13.5-12.9-24.1-26.8-24.1c-10.7,0-19.9,6.2-24.2,15.1"/>
	</g>
	<g class="st1">
		<line class="st9" x1="160.5" y1="177.8" x2="160.5" y2="181.8"/>
	</g>
	
		<ellipse transform="matrix(6.964391e-02 -0.9976 0.9976 6.964391e-02 -70.0602 157.9444)" class="st36" cx="49.6" cy="116.5" rx="11.7" ry="11.7"/>
	<ellipse class="st36" cx="49.6" cy="116.5" rx="6.3" ry="11.7"/>
	<line class="st36" x1="38.2" y1="117" x2="61.2" y2="117"/>
	<path class="st36" d="M166,56.4l2.6-2.9c2.1,0.9,2.1,0.9,4.2,1.7l-0.2,3.9c1,1,1.5,1.5,2.5,2.5l3.9-0.2c0.9,2.1,0.9,2.1,1.7,4.2
		l-2.9,2.6c0,1.4,0,2.1,0,3.5l2.9,2.6c-0.9,2.1-0.9,2.1-1.7,4.2l-3.9-0.2c-1,1-1.5,1.5-2.5,2.5l0.2,3.9c-2.1,0.9-2.1,0.9-4.2,1.7
		l-2.6-2.9c-1.4,0-2.1,0-3.5,0l-2.6,2.9c-2.1-0.9-2.1-0.9-4.2-1.7l0.2-3.9c-1-1-1.5-1.5-2.5-2.5l-3.9,0.2c-0.9-2.1-0.9-2.1-1.7-4.2
		l2.9-2.6c0-1.4,0-2.1,0-3.5l-2.9-2.6c0.9-2.1,0.9-2.1,1.7-4.2l3.9,0.2c1-1,1.5-1.5,2.5-2.5l-0.2-3.9c2.1-0.9,2.1-0.9,4.2-1.7
		l2.6,2.9C163.9,56.4,164.6,56.4,166,56.4z"/>
	<circle class="st36" cx="164.2" cy="70" r="3.6"/>
</g>
<g class="st0">
	<circle class="st25" cx="96" cy="93.4" r="44"/>
	<ellipse transform="matrix(0.2834 -0.959 0.959 0.2834 23.5713 242.5531)" class="st25" cx="174.1" cy="105.5" rx="6.1" ry="6.1"/>
	<ellipse transform="matrix(0.8541 -0.5202 0.5202 0.8541 -30.1175 27.4806)" class="st25" cx="33.9" cy="67.4" rx="4" ry="4"/>
	<g class="st1">
		<path class="st37" d="M57.8,123.6C29.5,117.8,10,105.5,10,91.4"/>
		<path class="st37" d="M182,91.4c0,19.9-38.5,36-86,36c-9.8,0-19.2-0.7-28-1.9"/>
	</g>
	<g class="st1">
		<circle class="st32" cx="139" cy="161.3" r="24.9"/>
		<ellipse class="st9" cx="139" cy="161.3" rx="7.5" ry="24.9"/>
		<line class="st9" x1="113.8" y1="161.2" x2="163.8" y2="161.2"/>
		<ellipse class="st9" cx="139" cy="161.3" rx="17.5" ry="24.9"/>
	</g>
	<circle class="st35" cx="49" cy="45.1" r="5"/>
	<circle class="st35" cx="167" cy="144.4" r="3"/>
	<path class="st35" d="M10,91.4c0-19.9,38.5-36,86-36c9.8,0,19.2,0.7,28,2"/>
	<path class="st35" d="M134,59.1c28.4,5.9,48,18.1,48,32.3"/>
	<path class="st35" d="M128.3,129.4c-5.9,28.4-18.1,48-32.3,48"/>
	<path class="st35" d="M96,5.4c19.9,0,36,38.5,36,86c0,9.8-0.7,19.3-2,28"/>
	<g class="st1">
		<path class="st37" d="M96,177.4c-19.9,0-36-38.5-36-86c0-9.7,0.7-19.1,1.9-27.8"/>
		<path class="st37" d="M63.7,53.2C69.6,24.8,81.8,5.4,96,5.4"/>
	</g>
	
		<ellipse transform="matrix(0.2834 -0.959 0.959 0.2834 -76.7075 227.8172)" class="st17" cx="114.1" cy="165.2" rx="6.1" ry="6.1"/>
	<path class="st26" d="M160,139.4l-28-12l12.2,29.6l4.8-9.7l8.1,8.1l2.8-2.8l-8.2-8.2L160,139.4z"/>
	<path class="st38" d="M150,127.4l-28-12l12.2,29.6l4.8-9.7l8.1,8.1l2.8-2.8l-8.2-8.2L150,127.4z"/>
	<g class="st1">
		<path class="st13" d="M51.8,119.7L51,122l-2.1-0.7c-2.3-0.8-4.3,1.9-2.8,3.9l1.3,1.8l-3.3,2.4l-1.3-1.8c-1.4-2-4.6-1-4.6,1.5
			l0,2.2l-4.1,0l0-2.2c0-2.5-3.2-3.5-4.6-1.5l-1.3,1.8l-3.3-2.4l1.3-1.8c1.5-2-0.5-4.7-2.8-3.9l-2.1,0.7l-1.3-3.9l2.1-0.7
			c2.3-0.8,2.3-4.1,0-4.8l-2.1-0.7l0.7-2.2l-0.1,0.3l0.6-1.9l2.1,0.7c2.3,0.8,4.3-1.9,2.8-3.9l-1.3-1.8l3.3-2.4l1.3,1.8
			c1.4,2,4.6,1,4.6-1.5l0-2.2l4.1,0l0,2.2c0,2.5,3.2,3.5,4.6,1.5l1.3-1.8l3.3,2.4l-1.3,1.8c-1.5,2,0.5,4.7,2.8,3.9l2.1-0.7l1.3,3.9
			l-2.1,0.7c-2.3,0.8-2.3,4.1,0,4.8l2.1,0.7l-0.6,1.9L51.8,119.7z"/>
		<g>
			<path class="st14" d="M29.3,112.8c-1.2,3.7,0.8,7.8,4.6,9c3.7,1.2,7.8-0.8,9-4.6l0,0.1c1.2-3.7-0.8-7.8-4.6-9
				C34.6,107.1,30.5,109.2,29.3,112.8"/>
			<path class="st14" d="M51.8,119.7L51,122l-2.1-0.7c-2.3-0.8-4.3,1.9-2.8,3.9l1.3,1.8l-3.3,2.4l-1.3-1.8c-1.4-2-4.6-1-4.6,1.5
				l0,2.2l-4.1,0l0-2.2c0-2.5-3.2-3.5-4.6-1.5l-1.3,1.8l-3.3-2.4l1.3-1.8c1.5-2-0.5-4.7-2.8-3.9l-2.1,0.7l-1.3-3.9l2.1-0.7
				c2.3-0.8,2.3-4.1,0-4.8l-2.1-0.7l0.7-2.2l-0.1,0.3l0.6-1.9l2.1,0.7c2.3,0.8,4.3-1.9,2.8-3.9l-1.3-1.8l3.3-2.4l1.3,1.8
				c1.4,2,4.6,1,4.6-1.5l0-2.2l4.1,0l0,2.2c0,2.5,3.2,3.5,4.6,1.5l1.3-1.8l3.3,2.4l-1.3,1.8c-1.5,2,0.5,4.7,2.8,3.9l2.1-0.7l1.3,3.9
				l-2.1,0.7c-2.3,0.8-2.3,4.1,0,4.8l2.1,0.7l-0.6,1.9L51.8,119.7z"/>
		</g>
	</g>
	<g class="st1">
		<g>
			<line class="st9" x1="185" y1="37.5" x2="185" y2="41.5"/>
			<line class="st9" x1="185" y1="47.5" x2="185" y2="51.5"/>
		</g>
		<g>
			<line class="st9" x1="192" y1="44.5" x2="188" y2="44.5"/>
			<line class="st9" x1="182" y1="44.5" x2="178" y2="44.5"/>
		</g>
	</g>
	<g class="st1">
		<g>
			<line class="st9" x1="7" y1="125.5" x2="7" y2="129.5"/>
			<line class="st9" x1="7" y1="135.5" x2="7" y2="139.5"/>
		</g>
		<g>
			<line class="st9" x1="14" y1="132.5" x2="10" y2="132.5"/>
			<line class="st9" x1="4" y1="132.5" x2="0" y2="132.5"/>
		</g>
	</g>
	<g class="st1">
		<g>
			<line class="st9" x1="175" y1="161.5" x2="175" y2="165.5"/>
			<line class="st9" x1="175" y1="171.5" x2="175" y2="175.5"/>
		</g>
		<g>
			<line class="st9" x1="182" y1="168.5" x2="178" y2="168.5"/>
			<line class="st9" x1="172" y1="168.5" x2="168" y2="168.5"/>
		</g>
	</g>
	<g class="st1">
		<path class="st39" d="M88.7,93.5l0,16.2l1.1,0l0,0.1l6.4,0l0-16.3l16.3,0l0-7.4H96.1l0-16.3l-7.4,0l0,16.3l-16.3,0l0,6.4l0.1,0
			l0,1.1L88.7,93.5z"/>
	</g>
</g>
<g class="st0">
	<g class="st1">
		<circle class="st40" cx="132.7" cy="98.9" r="6"/>
		<path class="st3" d="M159.2,38.6l0.9,0.3v100.9c5,0,9.9,4.3,9.9,9.9c0,5.6-4.8,9.9-10.4,9.9H154v-121H159.2z"/>
		<path class="st3" d="M22.7,38.6L22,38.9v100.9c-5,0-10,4.3-10,9.9c0,5.6,4.7,9.9,10.3,9.9H28v-121H22.7z"/>
		<path class="st7" d="M160,22.9c5,0,10,5.2,10,10.8v116.9c0-5.3-5-10.3-10-10.8V22.9z"/>
		<path class="st7" d="M23,22.9c-6,0-11,4.5-11,10.2v116.9c0-5.3,5-9.6,11-10.1V22.9z"/>
		<g>
			<g>
				<path class="st9" d="M12,149.9c0-5.6,5-10.2,10-10.2V22.9c-6-0.6-10,4.2-10,10.1L12,149.9c0,5.6,4.7,9.7,10.3,9.7h137.2
					c5.6,0,10.5-4.1,10.5-9.7V33.5c0-5.4-5-10.2-10-10.7v116.9c5,0,9.9,4.6,9.9,10.2"/>
				<line class="st11" x1="159" y1="38.6" x2="23" y2="38.6"/>
			</g>
		</g>
		<g>
			<rect x="34" y="119.6" class="st21" width="36" height="52"/>
			<rect x="38" y="139.6" class="st21" width="4" height="4"/>
			<rect x="38" y="147.6" class="st21" width="4" height="4"/>
			<rect x="38" y="155.6" class="st21" width="4" height="4"/>
			<rect x="38" y="163.6" class="st21" width="4" height="4"/>
			<rect x="46" y="139.6" class="st21" width="4" height="4"/>
			<rect x="46" y="147.6" class="st21" width="4" height="4"/>
			<rect x="46" y="155.6" class="st21" width="4" height="4"/>
			<rect x="46" y="163.6" class="st21" width="4" height="4"/>
			<rect x="54" y="139.6" class="st21" width="4" height="4"/>
			<rect x="54" y="147.6" class="st21" width="4" height="4"/>
			<rect x="54" y="155.6" class="st21" width="4" height="4"/>
			<rect x="54" y="163.6" class="st21" width="4" height="4"/>
			<rect x="62" y="139.6" class="st21" width="4" height="4"/>
			<rect x="62" y="147.6" class="st21" width="4" height="4"/>
			<polygon class="st21" points="62,155.6 62,159.6 62,167.6 66,167.6 66,159.6 66,155.6 			"/>
			<line class="st21" x1="34" y1="135.6" x2="70" y2="135.6"/>
			<rect x="38" y="123.6" class="st21" width="28" height="8"/>
			<line class="st41" x1="63" y1="127.6" x2="40" y2="127.6"/>
		</g>
		
			<rect x="100.4" y="60.9" transform="matrix(0.7071 -0.7071 0.7071 0.7071 -16.1896 94.9728)" class="st42" width="12.2" height="12.2"/>
		
			<rect x="100.6" y="92.8" transform="matrix(0.7071 -0.7071 0.7071 0.7071 -38.7093 104.4388)" class="st42" width="12.2" height="12.2"/>
		
			<rect x="100.6" y="124.7" transform="matrix(0.7071 -0.7071 0.7071 0.7071 -61.2778 113.787)" class="st42" width="12.2" height="12.2"/>
		<rect x="45" y="91.6" class="st42" width="14" height="14"/>
		<rect x="73" y="91.6" class="st9" width="14" height="14"/>
		<line class="st12" x1="63" y1="98.6" x2="69" y2="98.6"/>
		<polyline class="st9" points="81,110.6 81,150.6 107,150.6 107,142.6 		"/>
		<polyline class="st9" points="133,86.6 133,46.6 107,46.6 107,54.6 		"/>
		<line class="st9" x1="107" y1="118.6" x2="107" y2="110.6"/>
		<line class="st9" x1="107" y1="86.6" x2="107" y2="78.6"/>
		<path class="st42" d="M118.7,66.9"/>
		<line class="st9" x1="119" y1="98.6" x2="124" y2="98.6"/>
	</g>
	<g class="st1">
		<g>
			<line class="st9" x1="15" y1="165.6" x2="15" y2="169.6"/>
			<line class="st9" x1="15" y1="175.6" x2="15" y2="179.6"/>
		</g>
		<g>
			<line class="st9" x1="22" y1="172.6" x2="18" y2="172.6"/>
			<line class="st9" x1="12" y1="172.6" x2="8" y2="172.6"/>
		</g>
	</g>
	<circle class="st17" cx="35" cy="16.6" r="3"/>
	<circle class="st17" cx="82" cy="165.6" r="2"/>
	<g class="st1">
		<g>
			<polygon class="st11" points="137.4,147.3 104.7,179.9 94,190.6 109.2,190.6 137.4,190.6 148,190.6 148,179.9 148,151.7 
				148,136.6 			"/>
			<polygon class="st11" points="137,179.6 119.6,179.6 137,162.4 			"/>
		</g>
	</g>
	<circle class="st18" cx="144" cy="45.6" r="2"/>
	<g class="st1">
		<g>
			<path class="st14" d="M82,0.6c-8.8,0-16,7.2-16,16s7.2,16,16,16c8.8,0,16-7.2,16-16S90.9,0.6,82,0.6z M82,26.6
				c-5.5,0-10-4.5-10-10s4.5-10,10-10c5.5,0,10,4.5,10,10S87.6,26.6,82,26.6z"/>
			<path class="st14" d="M82,20.6c-2.2,0-4-1.8-4-4s1.8-4,4-4c2.2,0,4,1.8,4,4S84.2,20.6,82,20.6z"/>
			<circle class="st42" cx="82" cy="16.6" r="4"/>
		</g>
		<g>
			<line class="st14" x1="55" y1="16.6" x2="82" y2="16.6"/>
			<polygon class="st14" points="46,20.6 50,16.6 46,12.6 52,12.6 56,16.6 52,20.6 			"/>
		</g>
	</g>
	<g class="st1">
		<g>
			<g>
				<path class="st14" d="M174.4,10.6H109c-2.2,0-4,1.8-4,4v0c0,2.2,1.8,4,4,4h65.4l8.7-4L174.4,10.6z"/>
			</g>
			<line class="st14" x1="116" y1="18.6" x2="116" y2="10.6"/>
		</g>
		<line class="st14" x1="174" y1="14.6" x2="116" y2="14.6"/>
	</g>
</g>
<g>
	<g>
		<polygon class="st5" points="118.2,139.6 118.2,137.6 116.2,137.6 114.2,137.6 112.2,137.6 112.2,139.6 110.2,139.6 110.2,137.6 
			108.2,137.6 106.2,137.6 104.2,137.6 104.2,139.6 104.2,139.6 102.2,139.6 102.2,141.6 102.2,143.6 102.2,145.6 104.2,145.6 
			104.2,147.6 106.2,147.6 106.2,149.6 108.2,149.6 108.2,151.6 110.2,151.6 110.2,153.6 112.2,153.6 112.2,151.6 114.2,151.6 
			114.2,149.6 116.2,149.6 116.2,147.6 118.2,147.6 118.2,145.6 120.2,145.6 120.2,143.6 120.2,141.6 120.2,139.6 		"/>
		<polygon class="st5" points="87.1,34.2 87.1,32.2 85.1,32.2 83.1,32.2 81.1,32.2 81.1,34.2 79.1,34.2 79.1,32.2 77.1,32.2 
			75.1,32.2 73.1,32.2 73.1,34.2 73.1,34.2 71.1,34.2 71.1,36.2 71.1,38.2 71.1,40.2 73.1,40.2 73.1,42.2 75.1,42.2 75.1,44.2 
			77.1,44.2 77.1,46.2 79.1,46.2 79.1,48.2 81.1,48.2 81.1,46.2 83.1,46.2 83.1,44.2 85.1,44.2 85.1,42.2 87.1,42.2 87.1,40.2 
			89.1,40.2 89.1,38.2 89.1,36.2 89.1,34.2 		"/>
		<g>
			<rect x="164" y="52.2" class="st5" width="2" height="2"/>
			<rect x="164" y="54.2" class="st5" width="2" height="2"/>
			<rect x="164" y="56.2" class="st5" width="2" height="2"/>
			
				<rect x="170" y="50.2" transform="matrix(-4.120007e-06 1 -1 -4.120007e-06 222.1812 -119.8703)" class="st5" width="2" height="2"/>
			
				<rect x="168" y="50.2" transform="matrix(-4.120008e-06 1 -1 -4.120008e-06 220.1811 -117.8704)" class="st5" width="2" height="2"/>
			
				<rect x="166" y="50.2" transform="matrix(-4.120007e-06 1 -1 -4.120007e-06 218.181 -115.8704)" class="st5" width="2" height="2"/>
			
				<rect x="172" y="52.2" transform="matrix(-4.120007e-06 1 -1 -4.120007e-06 226.181 -119.8704)" class="st5" width="2" height="2"/>
			
				<rect x="178" y="50.2" transform="matrix(-4.120003e-06 1 -1 -4.120003e-06 230.1812 -127.8703)" class="st5" width="2" height="2"/>
			
				<rect x="176" y="50.2" transform="matrix(-4.120003e-06 1 -1 -4.120003e-06 228.1812 -125.8704)" class="st5" width="2" height="2"/>
			
				<rect x="174" y="50.2" transform="matrix(-4.120003e-06 1 -1 -4.120003e-06 226.1811 -123.8705)" class="st5" width="2" height="2"/>
			<rect x="180" y="52.2" class="st5" width="2" height="2"/>
			<rect x="180" y="54.2" class="st5" width="2" height="2"/>
			<rect x="180" y="56.2" class="st5" width="2" height="2"/>
			<rect x="166" y="58.2" class="st5" width="2" height="2"/>
			<rect x="168" y="60.2" class="st5" width="2" height="2"/>
			<rect x="170" y="62.2" class="st5" width="2" height="2"/>
			<rect x="172" y="64.2" class="st5" width="2" height="2"/>
			<rect x="174" y="62.2" class="st5" width="2" height="2"/>
			<rect x="176" y="60.2" class="st5" width="2" height="2"/>
			<rect x="178" y="58.2" class="st5" width="2" height="2"/>
		</g>
		<g>
			<polygon class="st6" points="59,79.2 50,79.2 50,70.2 48,70.2 48,79.2 39,79.2 39,81.2 48,81.2 48,90.2 50,90.2 50,81.2 59,81.2 
							"/>
			<g>
				<path class="st5" d="M151,77.5h-5.6v-5.6c0-1.2-1-2.2-2.2-2.2s-2.2,1-2.2,2.2v5.6h-5.6c-1.2,0-2.2,1-2.2,2.2s1,2.2,2.2,2.2h5.6
					v5.6c0,1.2,1,2.2,2.2,2.2s2.2-1,2.2-2.2v-5.6h5.6c1.2,0,2.2-1,2.2-2.2S152.2,77.5,151,77.5z"/>
				<path class="st6" d="M72.1,108.4c-2.6,0-4.7,2.1-4.7,4.7s2.1,4.7,4.7,4.7c2.6,0,4.7-2.1,4.7-4.7S74.7,108.4,72.1,108.4z"/>
				<path class="st3" d="M51.6,108.3c-0.9,0.1-1.8,0.1-2.7,0.1c-9.3,0-17.5-4.4-22.8-11.2v49.4c0,8.4,6.8,15.2,15.2,15.2
					c7.4,0,13.7-5.3,14.9-12.5l1.4-20.9c-4-3.8-6.5-9.2-6.5-15.2C51,111.5,51.2,109.9,51.6,108.3z"/>
				<path class="st3" d="M72.1,98.1c-0.4,0-0.8,0-1.2,0.1c-3.3,3.9-7.6,6.9-12.4,8.6c-0.9,2-1.4,4.2-1.4,6.4
					c0,8.3,6.8,15.1,15.1,15.1s15.1-6.8,15.1-15.1S80.4,98.1,72.1,98.1z M72.1,123.9c-5.9,0-10.7-4.8-10.7-10.7s4.8-10.7,10.7-10.7
					s10.7,4.8,10.7,10.7S78,123.9,72.1,123.9z"/>
				<path class="st3" d="M143.3,108.4c-1,0-1.9,0-2.8-0.1c0.4,1.6,0.6,3.2,0.6,4.9c0,6-2.5,11.3-6.5,15.2l1.3,20.9
					c1.3,7.3,7.5,12.5,14.9,12.5c8.4,0,15.2-6.8,15.2-15.2V97.3C160.7,104.1,152.5,108.4,143.3,108.4z"/>
				<path class="st3" d="M133.7,106.9L133.7,106.9c-4.9-1.8-9.1-4.8-12.4-8.7c-0.4,0-0.9-0.1-1.3-0.1c-8.3,0-15.1,6.8-15.1,15.1
					s6.8,15.1,15.1,15.1s15.1-6.8,15.1-15.1C135.1,111,134.6,108.8,133.7,106.9z M120,123.9c-5.9,0-10.7-4.8-10.7-10.7
					s4.8-10.7,10.7-10.7s10.7,4.8,10.7,10.7S125.9,123.9,120,123.9z"/>
				<path class="st3" d="M117.4,92.3c-1.9-3.8-2.9-8.1-2.9-12.7c0-4.5,1-8.7,2.8-12.5H74.8c1.8,3.8,2.8,8,2.8,12.5
					c0,4.5-1.1,8.8-2.9,12.7c8.5,1.1,15.4,7.2,17.7,15.3h7.3C101.9,99.5,108.9,93.3,117.4,92.3z M96,86.2c0,2.8-2.2,5-5,5h-6
					c-2.8,0-5-2.2-5-5s2.2-5,5-5h6C93.8,81.2,96,83.4,96,86.2c0-2.8,2.2-5,5-5h6c2.8,0,5,2.2,5,5s-2.2,5-5,5h-6
					C98.3,91.2,96,88.9,96,86.2z"/>
				<path class="st6" d="M120,108.4c-2.6,0-4.7,2.1-4.7,4.7s2.1,4.7,4.7,4.7c2.6,0,4.7-2.1,4.7-4.7S122.6,108.4,120,108.4z"/>
			</g>
			<g>
				<path class="st14" d="M23,79.6v67c0,10,8.1,18.2,18.2,18.2c8.9,0,16.5-6.4,17.9-15.2l1.5-22.7"/>
				<line class="st14" x1="122.6" y1="64.2" x2="69.4" y2="64.2"/>
				<path class="st14" d="M131.5,127.2l1.4,22.5c1.5,8.8,9,15.2,17.9,15.2c10,0,18.2-8.1,18.2-18.2V79.4"/>
				<polyline class="st14" points="89.9,110.6 102.2,110.6 102.4,110.6 				"/>
				<path class="st14" d="M33.8,59"/>
				<path class="st14" d="M56.6,103.9c-1.6,2.7-2.6,5.9-2.6,9.3c0,10,8.1,18.1,18.1,18.1s18.1-8.1,18.1-18.1S82,95.1,72.1,95.1
					c-0.9,0-1.7,0.1-2.6,0.2"/>
				<path class="st14" d="M122.6,95.3c-0.9-0.1-1.8-0.2-2.7-0.2c-10,0-18.1,8.1-18.1,18.1s8.1,18.1,18.1,18.1s18.1-8.1,18.1-18.1
					c0-2.8-0.6-5.4-1.7-7.7l-0.7-1.2"/>
				<g>
					<g>
						<circle class="st14" cx="72.1" cy="113.2" r="7.7"/>
					</g>
					<g>
						<circle class="st14" cx="120" cy="113.2" r="7.7"/>
					</g>
				</g>
				<g>
					<path class="st14" d="M138.1,74.5v-2.6c0-2.9,2.3-5.2,5.2-5.2h0c2.9,0,5.2,2.3,5.2,5.2v2.6h2.6c2.9,0,5.2,2.3,5.2,5.2v0
						c0,2.9-2.3,5.2-5.2,5.2h-2.6v2.6c0,2.9-2.3,5.2-5.2,5.2h0c-2.9,0-5.2-2.3-5.2-5.2v-2.6h-2.6c-2.9,0-5.2-2.3-5.2-5.2v0
						c0-2.9,2.3-5.2,5.2-5.2H138.1z"/>
					<polygon class="st14" points="138.1,74.5 138.1,74.5 138.1,74.5 138.1,74.5 					"/>
				</g>
				<polygon class="st9" points="61.9,76.2 52.9,76.2 52.9,67.2 44.9,67.2 44.9,76.2 35.9,76.2 35.9,84.2 44.9,84.2 44.9,93.2 
					52.9,93.2 52.9,84.2 61.9,84.2 				"/>
				<line class="st9" x1="49" y1="70.2" x2="49" y2="72.2"/>
				<line class="st9" x1="49" y1="88.2" x2="49" y2="90.2"/>
				<line class="st9" x1="40" y1="79.2" x2="40" y2="81.2"/>
				<line class="st9" x1="58" y1="79.2" x2="58" y2="81.2"/>
				<path class="st9" d="M49,82.2L49,82.2c-1.1,0-2-0.9-2-2l0,0c0-1.1,0.9-2,2-2h0c1.1,0,2,0.9,2,2l0,0C51,81.3,50.1,82.2,49,82.2z"
					/>
				<path class="st14" d="M127.8,59V47.2c0-2.9,2.3-5.2,5.2-5.2h20.6c2.9,0,5.2,2.3,5.2,5.2V59"/>
				<circle class="st14" cx="143.3" cy="79.6" r="25.8"/>
				<rect x="132.3" y="46.2" class="st14" width="22" height="4"/>
				<path class="st14" d="M33.3,59V47.2c0-2.9,2.3-5.2,5.2-5.2h20.6c2.9,0,5.2,2.3,5.2,5.2V59"/>
				<circle class="st14" cx="48.8" cy="79.6" r="25.8"/>
				<rect x="37.8" y="46.2" class="st14" width="22" height="4"/>
				<path class="st14" d="M91,88.2h-6c-1.1,0-2-0.9-2-2v0c0-1.1,0.9-2,2-2h6c1.1,0,2,0.9,2,2v0C93,87.3,92.1,88.2,91,88.2z"/>
				<path class="st14" d="M107,88.2h-6c-1.1,0-2-0.9-2-2v0c0-1.1,0.9-2,2-2h6c1.1,0,2,0.9,2,2v0C109,87.3,108.1,88.2,107,88.2z"/>
			</g>
		</g>
		<g>
			<line class="st9" x1="7" y1="76.2" x2="7" y2="80.2"/>
			<line class="st9" x1="7" y1="86.2" x2="7" y2="90.2"/>
		</g>
		<g>
			<line class="st9" x1="14" y1="83.2" x2="10" y2="83.2"/>
			<line class="st9" x1="4" y1="83.2" x2="0" y2="83.2"/>
		</g>
		<g>
			<line class="st9" x1="185" y1="128.3" x2="185" y2="132.3"/>
			<line class="st9" x1="185" y1="138.3" x2="185" y2="142.3"/>
		</g>
		<g>
			<line class="st9" x1="192" y1="135.3" x2="188" y2="135.3"/>
			<line class="st9" x1="182" y1="135.3" x2="178" y2="135.3"/>
		</g>
		<circle class="st5" cx="86" cy="154.2" r="2"/>
		<circle class="st5" cx="116" cy="50.2" r="2"/>
		<circle class="st5" cx="179" cy="107.2" r="1"/>
		<circle class="st7" cx="69" cy="139.2" r="3"/>
		<circle class="st7" cx="9" cy="103.2" r="2"/>
		<circle class="st7" cx="186" cy="114.2" r="2"/>
	</g>
	<g>
		<g>
			<circle class="st6" cx="154" cy="125.8" r="1"/>
			<circle class="st19" cx="39" cy="28.8" r="2"/>
			<circle class="st19" cx="133" cy="130.8" r="2"/>
		</g>
	</g>
	<g>
		<circle class="st7" cx="70" cy="166.8" r="4"/>
		<path class="st7" d="M70,158.8c-4.4,0-8,3.6-8,8s3.6,8,8,8s8-3.6,8-8S74.4,158.8,70,158.8z M70,172.8c-3.3,0-6-2.7-6-6s2.7-6,6-6
			s6,2.7,6,6S73.3,172.8,70,172.8z"/>
	</g>
	<g>
		<circle class="st7" cx="148" cy="24.8" r="4"/>
		<path class="st7" d="M148,16.8c-4.4,0-8,3.6-8,8s3.6,8,8,8s8-3.6,8-8S152.4,16.8,148,16.8z M148,30.8c-3.3,0-6-2.7-6-6s2.7-6,6-6
			s6,2.7,6,6S151.3,30.8,148,30.8z"/>
	</g>
	<g>
		<circle class="st7" cx="16" cy="48.8" r="4"/>
		<path class="st7" d="M16,40.8c-4.4,0-8,3.6-8,8s3.6,8,8,8s8-3.6,8-8S20.4,40.8,16,40.8z M16,54.8c-3.3,0-6-2.7-6-6s2.7-6,6-6
			s6,2.7,6,6S19.3,54.8,16,54.8z"/>
	</g>
</g>
</svg>
