<?xml version="1.0" encoding="utf-8"?>
<!-- Generator: Adobe Illustrator 24.1.2, SVG Export Plug-In . SVG Version: 6.00 Build 0)  -->
<svg version="1.1" id="Layer_1" xmlns="http://www.w3.org/2000/svg" xmlns:xlink="http://www.w3.org/1999/xlink" x="0px" y="0px"
	 viewBox="0 0 192 191.6" style="enable-background:new 0 0 192 191.6;" xml:space="preserve">
<style type="text/css">
	.st0{display:none;}
	.st1{display:inline;}
	.st2{fill:none;}
	.st3{fill:#DFE0E0;}
	.st4{fill:#48515A;}
	.st5{fill:#F58E70;}
	.st6{fill:#5FE0ED;}
	.st7{fill:#FFD15D;}
	.st8{fill:#475059;}
	.st9{fill:none;stroke:#48515A;stroke-width:2;stroke-miterlimit:10;}
	.st10{fill:none;stroke:#48515A;stroke-width:2;stroke-linecap:round;stroke-miterlimit:10;}
	.st11{fill:none;stroke:#48515A;stroke-width:2;stroke-linecap:round;stroke-linejoin:round;stroke-miterlimit:10;}
	.st12{fill:none;stroke:#48515A;stroke-width:2;stroke-linejoin:round;stroke-miterlimit:10;}
	.st13{fill:#FFFFFF;}
	.st14{fill:none;stroke:#475059;stroke-width:2;stroke-miterlimit:10;}
	.st15{fill:none;stroke:#F58E70;stroke-width:3;stroke-miterlimit:10;}
	
		.st16{fill:none;stroke:#48515A;stroke-width:2;stroke-linecap:round;stroke-linejoin:round;stroke-miterlimit:10;stroke-dasharray:0,4;}
	.st17{display:inline;fill:#FFD15D;}
	.st18{display:inline;fill:#F58E70;}
	.st19{fill:#DEDEDD;}
	.st20{fill:#DEDEDD;stroke:#DEDEDD;stroke-width:2;stroke-miterlimit:10;}
	.st21{fill:#FFFFFF;stroke:#475059;stroke-width:2;stroke-miterlimit:10;}
	.st22{fill:none;stroke:#48515A;stroke-width:2;stroke-linecap:square;stroke-miterlimit:10;}
	.st23{fill:#FFFFFF;stroke:#48515A;stroke-width:2;stroke-linecap:round;stroke-miterlimit:10;}
	.st24{display:inline;fill:none;stroke:#48515A;stroke-width:2;stroke-linejoin:round;stroke-miterlimit:10;}
	.st25{display:inline;fill:#5FE0ED;}
	.st26{display:inline;fill:#DEDEDD;}
	.st27{display:inline;fill:none;stroke:#475059;stroke-width:2;stroke-miterlimit:10;}
	.st28{display:inline;fill:#FFFFFF;stroke:#475059;stroke-width:2;stroke-miterlimit:10;}
	.st29{display:inline;fill:none;stroke:#48515A;stroke-width:2;stroke-linecap:round;stroke-linejoin:round;stroke-miterlimit:10;}
	.st30{fill:none;stroke:#475059;stroke-width:2;stroke-linecap:round;stroke-miterlimit:10;}
	.st31{fill:none;stroke:#475059;stroke-width:2;stroke-linecap:square;stroke-miterlimit:10;}
	.st32{fill:#FFFFFF;stroke:#48515A;stroke-width:2;stroke-miterlimit:10;}
	.st33{fill:#FFFFFF;stroke:#48515A;stroke-width:2;stroke-linecap:round;stroke-miterlimit:10;stroke-dasharray:0,4;}
</style>
<desc>
	Color line, employee, salary illustration, icon, background and graphics. The illustration is colorful, flat, vector, pixel perfect, suitable for web and print. Linear stokes and fills.
	</desc>
<g class="st0">
	<g class="st1">
		<g>
			<g>
				<g>
					<g>
						<g>
							<g>
								<g>
									<path class="st2" d="M44.9,87.3L44.9,87.3C44.9,87.4,45,87.4,44.9,87.3C45,87.4,45,87.4,44.9,87.3
										C45,87.3,45,87.3,44.9,87.3L44.9,87.3z"/>
								</g>
							</g>
							<g>
								<path class="st3" d="M23,87.4v3.2l10.9,6.3l11-6.1v-5.9v-5c0-0.4,0.8-0.9,1.2-1.3c-0.1,0.1-0.3,0.2-0.4,0.4
									c-1.6,1.7-3.9,3.6-5.5,4.9c-1.3,1.1-2.9,1.8-4.5,1.8h-1.9H32h-1.1c-1.7,0-3.3-0.7-4.5-1.8c-1.5-1.3-3.7-3-5.3-4.6
									c0,0-0.1-0.1-0.2-0.2c0.5,0.5,1.2,1,1.8,1.5h0.2V86v1.4H23L23,87.4z"/>
							</g>
							<g>
								<g>
									<rect x="22" y="80.6" class="st4" width="2" height="10"/>
								</g>
								<g>
									<path class="st4" d="M45,91.6c-0.6,0-1-0.4-1-1V79.5l0.3-0.3c0.9-1,1.8-2,2.1-2.7l4.5-9.4l5.1-2.5l1.1-5.6
										c0-0.4-0.2-0.7-0.4-0.9c-0.3-0.3-0.6-0.4-1-0.4h-2.2l0.2-1.2c0.3-1.7,0.3-4,0.3-5.8V49l0.1-0.2c0-2.9-0.6-5.6-1.7-7.9
										L52,39.7c-1.4-2.6-3.2-4.9-5.5-6.7c-3.7-2.9-8-4.4-12.6-4.4h-0.1c-5.3,0-10.4,2.1-14.3,6c-4.1,4-6.4,9.6-6.4,15.3V51
										c0,1.8,0,3.9,0.3,5.6l0.2,1.2h-2.1c-0.8,0-1.4,0.5-1.5,1.3l1.6,5.6l4.4,2.6l4.4,9.4c0.6,1.6,3.3,3.8,5.3,5.4
										c0.5,0.4,1,0.8,1.4,1.2c1.2,1,2.6,1.6,3.9,1.6h5c0.6,0,1,0.4,1,1s-0.4,1-1,1h-5.1c-1.8,0-3.6-0.7-5.2-2.1
										c-0.4-0.4-0.9-0.7-1.4-1.1c-2.4-2-5.1-4.2-5.9-6.2l-4.1-8.7l-4.6-2.7l-1.9-6.8c0-1.8,1.4-3.3,3.2-3.4c0-1.8,0-3.6,0-5.1v-1
										c0-6.2,2.5-12.3,7-16.7c4.3-4.2,9.8-6.6,15.7-6.6c0.1,0,0.1,0,0.2,0c5.1,0,9.9,1.7,13.9,4.9c2.6,2.1,4.8,4.7,6.3,7.8
										c0.1,0.2,0.2,0.4,0.3,0.6l0.7,1.6H55c0.9,2.3,1.3,4.9,1.3,7.7v0.4L56,49.7v1c0,1.5,0,3.3-0.2,5c0.9,0,1.7,0.4,2.3,1
										s1,1.5,0.9,2.4v0.2l-1.3,6.6l-5.3,2.6l-4.2,8.7c-0.4,0.9-1.2,2-2.2,3v10.4C46,91.2,45.6,91.6,45,91.6z"/>
								</g>
							</g>
							<g>
								<polygon class="st4" points="1.2,100.7 0.6,98.8 14.7,94.1 18.8,86.6 22,86.6 22,88.6 20,88.6 16.1,95.7 								"/>
							</g>
							<g>
								<path class="st4" d="M33.9,98.1L22,91.5c-0.5-0.3-0.7-0.9-0.4-1.4c0.3-0.5,0.9-0.7,1.4-0.4l10.9,6.1L44.3,90
									c0.5-0.3,1.1-0.1,1.4,0.4c0.3,0.5,0.1,1.1-0.4,1.4L33.9,98.1z"/>
							</g>
							<g>
								<polygon class="st4" points="57.1,97.7 51.6,95.8 47.2,88.6 45,88.6 45,86.6 48.3,86.6 53,94.1 57.8,95.8 								"/>
							</g>
							<g>
								<path class="st4" d="M27.2,106.8c-0.2,0-0.5-0.1-0.7-0.3c-0.4-0.4-0.4-1-0.1-1.4l7.4-8.2l4.8,5.5c0.4,0.4,0.3,1-0.1,1.4
									c-0.4,0.4-1,0.3-1.4-0.1l-3.3-3.8l-5.9,6.6C27.8,106.7,27.5,106.8,27.2,106.8z"/>
							</g>
							<g>
								<path class="st3" d="M33.9,98.4"/>
							</g>
						</g>
					</g>
				</g>
				<g>
					<g>
						<g>
							<g>
								<g>
									<path class="st5" d="M103.9,139.6c0,0-2.7-24.4-4-29.7l0,0l0,0c1.1,0,2-0.9,2-2v-5l-5.1-6l-4.9,6v5c0,1.1,0.9,2,2,2l0,0
										l0,0c-1.3,5.3-4,29.7-4,29.7H103.9z"/>
								</g>
							</g>
							<g>
								<g>
									<path class="st2" d="M111.8,81.8L111.8,81.8c0.1,0.1,0.1,0.1,0.2,0.1l0,0l0,0C111.9,81.8,111.9,81.8,111.8,81.8z"/>
								</g>
							</g>
							<g>
								<path class="st3" d="M82,81.9v4.4l14.9,8.5l15-8.2l0.1-8v-6.7c0-0.6,1.1-1.2,1.6-1.8c-0.2,0.2-0.4,0.3-0.5,0.5
									c-2.1,2.3-5.3,4.8-7.5,6.7c-1.7,1.5-3.9,2.5-6.1,2.5H97h-2.5H93c-2.2,0-4.4-1-6.1-2.5c-2.1-1.8-5.1-4.1-7.2-6.3
									c-0.1-0.1-0.1-0.2-0.2-0.2c0.6,0.7,1.6,1.3,2.3,2H82V80L82,81.9L82,81.9L82,81.9z"/>
							</g>
							<g>
								<g>
									<rect x="81" y="72.6" class="st4" width="2" height="14"/>
								</g>
								<g>
									<path class="st4" d="M112,86.6c-0.6,0-1-0.4-1-1V71.4l0.2-0.3c0.4-0.6,0.9-1.2,1.4-1.7c0.7-0.8,1.4-1.6,1.6-2.2l6-12.7
										l6.9-3.5l1.6-7.9c0-0.6-0.3-1.3-0.8-1.8c-0.4-0.4-1-0.7-1.5-0.7h-2.6l0.3-1.5c0.5-2.9,0.9-5.2,0.9-7.6l-0.1-1.4
										c0-3.8-0.9-7.8-2.5-11.4c-0.2-0.3-0.3-0.7-0.5-1c-1.9-3.8-4.6-7.1-7.9-9.7c-5-3.9-11-6-17.4-6.1c-7.4,0-14.5,2.9-19.9,8.3
										C71.2,15.8,68,23.4,68,31.1v0.5c0,2.3,0.2,4.6,0.7,7.9l0.2,1.1h-2.4c-1.2,0-2.3,1.2-2.4,2.5l2.2,8.1l6,3.5l5.9,12.6
										c0.8,2.2,4.6,5.3,7.3,7.5c0.7,0.6,1.3,1.1,1.9,1.6c1.7,1.5,3.6,2.3,5.5,2.3H99c0.6,0,1,0.4,1,1s-0.4,1-1,1h-6.1
										c-2.3,0-4.7-1-6.8-2.7c-0.6-0.5-1.2-1-1.8-1.5c-3.2-2.6-6.9-5.6-7.8-8.3l-5.6-12l-6.2-3.6l-2.5-9.3c0-2.5,2-4.6,4.4-4.6
										h0.1c-0.4-2.8-0.6-4.9-0.6-7.1v-0.5c0-8.2,3.4-16.3,9.3-22.2c5.7-5.8,13.3-9,21.2-8.9c6.8,0,13.3,2.3,18.6,6.5
										c3.5,2.8,6.5,6.4,8.5,10.4c0.2,0.4,0.3,0.7,0.5,1.1c1.8,3.8,2.7,8,2.7,12.1l0.1,0.4v1.1c0,2.4-0.3,4.6-0.8,7.1h0.2
										c1.1,0,2.1,0.5,2.9,1.3c0.9,0.9,1.3,2.1,1.3,3.3v0.2l-1.8,9l-7.2,3.6L116,68c-0.3,0.9-1.1,1.8-1.9,2.8
										c-0.4,0.4-0.8,0.9-1.1,1.3v13.6C113,86.2,112.6,86.6,112,86.6z"/>
								</g>
							</g>
							<g>
								<path class="st4" d="M32.9,139.4h-2l0.1-27.9c0-6,3.8-7.9,9.1-9.9L71.2,91l5.5-10.3H81v2h-3.1l-5.3,9.9l-31.9,10.9
									c-5.3,2-7.8,3.5-7.8,8L32.9,139.4z"/>
							</g>
							<g>
								<path class="st4" d="M96.9,96L81,87.1c-0.5-0.3-0.7-0.9-0.4-1.4c0.3-0.5,0.9-0.7,1.4-0.4l14.9,8.3l14.3-8
									c0.5-0.3,1.1-0.1,1.4,0.4s0.1,1.1-0.4,1.4L96.9,96z"/>
							</g>
							<g>
								<path class="st4" d="M163,139.4h-2v-27.8c0-4.5-2.3-6-8-8.1l-31.9-10.9l-6.1-10h-3v-2h4.2l6.3,10.4l31.2,10.6
									c5.3,1.9,9.3,3.9,9.3,10V139.4z"/>
							</g>
							<g>
								<path class="st4" d="M105.9,107.9c-0.3,0-0.5-0.1-0.7-0.3l-8.3-9.2l-8.3,9.2c-0.4,0.4-1,0.4-1.4,0.1c-0.4-0.4-0.4-1-0.1-1.4
									l9.7-10.8l9.7,10.8c0.4,0.4,0.3,1-0.1,1.4C106.4,107.8,106.2,107.9,105.9,107.9z"/>
							</g>
							<g>
								<path class="st3" d="M96.9,96.9"/>
							</g>
						</g>
					</g>
				</g>
				<g>
					<g>
						<g>
							<g>
								<g>
									<path class="st2" d="M172,87.3L172,87.3c0,0.1,0.1,0.1,0.1,0.1S172,87.4,172,87.3c0.1,0,0.1,0,0.1,0
										C172,87.3,172,87.3,172,87.3z"/>
								</g>
							</g>
							<g>
								<path class="st3" d="M150,87.4v3.2l11,6.3l11-6.1v-5.9v-5c0-0.4,0.8-0.9,1.2-1.3c-0.1,0.1-0.3,0.2-0.4,0.4
									c-1.6,1.7-3.9,3.6-5.5,4.9c-1.3,1.1-2.9,1.8-4.5,1.8H161h-1.8H158c-1.7,0-3.3-0.7-4.5-1.8c-1.5-1.3-3.7-3-5.3-4.6
									c0,0-0.1-0.1-0.2-0.2c0.5,0.5,1.2,1,1.8,1.5h0.2V86V87.4L150,87.4L150,87.4z"/>
							</g>
							<g>
								<g>
									<rect x="149" y="80.6" class="st4" width="2" height="10"/>
								</g>
								<g>
									<path class="st4" d="M172,91.6c-0.6,0-1-0.4-1-1V79.5l0.3-0.3c0.9-0.9,1.8-2,2.1-2.7L178,67l5.1-2.5l1.1-5.6
										c0-0.4-0.2-0.7-0.4-0.9c-0.3-0.3-0.6-0.4-1-0.4h-2.2l0.2-1.2c0.3-1.5,0.3-3.5,0.3-5.2c0-0.4,0-0.8,0-1.1v-1.3l0.2-0.2
										c0-3-0.6-5.6-1.6-7.9l-0.5-1c-1.4-2.7-3.3-5-5.6-6.9c-3.7-2.9-8-4.4-12.7-4.4h-0.1c-5.3,0-10.4,2.1-14.3,6
										c-4.1,4-6.4,9.6-6.4,15.2V50c0,2.2,0,4.5,0.3,6.3l0.2,1.2h-2.1c-0.8,0-1.4,0.5-1.5,1.3l1.6,5.6L143,67l4.4,9.4
										c0.6,1.6,3.3,3.8,5.3,5.4c0.5,0.4,1,0.8,1.4,1.2c1.2,1,2.6,1.6,3.9,1.6h5c0.6,0,1,0.4,1,1s-0.4,1-1,1h-5
										c-1.8,0-3.6-0.7-5.2-2.1c-0.4-0.4-0.9-0.7-1.4-1.1c-2.4-2-5.1-4.2-5.9-6.2l-4.1-8.7l-4.6-2.7l-1.9-6.8
										c0-1.8,1.4-3.3,3.2-3.4c-0.2-1.7-0.2-3.6-0.2-5.5v-0.4c0-6.2,2.5-12.3,7-16.7c4.3-4.2,9.9-6.6,15.7-6.6c0,0,0.1,0,0.2,0
										c5.1,0,9.9,1.7,13.9,4.9c2.6,2.1,4.8,4.8,6.3,7.8c0.1,0.2,0.2,0.4,0.3,0.6l0.7,1.6h0c0.8,2.3,1.2,4.9,1.2,7.7v0.4l-0.2,0.2
										V50c0,0.4,0,0.7,0,1.1c0,1.4,0,2.9-0.1,4.4c0.9,0,1.7,0.4,2.3,1s1,1.5,0.9,2.4v0.2l-1.3,6.6l-5.3,2.6l-4.2,8.7
										c-0.4,1-1.3,2-2.2,3v10.4C173,91.2,172.6,91.6,172,91.6z"/>
								</g>
							</g>
							<g>
								<polygon class="st4" points="136.4,97.8 135.8,95.9 141.8,94.1 145.9,86.6 149,86.6 149,88.6 147,88.6 143.2,95.7 								
									"/>
							</g>
							<g>
								<path class="st4" d="M161,98.1l-11.8-6.6c-0.5-0.3-0.7-0.9-0.4-1.4s0.9-0.7,1.4-0.4l10.9,6.1l10.4-5.8
									c0.5-0.3,1.1-0.1,1.4,0.4c0.3,0.5,0.1,1.1-0.4,1.4L161,98.1z"/>
							</g>
							<g>
								<polygon class="st4" points="190.3,99.6 178.7,95.8 174.3,88.6 172,88.6 172,86.6 175.4,86.6 180,94.1 190.9,97.7 								
									"/>
							</g>
							<g>
								<path class="st4" d="M167.9,106.8c-0.3,0-0.5-0.1-0.7-0.3l-6.2-6.6l-4,4.3c-0.4,0.4-1,0.4-1.4,0.1c-0.4-0.4-0.4-1-0.1-1.4
									L161,97l7.7,8.1c0.4,0.4,0.4,1,0,1.4C168.4,106.7,168.1,106.8,167.9,106.8z"/>
							</g>
							<g>
								<path class="st3" d="M160.9,98.4"/>
							</g>
						</g>
					</g>
				</g>
				<g>
					<g>
						<g>
							<rect x="48" y="180.6" class="st6" width="124" height="11"/>
						</g>
						<g>
							<g>
								<g>
									<rect x="48" y="121.6" class="st6" width="124" height="62"/>
								</g>
								<g>
									<path class="st4" d="M169,178.6H51v-54h118V178.6z M53,176.6h114v-50H53V176.6z"/>
								</g>
								<g>
									<g>
										<path class="st4" d="M115.8,164.8h-11c-3,0-5.4-2.4-5.4-5.4h2c0,1.9,1.5,3.4,3.4,3.4h11c2.2,0,4-1.8,4-4v-1.9
											c0-2.2-1.8-4-4-4h-10.9c-3.3,0-6-2.7-6-6V145c0-3.3,2.7-6,6-6h11.7c2.5,0,4.5,2,4.5,4.5h-2c0-1.4-1.1-2.5-2.5-2.5h-11.7
											c-2.2,0-4,1.8-4,4v1.9c0,2.2,1.8,4,4,4h10.9c3.3,0,6,2.7,6,6v1.9C121.8,162.1,119.1,164.8,115.8,164.8z"/>
									</g>
									<g>
										<rect x="110" y="133.6" class="st4" width="2" height="36"/>
									</g>
								</g>
								<g>
									<g>
										<rect x="130" y="146.6" class="st4" width="14" height="2"/>
									</g>
									<g>
										<rect x="130" y="150.6" class="st4" width="14" height="2"/>
									</g>
									<g>
										<rect x="130" y="154.6" class="st4" width="14" height="2"/>
									</g>
								</g>
								<g>
									<g>
										<rect x="80" y="146.6" class="st4" width="14" height="2"/>
									</g>
									<g>
										<rect x="80" y="150.6" class="st4" width="14" height="2"/>
									</g>
									<g>
										<rect x="80" y="154.6" class="st4" width="14" height="2"/>
									</g>
								</g>
								<g>
									<g>
										<path class="st4" d="M152,177.7h-2c0-9.9,8.1-18,18-18v2C159.2,161.7,152,168.8,152,177.7z"/>
									</g>
								</g>
								<g>
									<g>
										<path class="st4" d="M51.9,143.6v-2c8.8,0,16-7.2,16-16h2C69.9,135.6,61.9,143.6,51.9,143.6z"/>
									</g>
									<g>
										<path class="st4" d="M69.9,177.7h-2c0-8.8-7.2-16-16-16v-2C61.9,159.7,69.9,167.7,69.9,177.7z"/>
									</g>
								</g>
							</g>
						</g>
						<g>
							<g>
								<rect x="48" y="183.6" class="st4" width="124" height="2"/>
							</g>
						</g>
					</g>
					<g>
						<rect x="48" y="189.6" class="st4" width="124" height="2"/>
					</g>
				</g>
				<g>
					<g>
						<circle class="st7" cx="168" cy="133.6" r="24"/>
					</g>
					<g>
						<path class="st8" d="M168,153.3L168,153.3c-10.9,0-19.7-8.8-19.7-19.7c0-10.8,8.8-19.6,19.7-19.6l0,0c2,0,3.9,0.3,5.8,0.9
							l1.3,0.5c0.5,0.2,0.7,0.8,0.5,1.3s-0.8,0.7-1.3,0.5l-1.2-0.5c-1.6-0.5-3.3-0.7-5.1-0.8l0,0c-9.7,0-17.7,7.9-17.7,17.6
							c0,9.7,7.9,17.7,17.6,17.7l0,0c9.7,0,17.7-7.9,17.7-17.6c0-4.1-1.4-8.1-4-11.2c-0.4-0.4-0.3-1.1,0.1-1.4
							c0.4-0.4,1.1-0.3,1.4,0.1c2.9,3.5,4.5,8,4.5,12.5C187.7,144.5,178.8,153.3,168,153.3z"/>
					</g>
					<g>
						<g>
							<path class="st8" d="M171.3,142.6h-7.4c-2.2,0-3.9-1.8-3.9-4c0-0.6,0.4-1,1-1s1,0.4,1,1c0,1.1,0.9,2,1.9,2h7.4
								c1.4,0,2.7-1.2,2.7-2.4V137c0-1.2-1.3-2.3-2.7-2.3H164c-2.3,0-4-1.9-4-4.4V129c0-2.5,1.7-4.4,4-4.4h7.9
								c1.9,0,3.4,1.5,3.4,3.4c0,0.6-0.4,1-1,1s-1-0.4-1-1c0-0.8-0.6-1.4-1.4-1.4H164c-1.4,0-2,1.2-2,2.4v1.3c0,1.1,0.6,2.4,2,2.4
								h7.3c2.5,0,4.7,2,4.7,4.3v1.3C176,140.6,173.8,142.6,171.3,142.6z"/>
						</g>
						<g>
							<path class="st8" d="M168,146.6c-0.6,0-1-0.4-1-1v-24c0-0.6,0.4-1,1-1s1,0.4,1,1v24C169,146.2,168.5,146.6,168,146.6z"/>
						</g>
					</g>
					<g>
						<path class="st8" d="M178.7,120c-0.3,0-0.5-0.1-0.7-0.3c-0.2-0.2-0.3-0.4-0.3-0.7c0-0.3,0.1-0.5,0.3-0.7c0.4-0.4,1-0.4,1.4,0
							c0.2,0.2,0.3,0.4,0.3,0.7c0,0.3-0.1,0.5-0.3,0.7C179.2,119.9,179,120,178.7,120z"/>
					</g>
				</g>
				<g>
					<g>
						<circle class="st7" cx="16.5" cy="141.2" r="16.5"/>
					</g>
					<g>
						<g>
							<path class="st8" d="M18.7,147.7h-5.1c-1.7,0-3-1.4-3-3c0-0.6,0.4-1,1-1s1,0.4,1,1s0.5,1,1,1h5.1c0.7,0,1.3-0.6,1.3-1.3v-0.9
								c0-0.7-0.6-1.3-1.3-1.3h-5c-1.8,0-3.7-1.4-3.7-3.3V138c0-1.9,2-3.3,3.7-3.3h5.4c1.4,0,2.6,1.2,2.6,2.6c0,0.6-0.4,1-1,1
								s-1-0.4-1-1c0-0.3-0.3-0.6-0.6-0.6h-5.4c-0.8,0-1.7,0.7-1.7,1.3v0.9c0,0.6,0.9,1.3,1.7,1.3h5c1.8,0,3.3,1.5,3.3,3.3v0.9
								C22.1,146.2,20.5,147.7,18.7,147.7z"/>
						</g>
						<g>
							<path class="st8" d="M16.5,150.4c-0.6,0-1-0.4-1-1V133c0-0.6,0.4-1,1-1s1,0.4,1,1v16.5C17.5,150,17,150.4,16.5,150.4z"/>
						</g>
					</g>
				</g>
				<g>
					<g>
						<circle class="st7" cx="37.5" cy="174.1" r="16.5"/>
					</g>
					<g>
						<g>
							<path class="st8" d="M39.8,180.6h-5.1c-1.7,0-3-1.4-3-3c0-0.6,0.4-1,1-1s1,0.4,1,1s0.5,1,1,1h5.1c0.7,0,1.3-0.6,1.3-1.3v-0.9
								c0-0.7-0.6-1.3-1.3-1.3h-5c-1.8,0-3.7-1.4-3.7-3.3v-0.9c0-1.9,2-3.3,3.7-3.3h5.4c1.4,0,2.6,1.2,2.6,2.6c0,0.6-0.4,1-1,1
								s-1-0.4-1-1c0-0.3-0.3-0.6-0.6-0.6h-5.4c-0.8,0-1.7,0.7-1.7,1.3v0.9c0,0.6,0.9,1.3,1.7,1.3h5c1.8,0,3.3,1.5,3.3,3.3v0.9
								C43.1,179.1,41.7,180.6,39.8,180.6z"/>
						</g>
						<g>
							<path class="st8" d="M37.6,183.3c-0.6,0-1-0.4-1-1v-16.5c0-0.6,0.4-1,1-1s1,0.4,1,1v16.5C38.6,182.9,38.1,183.3,37.6,183.3z"
								/>
						</g>
					</g>
				</g>
			</g>
			<g>
				<g>
					<g>
						<rect x="184" y="19.6" class="st4" width="2" height="4"/>
					</g>
					<g>
						<rect x="184" y="29.6" class="st4" width="2" height="4"/>
					</g>
				</g>
				<g>
					<g>
						<rect x="188" y="25.6" class="st4" width="4" height="2"/>
					</g>
					<g>
						<rect x="178" y="25.6" class="st4" width="4" height="2"/>
					</g>
				</g>
			</g>
			<g>
				<g>
					<g>
						<rect x="18" y="5.6" class="st4" width="2" height="4"/>
					</g>
					<g>
						<rect x="18" y="15.6" class="st4" width="2" height="4"/>
					</g>
				</g>
				<g>
					<g>
						<rect x="22" y="11.6" class="st4" width="4" height="2"/>
					</g>
					<g>
						<rect x="12" y="11.6" class="st4" width="4" height="2"/>
					</g>
				</g>
			</g>
			<g>
				<g>
					<g>
						<rect x="6" y="107.6" class="st4" width="2" height="4"/>
					</g>
					<g>
						<rect x="6" y="117.6" class="st4" width="2" height="4"/>
					</g>
				</g>
				<g>
					<g>
						<rect x="10" y="113.6" class="st4" width="4" height="2"/>
					</g>
					<g>
						<rect y="113.6" class="st4" width="4" height="2"/>
					</g>
				</g>
			</g>
		</g>
	</g>
</g>
<g class="st0">
	<g class="st1">
		<g>
			<line class="st9" x1="170.2" y1="91.3" x2="170.2" y2="95.3"/>
			<line class="st9" x1="170.2" y1="101.3" x2="170.2" y2="105.3"/>
		</g>
		<g>
			<line class="st9" x1="177.2" y1="98.3" x2="173.2" y2="98.3"/>
			<line class="st9" x1="167.2" y1="98.3" x2="163.2" y2="98.3"/>
		</g>
	</g>
	<g class="st1">
		<g>
			<polyline class="st7" points="125.2,32.3 125.2,56.3 149.2,56.3 			"/>
			<g>
				<polyline class="st10" points="44.2,87.3 44.2,32.3 61.2,32.3 				"/>
				<polyline class="st10" points="70.2,32.3 125.7,32.3 149.2,56.3 149.2,175.3 44.2,175.3 44.2,125.3 				"/>
			</g>
			<line class="st10" x1="65.6" y1="32.4" x2="65.6" y2="32.4"/>
		</g>
		<g>
			<circle class="st5" cx="119.2" cy="74.3" r="15"/>
			<g>
				<g>
					<path class="st11" d="M114.5,74.3l7.1,0c2.3,0,4.2,2,4.2,4.5l0,0c0,2.5-1.8,4.5-4.1,4.5h-7.4v-18h6c2.3,0,4.2,2,4.2,4.5v0
						c0,2.5-1.9,4.5-4.2,4.5h-6"/>
				</g>
			</g>
		</g>
		<g>
			<circle class="st7" cx="73.7" cy="73.8" r="15.5"/>
			<g>
				<polyline class="st11" points="66.5,82.7 73.8,64.8 81,82.8 				"/>
				<line class="st11" x1="69.2" y1="77.3" x2="78.2" y2="77.3"/>
			</g>
		</g>
		<g>
			<circle class="st11" cx="59.2" cy="107.3" r="1"/>
			<line class="st11" x1="65.2" y1="107.3" x2="89.2" y2="107.3"/>
		</g>
		<g>
			<circle class="st11" cx="59.2" cy="115.3" r="1"/>
			<line class="st11" x1="65.2" y1="115.3" x2="89.2" y2="115.3"/>
		</g>
		<g>
			<circle class="st11" cx="59.2" cy="123.3" r="1"/>
			<line class="st11" x1="65.2" y1="123.3" x2="89.2" y2="123.3"/>
		</g>
		<g>
			<circle class="st11" cx="59.2" cy="131.3" r="1"/>
			<line class="st11" x1="65.2" y1="131.3" x2="89.2" y2="131.3"/>
		</g>
		<g>
			<circle class="st11" cx="59.2" cy="147.3" r="1"/>
			<line class="st11" x1="65.2" y1="147.3" x2="89.2" y2="147.3"/>
		</g>
		<g>
			<circle class="st11" cx="59.2" cy="139.3" r="1"/>
			<line class="st11" x1="65.2" y1="139.3" x2="89.2" y2="139.3"/>
		</g>
		<g>
			<circle class="st11" cx="105.3" cy="107.3" r="1"/>
			<line class="st11" x1="111.2" y1="107.3" x2="135.2" y2="107.3"/>
		</g>
		<g>
			<circle class="st11" cx="105.3" cy="115.3" r="1"/>
			<line class="st11" x1="111.2" y1="115.3" x2="135.2" y2="115.3"/>
		</g>
		<g>
			<circle class="st11" cx="105.3" cy="123.3" r="1"/>
			<line class="st11" x1="111.2" y1="123.3" x2="135.2" y2="123.3"/>
		</g>
		<g>
			<circle class="st11" cx="105.3" cy="131.3" r="1"/>
			<line class="st11" x1="111.2" y1="131.3" x2="135.2" y2="131.3"/>
		</g>
		<g>
			<circle class="st11" cx="105.3" cy="147.3" r="1"/>
			<line class="st11" x1="111.2" y1="147.3" x2="135.2" y2="147.3"/>
		</g>
		<g>
			<circle class="st11" cx="105.3" cy="139.3" r="1"/>
			<line class="st11" x1="111.2" y1="139.3" x2="135.2" y2="139.3"/>
		</g>
	</g>
	<g class="st1">
		<path class="st11" d="M161.3,5.2c-16.5,0-29.9,13.4-29.9,29.9c0,12.5,7.6,23.1,18.5,27.6c-0.3,3.7-3.4,6.6-7.2,6.6h3.6
			c4.2,0,7.9-1.8,10.6-4.6c1.4,0.2,2.9,0.3,4.4,0.3c16.5,0,29.9-13.4,29.9-29.9C191.2,18.6,177.8,5.2,161.3,5.2z"/>
		<line class="st12" x1="144.2" y1="22.3" x2="178.2" y2="22.3"/>
		<line class="st12" x1="144.2" y1="26.3" x2="178.2" y2="26.3"/>
		<line class="st12" x1="144.2" y1="30.3" x2="178.2" y2="30.3"/>
		<polyline class="st9" points="166.4,42.3 169.4,45.4 179.2,35.6 		"/>
		<line class="st9" x1="148.2" y1="38.4" x2="156.2" y2="46.4"/>
		<line class="st9" x1="156.2" y1="38.4" x2="148.2" y2="46.4"/>
		<rect x="145.2" y="35.3" class="st9" width="14" height="14"/>
		<polyline class="st9" points="177.2,41.3 177.2,49.3 163.2,49.3 163.2,35.3 175.2,35.3 		"/>
	</g>
	<g class="st1">
		<g>
			<g>
				<g>
					<rect x="142.2" y="138.3" class="st13" width="44" height="28"/>
				</g>
			</g>
		</g>
		<g>
			<g>
				<g>
					<rect x="142.2" y="138.3" class="st9" width="44" height="28"/>
					<polyline class="st12" points="179.8,142.7 164.4,152.6 148.2,142.4 					"/>
				</g>
				<line class="st12" x1="183.1" y1="162.5" x2="174.2" y2="151.8"/>
				<line class="st12" x1="145.6" y1="162.5" x2="154.5" y2="151.8"/>
			</g>
			<line class="st9" x1="166.2" y1="169.3" x2="166.2" y2="183.3"/>
			<line class="st10" x1="166.2" y1="186.4" x2="166.2" y2="186.4"/>
			<line class="st9" x1="175.2" y1="169.3" x2="175.2" y2="174.3"/>
			<line class="st10" x1="174.9" y1="177.7" x2="174.9" y2="177.7"/>
			<line class="st9" x1="157.2" y1="169.3" x2="157.2" y2="177.3"/>
			<line class="st10" x1="157.5" y1="180.6" x2="157.5" y2="180.6"/>
		</g>
	</g>
	<g class="st1">
		<path class="st14" d="M16.9,108.3c-2.6-5.2-0.6-11.6,4.6-14.2s11.6-0.6,14.2,4.6"/>
		<ellipse transform="matrix(0.7174 -0.6967 0.6967 0.7174 -64.6047 47.5965)" class="st15" cx="26.4" cy="103.4" rx="5" ry="5"/>
		<path class="st9" d="M6.1,117.1l3-1.5c3.3-1.7,6.7,1.8,5.1,5.1l-1.5,3l5.4,2.8l1.5-3c1.7-3.3,6.5-2.5,7.1,1.1l0.5,3.3l6-0.9
			l-0.5-3.3c-0.6-3.6,3.8-5.9,6.4-3.3l2.3,2.3l4.3-4.3l-2.3-2.3c-2.6-2.6-0.3-7,3.3-6.4l3.3,0.5l1-6l-3.3-0.5
			c-3.6-0.6-4.4-5.4-1.1-7.1l3-1.5l-2.7-5.3l-3,1.5c-3.3,1.7-6.7-1.8-5.1-5.1l1.5-3l-5.4-2.8l-1.5,3c-1.7,3.3-6.5,2.5-7.1-1.1
			L25.6,79l-6,0.9l0.5,3.3c0.6,3.6-3.8,5.9-6.4,3.3l-2.3-2.3l-4.3,4.3l2.3,2.3c2.6,2.6,0.3,7-3.3,6.4l-3.3-0.5l-1,6l3.3,0.5
			c3.6,0.6,4.4,5.4,1.1,7.1l-3,1.5L6.1,117.1z"/>
		<ellipse transform="matrix(0.7174 -0.6967 0.6967 0.7174 -64.6047 47.5964)" class="st16" cx="26.4" cy="103.4" rx="14" ry="14"/>
	</g>
	<g class="st1">
		
			<ellipse transform="matrix(7.021621e-02 -0.9975 0.9975 7.021621e-02 -117.2098 192.147)" class="st14" cx="44.5" cy="158.9" rx="11.7" ry="11.7"/>
		<ellipse class="st14" cx="44.5" cy="158.9" rx="6.3" ry="11.7"/>
		<line class="st14" x1="33.2" y1="159.3" x2="56.2" y2="159.3"/>
	</g>
	<g class="st1">
		<g>
			<line class="st9" x1="29.2" y1="174.3" x2="29.2" y2="178.3"/>
			<line class="st9" x1="29.2" y1="184.3" x2="29.2" y2="188.3"/>
		</g>
		<g>
			<line class="st9" x1="36.2" y1="181.3" x2="32.2" y2="181.3"/>
			<line class="st9" x1="26.2" y1="181.3" x2="22.2" y2="181.3"/>
		</g>
	</g>
	<g class="st1">
		<g>
			<line class="st9" x1="29.2" y1="44.3" x2="29.2" y2="48.3"/>
			<line class="st9" x1="29.2" y1="54.3" x2="29.2" y2="58.3"/>
		</g>
		<g>
			<line class="st9" x1="36.2" y1="51.3" x2="32.2" y2="51.3"/>
			<line class="st9" x1="26.2" y1="51.3" x2="22.2" y2="51.3"/>
		</g>
	</g>
	<circle class="st17" cx="159.2" cy="120.3" r="3"/>
	<circle class="st17" cx="31.2" cy="68.3" r="3"/>
	<circle class="st18" cx="88.2" cy="185.3" r="4"/>
</g>
<g class="st0">
	<g class="st1">
		<circle class="st6" cx="165.4" cy="87.7" r="2.8"/>
		<circle class="st6" cx="37.3" cy="30.7" r="2.8"/>
		<circle class="st6" cx="3.4" cy="125.9" r="2.8"/>
		<line class="st12" x1="91" y1="162.2" x2="101.8" y2="162.2"/>
		<path class="st19" d="M168.1,103.6l-28-12l12.2,29.6l4.8-9.7l7.1,7.1l2.9-2.7l-7.3-7.3L168.1,103.6z"/>
		<rect x="50.3" y="7.2" class="st19" width="92" height="6"/>
		<rect x="82.4" y="139.5" class="st20" width="28.1" height="11.9"/>
		<rect x="120.2" y="113.6" class="st20" width="6.5" height="4.3"/>
		<rect x="66.1" y="113.6" class="st20" width="6.5" height="4.3"/>
		<rect x="136.5" y="122.2" class="st20" width="6.5" height="4.3"/>
		<rect x="125.6" y="122.2" class="st20" width="6.5" height="4.3"/>
		<rect x="114.8" y="122.2" class="st20" width="6.5" height="4.3"/>
		<rect x="104" y="122.2" class="st20" width="6.5" height="4.3"/>
		<rect x="82.4" y="122.2" class="st20" width="6.5" height="4.3"/>
		<rect x="71.5" y="122.2" class="st20" width="6.5" height="4.3"/>
		<rect x="60.7" y="122.2" class="st20" width="6.5" height="4.3"/>
		<rect x="49.9" y="122.2" class="st20" width="6.5" height="4.3"/>
		<rect x="131.1" y="130.9" class="st20" width="6.5" height="4.3"/>
		<rect x="120.2" y="130.9" class="st20" width="6.5" height="4.3"/>
		<rect x="109.4" y="130.9" class="st20" width="6.5" height="4.3"/>
		<rect x="76.9" y="130.9" class="st20" width="6.5" height="4.3"/>
		<rect x="66.1" y="130.9" class="st20" width="6.5" height="4.3"/>
		<rect x="55.3" y="130.9" class="st20" width="6.5" height="4.3"/>
		<path class="st12" d="M43.2,88.9V41.1c0-1.2,1-2.2,2.2-2.2h4.9"/>
		<path class="st12" d="M142.3,38.9h4.5c1.2,0,2.2,1,2.2,2.2v8.8v14v5"/>
		<path class="st9" d="M53.5,161.7H39.3c-2.2,0-3.9-1.8-3.9-3.9v-5.9l7.8-42.9H149l7.8,42.9v5.9c0,2.2-1.8,3.9-3.9,3.9h-12"/>
		<rect x="55.3" y="113.6" class="st20" width="6.5" height="4.3"/>
		<rect x="76.9" y="113.6" class="st20" width="6.5" height="4.3"/>
		<rect x="87.8" y="113.6" class="st20" width="6.5" height="4.3"/>
		<rect x="98.6" y="113.6" class="st20" width="6.5" height="4.3"/>
		<rect x="109.4" y="113.6" class="st20" width="6.5" height="4.3"/>
		<rect x="131.1" y="113.6" class="st20" width="6.5" height="4.3"/>
		<rect x="93.2" y="122.2" class="st20" width="6.5" height="4.3"/>
		<rect x="87.8" y="130.9" class="st20" width="6.5" height="4.3"/>
		<rect x="98.6" y="130.9" class="st20" width="6.5" height="4.3"/>
		<line class="st12" x1="40.2" y1="153.6" x2="51.3" y2="153.6"/>
		<line class="st12" x1="143.2" y1="153.6" x2="152.7" y2="153.6"/>
		<line class="st12" x1="94.3" y1="155.7" x2="98.6" y2="155.7"/>
		<g>
			
				<rect x="109.8" y="172.7" transform="matrix(1 -5.862900e-03 5.862900e-03 1 -1.0529 0.7363)" class="st6" width="30.5" height="14.6"/>
			<rect x="54.1" y="172.7" class="st6" width="30.5" height="14.6"/>
			<g>
				<g>
					<g>
						<path class="st11" d="M112.4,172.7l0-3.6c0-0.7-0.4-1.7-0.9-2.1l-4.8-5.6c-2.6-2.6-3.8-5.4-3.7-10.1l0-4.9
							c0-2,1.6-3.7,3.6-3.7h0c2,0,3.6,1.6,3.6,3.6c0,2.6,0,5.7,0,6.1l0-23.9c0-2.2,2-4,4.3-3.6c1.9,0.3,3.2,2,3.2,3.9l0,15.6l0,0
							l0-18.6c0-2.1,2-3.8,4.1-3.7c1.8,0.2,3.3,1.9,3.3,3.8l0,18.5l0-15.3c0-2.1,1.8-3.9,4-3.6c1.9,0.2,3.3,2.5,3.3,4.4l-0.1,14.5
							l0-10.9c0-2.1,1.7-3.8,3.8-3.7c1.9,0.1,3.4,1.9,3.4,3.8l0,14.9c0,6.7-1.4,13.4-3.8,19.7c-0.1,0.1,0,0.2,0,0.3l0,4.3"/>
					</g>
				</g>
				<line class="st11" x1="114.4" y1="147.2" x2="114.4" y2="147.2"/>
				<line class="st11" x1="121.7" y1="147.2" x2="121.7" y2="147.2"/>
				<line class="st11" x1="129" y1="147.2" x2="129" y2="147.2"/>
				<line class="st11" x1="136.4" y1="147.2" x2="136.4" y2="147.2"/>
			</g>
			<line class="st12" x1="109.7" y1="172.7" x2="140.2" y2="172.7"/>
			<line class="st11" x1="132.5" y1="179.9" x2="132.5" y2="179.9"/>
			<g>
				<g>
					<g>
						<path class="st11" d="M81.9,172.7l0-3.6c0-0.7,0.4-1.7,0.9-2.1l4.8-5.6c2.6-2.6,3.8-5.4,3.7-10.1l0-4.9c0-2-1.6-3.7-3.6-3.7h0
							c-2,0-3.6,1.6-3.6,3.6c0,2.6,0,5.7,0,6.1l0-23.9c0-2.2-2-4-4.3-3.6c-1.9,0.3-3.2,2-3.2,3.9l0,15.6l0,0l0-18.6
							c0-2.1-2-3.8-4.1-3.7c-1.8,0.2-3.3,1.9-3.3,3.8l0,18.5l0-15.3c0-2.1-1.8-3.9-4-3.6c-1.9,0.2-3.3,2.5-3.3,4.4l0.1,14.5l0-10.9
							c0-2.1-1.7-3.8-3.8-3.7c-1.9,0.1-3.4,1.9-3.4,3.8l0,14.9c0,6.7,1.4,13.4,3.8,19.7c0.1,0.1,0,0.2,0,0.3l0,4.3"/>
					</g>
				</g>
				<line class="st11" x1="58.3" y1="147.2" x2="58.3" y2="147.2"/>
				<line class="st11" x1="65.7" y1="147.2" x2="65.7" y2="147.2"/>
				<line class="st11" x1="73" y1="147.2" x2="73" y2="147.2"/>
				<line class="st11" x1="80.4" y1="147.2" x2="80.4" y2="147.2"/>
			</g>
			<line class="st12" x1="84.6" y1="172.7" x2="54.1" y2="172.7"/>
			<line class="st11" x1="61.8" y1="179.9" x2="61.8" y2="179.9"/>
		</g>
		<g>
			<line class="st14" x1="142.5" y1="72.8" x2="157.5" y2="72.8"/>
			<line class="st14" x1="32.5" y1="72.8" x2="50.4" y2="72.8"/>
			<g>
				<g>
					<path class="st14" d="M142.5,68.8l21.6,0c2.2,0,4,1.8,4,4v0c0,2.2-1.8,4-4,4l-21.6,0"/>
				</g>
				<line class="st14" x1="157.5" y1="76.8" x2="157.5" y2="69.2"/>
			</g>
			<g>
				<g>
					<polyline class="st14" points="50.4,76.8 31.7,76.8 23,72.8 31.7,68.8 50.4,68.8 					"/>
				</g>
			</g>
		</g>
		<polygon class="st9" points="142.3,45.4 142.3,63.4 142.3,103.2 50.3,103.2 50.3,7.2 142.4,7.2 		"/>
		<g>
			<circle class="st13" cx="57.3" cy="10.7" r="1"/>
			<circle class="st13" cx="53.3" cy="10.7" r="1"/>
			<circle class="st13" cx="61.3" cy="10.7" r="1"/>
		</g>
		<path class="st12" d="M43.2,76.9"/>
		<g>
			<g>
				<line class="st9" x1="181.6" y1="91.2" x2="181.6" y2="95.2"/>
				<line class="st9" x1="181.6" y1="101.2" x2="181.6" y2="105.2"/>
			</g>
			<g>
				<line class="st9" x1="188.6" y1="98.2" x2="184.6" y2="98.2"/>
				<line class="st9" x1="178.6" y1="98.2" x2="174.6" y2="98.2"/>
			</g>
		</g>
		<g>
			<g>
				<line class="st9" x1="18.5" y1="150.2" x2="18.5" y2="154.2"/>
				<line class="st9" x1="18.5" y1="160.2" x2="18.5" y2="164.2"/>
			</g>
			<g>
				<line class="st9" x1="25.5" y1="157.2" x2="21.5" y2="157.2"/>
				<line class="st9" x1="15.5" y1="157.2" x2="11.5" y2="157.2"/>
			</g>
		</g>
		<circle class="st5" cx="22.3" cy="111.7" r="2.8"/>
		<ellipse class="st7" cx="160.6" cy="171.7" rx="1.5" ry="1.6"/>
		<g>
			<g>
				<path class="st21" d="M36.5,90.4c-2.4-1.1-5.2-1.6-8-1.5c-10,0.4-17.8,8.8-17.4,18.8c0.4,10,8.8,17.8,18.8,17.4
					c10-0.4,17.8-8.8,17.4-18.8c-0.1-2.9-0.9-5.5-2.2-7.9l1.7-10.1L36.5,90.4z"/>
			</g>
		</g>
		<line class="st9" x1="21.4" y1="103.2" x2="37.1" y2="103.2"/>
		<line class="st9" x1="21.4" y1="107.2" x2="37.1" y2="107.2"/>
		<line class="st9" x1="21.4" y1="111.2" x2="37.1" y2="111.2"/>
		<rect x="55.4" y="17.2" class="st9" width="82" height="18"/>
		<rect x="55.4" y="39.2" class="st9" width="24" height="12"/>
		<rect x="84.4" y="39.2" class="st9" width="24" height="12"/>
		<rect x="113.4" y="39.2" class="st9" width="24" height="12"/>
		<g>
			<line class="st22" x1="55.4" y1="55.2" x2="79.4" y2="55.2"/>
			<line class="st22" x1="84.4" y1="55.2" x2="108.4" y2="55.2"/>
			<line class="st22" x1="113.4" y1="55.2" x2="137.4" y2="55.2"/>
		</g>
		<g>
			<line class="st22" x1="55.4" y1="59.2" x2="79.4" y2="59.2"/>
			<line class="st22" x1="84.4" y1="59.2" x2="108.4" y2="59.2"/>
			<line class="st22" x1="113.4" y1="59.2" x2="137.4" y2="59.2"/>
		</g>
		<g>
			<line class="st22" x1="55.4" y1="63.2" x2="79.4" y2="63.2"/>
			<line class="st22" x1="84.4" y1="63.2" x2="108.4" y2="63.2"/>
			<line class="st22" x1="113.4" y1="63.2" x2="137.4" y2="63.2"/>
		</g>
		<g>
			<line class="st22" x1="55.4" y1="67.2" x2="79.4" y2="67.2"/>
			<line class="st22" x1="84.4" y1="67.2" x2="108.4" y2="67.2"/>
			<line class="st22" x1="113.4" y1="67.2" x2="137.4" y2="67.2"/>
		</g>
		<rect x="55.4" y="71.2" class="st9" width="24" height="12"/>
		<rect x="84.4" y="71.2" class="st9" width="24" height="12"/>
		<rect x="113.4" y="71.2" class="st9" width="24" height="12"/>
		<g>
			<line class="st22" x1="55.4" y1="87.2" x2="79.4" y2="87.2"/>
			<line class="st22" x1="84.4" y1="87.2" x2="108.4" y2="87.2"/>
			<line class="st22" x1="113.4" y1="87.2" x2="137.4" y2="87.2"/>
		</g>
		<g>
			<line class="st22" x1="55.4" y1="91.2" x2="79.4" y2="91.2"/>
			<line class="st22" x1="84.4" y1="91.2" x2="108.4" y2="91.2"/>
			<line class="st22" x1="113.4" y1="91.2" x2="137.4" y2="91.2"/>
		</g>
		<g>
			<line class="st22" x1="55.4" y1="95.2" x2="79.4" y2="95.2"/>
			<line class="st22" x1="84.4" y1="95.2" x2="108.4" y2="95.2"/>
			<line class="st22" x1="113.4" y1="95.2" x2="137.4" y2="95.2"/>
		</g>
		<g>
			<line class="st22" x1="55.4" y1="99.2" x2="79.4" y2="99.2"/>
			<line class="st22" x1="84.4" y1="99.2" x2="108.4" y2="99.2"/>
			<line class="st22" x1="113.4" y1="99.2" x2="137.4" y2="99.2"/>
		</g>
		<g>
			<path class="st23" d="M158.1,93.6l-28-12l12.2,29.6l4.8-9.7l8.1,8.1l2.8-2.8l-8.2-8.2L158.1,93.6z"/>
		</g>
	</g>
	<line class="st24" x1="149" y1="77.2" x2="149" y2="89.6"/>
	<circle class="st17" cx="189.5" cy="123.3" r="3"/>
</g>
<g class="st0">
	<circle class="st25" cx="179.5" cy="29.8" r="3"/>
	<rect x="48.5" y="22.8" class="st25" width="96" height="22"/>
	<rect x="102.5" y="115.8" class="st25" width="44" height="16"/>
	<rect x="160.5" y="138.8" class="st25" width="28" height="8"/>
	<rect x="48.5" y="64.8" class="st17" width="46" height="22"/>
	<path class="st26" d="M192.3,75.2l-28-12l12.2,29.6l4.8-9.7l7.1,7.1l2.9-2.7l-7.3-7.3L192.3,75.2z"/>
	<polygon class="st26" points="42.5,112.8 42.5,34.8 23.8,34.8 	"/>
	<polygon class="st26" points="149.5,112.8 149.5,34.8 168.4,34.8 	"/>
	<path class="st26" d="M21.5,115.8v13.2c0,1.3,1.1,2.8,2.4,2.8h144.2c1.3,0,2.4-1.5,2.4-2.8V116L21.5,115.8z"/>
	<rect x="79.5" y="131.8" class="st26" width="34" height="14"/>
	<rect x="43.5" y="1.8" class="st26" width="106" height="14"/>
	<g class="st1">
		<g>
			<g>
				<g>
					<g>
						<g>
							<path class="st14" d="M149.6,34.7l18.7-0.2c1.3,0,2.4,1.1,2.4,2.4l-0.1,92.3c0,1.3-1.1,2.6-2.4,2.6H23.9
								c-1.3,0-2.4-1.5-2.4-2.8V37c0-1.3,1.1-2.2,2.4-2.2h18.6"/>
						</g>
					</g>
				</g>
			</g>
		</g>
	</g>
	<line class="st27" x1="69.5" y1="145.8" x2="122.5" y2="145.8"/>
	<line class="st27" x1="79.5" y1="145.8" x2="79.5" y2="131.8"/>
	<line class="st27" x1="112.5" y1="131.8" x2="112.5" y2="145.8"/>
	<polyline class="st27" points="149.5,115.8 149.5,1.8 43.5,1.8 43.5,59.8 43.5,60.7 43.5,115.8 	"/>
	<circle class="st28" cx="50.4" cy="9" r="2.4"/>
	<circle class="st28" cx="60" cy="9" r="2.4"/>
	<circle class="st28" cx="69.6" cy="9" r="2.4"/>
	<path class="st29" d="M159.6,29"/>
	<g class="st1">
		<path class="st23" d="M182.3,65.2l-28-12l12.2,29.6l4.8-9.7l8.1,8.1l2.8-2.8l-8.2-8.2L182.3,65.2z"/>
	</g>
	<g class="st1">
		<g>
			<g>
				<path class="st13" d="M72.9,162.8H5.5c-2.2,0-4,1.7-4,3.9l0,0c0,2.2,1.8,4,4,4h67.4l8.7-4L72.9,162.8z"/>
			</g>
		</g>
		<g>
			<g>
				<g>
					<path class="st14" d="M72.9,162.8H5.5c-2.2,0-4,1.7-4,3.9l0,0c0,2.2,1.8,4,4,4h67.4l8.7-4L72.9,162.8z"/>
				</g>
				<line class="st14" x1="12.5" y1="170.8" x2="12.5" y2="162.8"/>
			</g>
			<line class="st14" x1="72.5" y1="166.8" x2="12.5" y2="166.8"/>
		</g>
	</g>
	<circle class="st27" cx="17.5" cy="17.8" r="3"/>
	<circle class="st17" cx="21.5" cy="148.8" r="5"/>
	<g class="st1">
		<g>
			<line class="st9" x1="7.5" y1="56.8" x2="7.5" y2="60.8"/>
			<line class="st9" x1="7.5" y1="66.8" x2="7.5" y2="70.8"/>
		</g>
		<g>
			<line class="st9" x1="14.5" y1="63.8" x2="10.5" y2="63.8"/>
			<line class="st9" x1="4.5" y1="63.8" x2="0.5" y2="63.8"/>
		</g>
	</g>
	<g class="st1">
		<path class="st13" d="M191.5,187.8c0,2.2-1.8,4-4,4h-26c-2.2,0-4-1.8-4-4v-56c0-2.2,1.8-4,4-4h26c2.2,0,4,1.8,4,4V187.8z"/>
		<path class="st14" d="M191.5,187.8c0,2.2-1.8,4-4,4h-26c-2.2,0-4-1.8-4-4v-56c0-2.2,1.8-4,4-4h26c2.2,0,4,1.8,4,4V187.8z"/>
		<line class="st14" x1="160.5" y1="183.8" x2="188.5" y2="183.8"/>
		<line class="st14" x1="188.5" y1="135.8" x2="160.5" y2="135.8"/>
		<line class="st14" x1="171.5" y1="187.8" x2="177.5" y2="187.8"/>
		<line class="st14" x1="173.5" y1="131.8" x2="175.5" y2="131.8"/>
	</g>
	<g class="st1">
		<path class="st13" d="M151.5,187.8c0,2.2-1.8,4-4,4h-46c-2.2,0-4-1.8-4-4v-79c0-2.2,1.8-4,4-4h46c2.2,0,4,1.8,4,4V187.8z"/>
		<path class="st14" d="M151.5,187.8c0,2.2-1.8,4-4,4h-46c-2.2,0-4-1.8-4-4v-79c0-2.2,1.8-4,4-4h46c2.2,0,4,1.8,4,4V187.8z"/>
		<line class="st14" x1="100.5" y1="183.8" x2="148.5" y2="183.8"/>
		<line class="st14" x1="148.5" y1="112.8" x2="100.5" y2="112.8"/>
		<line class="st14" x1="121.5" y1="187.8" x2="127.5" y2="187.8"/>
		<line class="st14" x1="123.5" y1="108.8" x2="125.5" y2="108.8"/>
	</g>
	<rect x="48.5" y="64.8" class="st27" width="46" height="22"/>
	<rect x="98.5" y="64.8" class="st27" width="46" height="22"/>
	<g class="st1">
		<line class="st14" x1="50.5" y1="50.8" x2="92.5" y2="50.8"/>
		<line class="st14" x1="50.5" y1="54.8" x2="92.5" y2="54.8"/>
		<line class="st14" x1="50.5" y1="58.8" x2="80.5" y2="58.8"/>
	</g>
	<g class="st1">
		<line class="st14" x1="100.5" y1="50.8" x2="142.5" y2="50.8"/>
		<line class="st14" x1="100.5" y1="54.8" x2="142.5" y2="54.8"/>
		<line class="st14" x1="100.5" y1="58.8" x2="130.5" y2="58.8"/>
	</g>
	<polygon class="st27" points="114.5,70.8 114.5,80.8 128.5,75.8 	"/>
	<line class="st27" x1="102.5" y1="134.8" x2="145.5" y2="134.8"/>
	<line class="st27" x1="102.5" y1="138.8" x2="145.5" y2="138.8"/>
	<line class="st27" x1="102.5" y1="142.8" x2="145.5" y2="142.8"/>
	<rect x="102.5" y="146.8" class="st17" width="44" height="14"/>
	<rect x="102.5" y="146.8" class="st27" width="44" height="14"/>
	<rect x="102.5" y="164.8" class="st27" width="44" height="14"/>
	<polygon class="st27" points="120.5,168.8 120.5,174.7 128.9,171.7 	"/>
	<line class="st27" x1="188.5" y1="149.8" x2="160.5" y2="149.8"/>
	<line class="st27" x1="188.5" y1="153.8" x2="160.5" y2="153.8"/>
	<rect x="161.5" y="157.8" class="st17" width="26" height="9"/>
	<rect x="161.5" y="157.8" class="st27" width="26" height="9"/>
	<rect x="161.5" y="170.8" class="st27" width="26" height="9"/>
	<g class="st1">
		<polygon class="st8" points="172.5,173.1 172.5,177.5 178.1,175.2 		"/>
	</g>
	<line class="st27" x1="50.5" y1="91.8" x2="92.5" y2="91.8"/>
	<line class="st27" x1="50.5" y1="95.8" x2="92.5" y2="95.8"/>
	<line class="st27" x1="50.5" y1="99.8" x2="80.5" y2="99.8"/>
	<line class="st27" x1="100.5" y1="91.8" x2="142.5" y2="91.8"/>
	<line class="st27" x1="100.5" y1="95.8" x2="142.5" y2="95.8"/>
	<line class="st27" x1="100.5" y1="99.8" x2="130.5" y2="99.8"/>
	<g class="st1">
		<g>
			<line class="st9" x1="53.5" y1="177.8" x2="53.5" y2="181.8"/>
			<line class="st9" x1="53.5" y1="187.8" x2="53.5" y2="191.8"/>
		</g>
		<g>
			<line class="st9" x1="60.5" y1="184.8" x2="56.5" y2="184.8"/>
			<line class="st9" x1="50.5" y1="184.8" x2="46.5" y2="184.8"/>
		</g>
	</g>
</g>
<g>
	<circle class="st6" cx="6.7" cy="128.8" r="2.8"/>
	<path class="st19" d="M189.4,174.9l-28-12l12.2,29.6l4.8-9.7l7.1,7.1l2.9-2.7l-7.3-7.3L189.4,174.9z"/>
	<g>
		<g>
			<line class="st9" x1="140.4" y1="162.5" x2="140.4" y2="166.5"/>
			<line class="st9" x1="140.4" y1="172.5" x2="140.4" y2="176.5"/>
		</g>
		<g>
			<line class="st9" x1="147.4" y1="169.5" x2="143.4" y2="169.5"/>
			<line class="st9" x1="137.4" y1="169.5" x2="133.4" y2="169.5"/>
		</g>
	</g>
	<g>
		<g>
			<line class="st9" x1="10.4" y1="178.5" x2="10.4" y2="182.5"/>
			<line class="st9" x1="10.4" y1="188.5" x2="10.4" y2="192.5"/>
		</g>
		<g>
			<line class="st9" x1="17.4" y1="185.5" x2="13.4" y2="185.5"/>
			<line class="st9" x1="7.4" y1="185.5" x2="3.4" y2="185.5"/>
		</g>
	</g>
	<circle class="st7" cx="182.2" cy="96.3" r="2.8"/>
	<circle class="st7" cx="136.7" cy="3.8" r="2.8"/>
	<g>
		<rect x="23.4" y="45.5" class="st6" width="97" height="60"/>
		<circle class="st6" cx="163.7" cy="29.5" r="3"/>
		
			<rect x="57.4" y="108.5" transform="matrix(-1.836970e-16 1 -1 -1.836970e-16 237.9207 -18.8687)" class="st19" width="142" height="2"/>
		<rect x="28.4" y="26.5" class="st5" width="10" height="6"/>
		<rect x="15.4" y="9.5" class="st19" width="156" height="11"/>
		<rect x="15.4" y="146.5" class="st19" width="113" height="2"/>
		<rect x="15.4" y="37.5" class="st19" width="156" height="2"/>
		<rect x="15.4" y="9.5" class="st14" width="156" height="172"/>
		<circle class="st21" cx="22.7" cy="15.7" r="2.4"/>
		<circle class="st21" cx="32.3" cy="15.7" r="2.4"/>
		<circle class="st21" cx="41.9" cy="15.7" r="2.4"/>
		<rect x="40.4" y="25.5" class="st14" width="116" height="8"/>
		<line class="st30" x1="143.4" y1="29.5" x2="150.4" y2="29.5"/>
		<line class="st14" x1="137.4" y1="25.5" x2="137.4" y2="33.5"/>
		<rect x="20.4" y="27.5" class="st14" width="8" height="4"/>
		<rect x="20.4" y="42.5" class="st14" width="103" height="66"/>
		<rect x="22.4" y="118.5" class="st14" width="10" height="10"/>
		<rect x="22.4" y="152.5" class="st14" width="10" height="10"/>
		<line class="st31" x1="22.4" y1="114.5" x2="86.4" y2="114.5"/>
		<line class="st31" x1="36.4" y1="119.5" x2="74.4" y2="119.5"/>
		<rect x="36.4" y="122.5" class="st5" width="14" height="6"/>
		<rect x="52.4" y="123.5" class="st31" width="12" height="4"/>
		<g>
			<rect x="132.4" y="46.5" class="st14" width="16" height="12"/>
			<line class="st14" x1="152.4" y1="48.5" x2="166.4" y2="48.5"/>
			<line class="st32" x1="152.4" y1="52.5" x2="158.4" y2="52.5"/>
			<line class="st32" x1="152.4" y1="56.5" x2="162.4" y2="56.5"/>
		</g>
		<g>
			<rect x="132.4" y="66.5" class="st14" width="16" height="12"/>
			<line class="st14" x1="152.4" y1="68.5" x2="166.4" y2="68.5"/>
			<line class="st32" x1="152.4" y1="72.5" x2="158.4" y2="72.5"/>
			<line class="st32" x1="152.4" y1="76.5" x2="162.4" y2="76.5"/>
		</g>
		<line class="st33" x1="132.4" y1="62.5" x2="166.4" y2="62.5"/>
		<g>
			<rect x="132.4" y="82.5" class="st14" width="16" height="12"/>
			<line class="st14" x1="152.4" y1="84.5" x2="166.4" y2="84.5"/>
			<line class="st32" x1="152.4" y1="88.5" x2="158.4" y2="88.5"/>
			<line class="st32" x1="152.4" y1="92.5" x2="162.4" y2="92.5"/>
		</g>
		<g>
			<rect x="132.4" y="98.5" class="st14" width="16" height="12"/>
			<line class="st14" x1="152.4" y1="100.5" x2="166.4" y2="100.5"/>
			<line class="st32" x1="152.4" y1="104.5" x2="158.4" y2="104.5"/>
			<line class="st32" x1="152.4" y1="108.5" x2="162.4" y2="108.5"/>
		</g>
		<g>
			<rect x="132.4" y="114.5" class="st14" width="16" height="12"/>
			<line class="st14" x1="152.4" y1="116.5" x2="166.4" y2="116.5"/>
			<line class="st32" x1="152.4" y1="120.5" x2="158.4" y2="120.5"/>
			<line class="st32" x1="152.4" y1="124.5" x2="162.4" y2="124.5"/>
		</g>
		<g>
			<rect x="132.4" y="130.5" class="st14" width="16" height="12"/>
			<line class="st14" x1="152.4" y1="132.5" x2="166.4" y2="132.5"/>
			<line class="st32" x1="152.4" y1="136.5" x2="158.4" y2="136.5"/>
			<line class="st32" x1="152.4" y1="140.5" x2="162.4" y2="140.5"/>
		</g>
		<line class="st33" x1="22.4" y1="134.5" x2="124.4" y2="134.5"/>
		<line class="st33" x1="22.4" y1="166.5" x2="124.4" y2="166.5"/>
		<line class="st31" x1="108.4" y1="130.5" x2="122.4" y2="130.5"/>
		<line class="st31" x1="115.4" y1="138.5" x2="122.4" y2="138.5"/>
		<line class="st31" x1="108.4" y1="138.5" x2="111.4" y2="138.5"/>
		<line class="st31" x1="33.4" y1="138.5" x2="40.4" y2="138.5"/>
		<line class="st31" x1="22.4" y1="138.5" x2="29.4" y2="138.5"/>
		<line class="st31" x1="44.4" y1="138.5" x2="51.4" y2="138.5"/>
		<g>
			<polygon class="st21" points="60.4,62.5 60.4,82.5 86.4,72.5 			"/>
			<g>
				<path class="st5" d="M63.4,66.9v11.3L78,72.5L63.4,66.9z"/>
			</g>
		</g>
		<line class="st14" x1="26.4" y1="96.5" x2="116.4" y2="96.5"/>
		<line class="st14" x1="44.4" y1="92.5" x2="44.4" y2="100.5"/>
		<polygon class="st14" points="38.7,152.5 122.4,152.5 122.4,162.5 41.4,162.5 41.4,156.5 		"/>
		<rect x="26.4" y="170.5" class="st14" width="6" height="6"/>
		<line class="st14" x1="40.4" y1="173.5" x2="118.4" y2="173.5"/>
	</g>
	<g>
		<g>
			<g>
				<path class="st13" d="M101,148.5l48.4,0c2.2,0,4,1.8,4,4l0,0c0,2.2-1.8,4-4,4l-48.4,0l-8.7-4L101,148.5z"/>
			</g>
		</g>
		<g>
			<g>
				<g>
					<path class="st14" d="M101,148.5l48.4,0c2.2,0,4,1.8,4,4l0,0c0,2.2-1.8,4-4,4l-48.4,0l-8.7-4L101,148.5z"/>
				</g>
				<line class="st14" x1="142.4" y1="156.5" x2="142.4" y2="148.5"/>
			</g>
			<line class="st14" x1="101.4" y1="152.5" x2="142.4" y2="152.5"/>
		</g>
	</g>
	<g>
		<path class="st23" d="M187.4,164.9l-28-12l12.2,29.6l4.8-9.7l8.1,8.1l2.8-2.8l-8.2-8.2L187.4,164.9z"/>
	</g>
</g>
</svg>
