<?xml version="1.0" encoding="utf-8"?>
<!-- Generator: Adobe Illustrator 20.1.0, SVG Export Plug-In . SVG Version: 6.00 Build 0)  -->
<svg version="1.1" id="Layer_1" xmlns="http://www.w3.org/2000/svg" xmlns:xlink="http://www.w3.org/1999/xlink" x="0px" y="0px"
	 viewBox="0 0 187.1 192.1" style="enable-background:new 0 0 187.1 192.1;" xml:space="preserve">
<style type="text/css">
	.st0{fill:#DFE0E0;}
	.st1{fill:#DEDEDD;}
	.st2{fill:#48515A;}
	.st3{fill:#5FE0ED;}
	.st4{fill:#FFD15D;}
	.st5{fill:#F58E70;}
	.st6{fill:#475059;}
</style>
<title>Color line, chart, presentation illustration</title>
<desc>
	Color line, chart, presentation illustration, icon, background and graphics. The illustration is colorful, flat, vector, pixel perfect, suitable for web and print. Linear stokes and fills.
	</desc>
<g>
	<g>
		<g>
			<g>
				<polygon class="st0" points="71.5,137.1 62.2,137.1 53.6,151.1 63,151.1 				"/>
			</g>
			<g>
				<polygon class="st0" points="128.5,137.1 119.2,137.1 127.7,151.1 137.1,151.1 				"/>
			</g>
			<g>
				<rect x="92.1" y="137.1" class="st0" width="8" height="14"/>
			</g>
			<g>
				<rect x="11.6" y="27.1" class="st1" width="168" height="10"/>
			</g>
			<g>
				<polygon class="st2" points="181.1,138.1 11.1,138.1 11.1,27.1 13.1,27.1 13.1,136.1 179.1,136.1 179.1,27.1 181.1,27.1 				"/>
			</g>
			<g>
				<polygon class="st2" points="187.1,28.1 102.4,28.1 102.4,26.1 185.1,26.1 185.1,18.1 104.9,18.1 104.9,16.1 187.1,16.1 				"/>
			</g>
			<g>
				<polygon class="st2" points="68.3,28.1 5.1,28.1 5.1,16.1 66.4,16.1 66.4,18.1 7.1,18.1 7.1,26.1 68.3,26.1 				"/>
			</g>
			<g>
				<g>
					<g>
						<rect x="161.7" class="st2" width="2" height="4"/>
					</g>
					<g>
						<rect x="161.7" y="10" class="st2" width="2" height="4"/>
					</g>
				</g>
				<g>
					<g>
						<rect x="165.7" y="6" class="st2" width="4" height="2"/>
					</g>
					<g>
						<rect x="155.7" y="6" class="st2" width="4" height="2"/>
					</g>
				</g>
			</g>
			<g>
				<g>
					<g>
						<rect x="51.8" y="44.1" class="st2" width="2" height="4"/>
					</g>
					<g>
						<rect x="51.8" y="54.1" class="st2" width="2" height="4"/>
					</g>
				</g>
				<g>
					<g>
						<rect x="55.8" y="50.1" class="st2" width="4" height="2"/>
					</g>
					<g>
						<rect x="45.8" y="50.1" class="st2" width="4" height="2"/>
					</g>
				</g>
			</g>
			<g>
				<g>
					<g>
						<rect x="6.1" y="152.1" class="st2" width="2" height="4"/>
					</g>
					<g>
						<rect x="6.1" y="162.1" class="st2" width="2" height="4"/>
					</g>
				</g>
				<g>
					<g>
						<rect x="10.1" y="158.1" class="st2" width="4" height="2"/>
					</g>
					<g>
						<rect x="0.1" y="158.1" class="st2" width="4" height="2"/>
					</g>
				</g>
			</g>
			<g>
				<path class="st2" d="M39.7,192.1H28l33.6-56h11.7L39.7,192.1z M31.5,190.1h7l31.2-52h-7L31.5,190.1z"/>
			</g>
			<g>
				<path class="st2" d="M162.7,192.1H151l-33.6-56h11.7L162.7,192.1z M152.1,190.1h7l-31.2-52h-7L152.1,190.1z"/>
			</g>
			<g>
				<path class="st2" d="M101.1,192.1h-10v-56h10V192.1z M93.1,190.1h6v-52h-6V190.1z"/>
			</g>
			<g>
				<g>
					<path class="st3" d="M145.9,126.5L124.8,78l-17.6,40.6c-4.5,10.3-11.7,10.3-16.1,0l-6.2-14.3l-6.2,14.3
						c-4.5,10.3-11.7,10.3-16.1,0l-6-13.9l-9.5,21.8H145.9z"/>
				</g>
				<g>
					<path class="st4" d="M56.5,104.7l-6.2-14.3c-4.5-10.3-11.7-10.3-16.1,0l-15.7,36.1h28.5L56.5,104.7z"/>
				</g>
				<g>
					<path class="st4" d="M107.2,118.6L124.8,78l-6.2-14.3c-4.5-10.3-11.7-10.3-16.1,0l-17.6,40.6l6.2,14.3
						C95.5,128.9,102.8,128.9,107.2,118.6z"/>
				</g>
				<g>
					<path class="st5" d="M78.7,118.6l6.2-14.3l-6-13.9c-4.5-10.3-11.7-10.3-16.1,0l-6.2,14.3l6,13.9
						C67,128.9,74.2,128.9,78.7,118.6z"/>
				</g>
				<g>
					<path class="st5" d="M174.4,126.5l-27.2-62.8c-4.5-10.3-11.7-10.3-16.1,0L124.8,78l21.1,48.5H174.4z"/>
				</g>
			</g>
			<g>
				<g>
					<path class="st2" d="M145.8,69.1c-2.2,0-4-1.8-4-4s1.8-4,4-4s4,1.8,4,4S148,69.1,145.8,69.1z M145.8,63.1c-1.1,0-2,0.9-2,2
						s0.9,2,2,2s2-0.9,2-2S146.9,63.1,145.8,63.1z"/>
				</g>
				<g>
					<path class="st2" d="M155.8,79.1c-2.2,0-4-1.8-4-4s1.8-4,4-4s4,1.8,4,4S158,79.1,155.8,79.1z M155.8,73.1c-1.1,0-2,0.9-2,2
						s0.9,2,2,2s2-0.9,2-2S156.9,73.1,155.8,73.1z"/>
				</g>
				<g>
					
						<rect x="139.5" y="69.1" transform="matrix(0.7071 -0.7071 0.7071 0.7071 -5.3764 127.1375)" class="st2" width="22.6" height="2"/>
				</g>
			</g>
			<g>
				<g>
					<g>
						<g>
							<path class="st6" d="M157.9,160c-2.8,0-5-2.2-5-5l0-55.6l5-10.8l5,10.8l0,55.6C162.9,157.8,160.7,160,157.9,160z M154.9,99.8
								l0,55.2c0,1.7,1.3,3,3,3c1.7,0,3-1.3,3-3l0-55.2l-3-6.5L154.9,99.8z"/>
						</g>
					</g>
					<g>
						<rect x="154.3" y="147.4" class="st6" width="7.6" height="2"/>
					</g>
				</g>
				<g>
					<rect x="156.9" y="100.4" class="st6" width="2" height="48"/>
				</g>
			</g>
			<g>
				<g>
					<path class="st5" d="M19,79.9c-10.5,0-19-8.5-19-19s8.5-19,19-19s19,8.5,19,19S29.5,79.9,19,79.9z M19,43.9
						c-9.4,0-17,7.6-17,17s7.6,17,17,17s17-7.6,17-17S28.4,43.9,19,43.9z"/>
				</g>
				<g>
					<path class="st2" d="M19,70.9c-0.6,0-1-0.4-1-1v-10c0-0.6,0.4-1,1-1h7c0.6,0,1,0.4,1,1s-0.4,1-1,1h-6v9
						C20,70.5,19.6,70.9,19,70.9z"/>
				</g>
				<g>
					<g>
						<path class="st2" d="M19,47.9c-0.1,0-0.3,0-0.4-0.1c-0.1,0-0.2-0.1-0.3-0.2c-0.2-0.2-0.3-0.4-0.3-0.7c0-0.1,0-0.3,0.1-0.4
							c0-0.1,0.1-0.2,0.2-0.3c0.4-0.4,1-0.4,1.4,0c0.1,0.1,0.2,0.2,0.2,0.3c0,0.1,0.1,0.3,0.1,0.4c0,0.3-0.1,0.5-0.3,0.7
							C19.5,47.8,19.3,47.9,19,47.9z"/>
					</g>
					<g>
						<path class="st2" d="M19,75.9c-0.3,0-0.5-0.1-0.7-0.3c-0.2-0.2-0.3-0.4-0.3-0.7c0-0.3,0.1-0.5,0.3-0.7
							c0.1-0.1,0.2-0.2,0.3-0.2c0.2-0.1,0.5-0.1,0.8,0c0.1,0,0.2,0.1,0.3,0.2c0.2,0.2,0.3,0.4,0.3,0.7c0,0.3-0.1,0.5-0.3,0.7
							C19.5,75.8,19.3,75.9,19,75.9z"/>
					</g>
				</g>
				<g>
					<g>
						<path class="st2" d="M12,49.8c-0.3,0-0.5-0.1-0.7-0.3c-0.1-0.1-0.2-0.2-0.2-0.3c0-0.1-0.1-0.2-0.1-0.4c0-0.3,0.1-0.5,0.3-0.7
							c0.4-0.4,1-0.4,1.4,0c0.2,0.2,0.3,0.5,0.3,0.7c0,0.1,0,0.3-0.1,0.4c0,0.1-0.1,0.2-0.2,0.3C12.5,49.7,12.3,49.8,12,49.8z"/>
					</g>
					<g>
						<path class="st2" d="M26,74.1c-0.3,0-0.5-0.1-0.7-0.3c-0.2-0.2-0.3-0.4-0.3-0.7c0-0.3,0.1-0.5,0.3-0.7
							c0.1-0.1,0.2-0.2,0.3-0.2c0.4-0.1,0.8-0.1,1.1,0.2c0.2,0.2,0.3,0.5,0.3,0.7c0,0.3-0.1,0.5-0.3,0.7c0,0-0.1,0.1-0.2,0.1
							c0,0-0.1,0.1-0.2,0.1c-0.1,0-0.1,0.1-0.2,0.1C26.1,74,26.1,74.1,26,74.1z"/>
					</g>
				</g>
				<g>
					<g>
						<path class="st2" d="M6.9,54.9c-0.3,0-0.5-0.1-0.7-0.3c-0.2-0.2-0.3-0.4-0.3-0.7c0-0.1,0-0.1,0-0.2c0-0.1,0-0.1,0.1-0.2
							C6,53.5,6,53.4,6,53.4c0,0,0.1-0.1,0.1-0.1C6.4,53,6.8,52.9,7.1,53c0.1,0,0.1,0,0.2,0.1c0.1,0,0.1,0.1,0.2,0.1
							c0.1,0,0.1,0.1,0.2,0.1c0,0,0.1,0.1,0.1,0.1c0,0.1,0.1,0.1,0.1,0.2c0,0.1,0,0.1,0.1,0.2c0,0.1,0,0.1,0,0.2
							c0,0.3-0.1,0.5-0.3,0.7c0,0-0.1,0.1-0.2,0.1c-0.1,0-0.1,0.1-0.2,0.1c-0.1,0-0.1,0-0.2,0.1C7,54.9,6.9,54.9,6.9,54.9z"/>
					</g>
					<g>
						<path class="st2" d="M31.1,68.9c-0.1,0-0.1,0-0.2,0c-0.1,0-0.1,0-0.2-0.1c-0.1,0-0.1-0.1-0.2-0.1c-0.1,0-0.1-0.1-0.2-0.1
							c-0.2-0.2-0.3-0.4-0.3-0.7c0-0.3,0.1-0.5,0.3-0.7c0,0,0.1-0.1,0.2-0.1c0,0,0.1-0.1,0.2-0.1c0.1,0,0.1,0,0.2-0.1
							c0.2,0,0.4,0,0.6,0.1c0.1,0,0.2,0.1,0.3,0.2c0.2,0.2,0.3,0.4,0.3,0.7c0,0.3-0.1,0.5-0.3,0.7c-0.1,0.1-0.2,0.2-0.3,0.2
							C31.4,68.9,31.3,68.9,31.1,68.9z"/>
					</g>
				</g>
				<g>
					<g>
						<path class="st2" d="M5,61.9c-0.3,0-0.5-0.1-0.7-0.3C4.1,61.5,4,61.2,4,60.9c0-0.1,0-0.3,0.1-0.4c0-0.1,0.1-0.2,0.2-0.3
							c0.4-0.4,1-0.4,1.4,0c0.1,0.1,0.2,0.2,0.2,0.3C6,60.7,6,60.8,6,60.9c0,0.3-0.1,0.5-0.3,0.7C5.5,61.8,5.3,61.9,5,61.9z"/>
					</g>
					<g>
						<path class="st2" d="M33,61.9c-0.3,0-0.5-0.1-0.7-0.3c-0.1-0.1-0.2-0.2-0.2-0.3c0-0.1-0.1-0.2-0.1-0.4c0-0.1,0-0.3,0.1-0.4
							c0.1-0.1,0.1-0.2,0.2-0.3c0.4-0.4,1-0.4,1.4,0c0.1,0.1,0.2,0.2,0.2,0.3c0,0.1,0.1,0.2,0.1,0.4c0,0.1,0,0.3-0.1,0.4
							c0,0.1-0.1,0.2-0.2,0.3C33.5,61.8,33.3,61.9,33,61.9z"/>
					</g>
				</g>
				<g>
					<g>
						<path class="st2" d="M6.9,68.9c-0.3,0-0.5-0.1-0.7-0.3C6.1,68.5,6,68.4,6,68.3c0-0.1-0.1-0.2-0.1-0.4c0-0.3,0.1-0.5,0.3-0.7
							c0.4-0.4,1-0.4,1.4,0c0.2,0.2,0.3,0.4,0.3,0.7c0,0.1,0,0.3-0.1,0.4c0,0.1-0.1,0.2-0.2,0.3c0,0-0.1,0.1-0.2,0.1
							c-0.1,0-0.1,0.1-0.2,0.1c-0.1,0-0.1,0-0.2,0.1C7,68.9,6.9,68.9,6.9,68.9z"/>
					</g>
					<g>
						<path class="st2" d="M31.1,54.9c-0.1,0-0.1,0-0.2,0c-0.1,0-0.1,0-0.2-0.1c-0.1,0-0.1-0.1-0.2-0.1c-0.1,0-0.1-0.1-0.2-0.1
							c-0.2-0.2-0.3-0.4-0.3-0.7c0-0.3,0.1-0.5,0.3-0.7c0,0,0.1-0.1,0.2-0.1c0,0,0.1-0.1,0.2-0.1c0.1,0,0.1,0,0.2-0.1
							c0.2,0,0.4,0,0.6,0.1c0.1,0,0.2,0.1,0.3,0.2c0.2,0.2,0.3,0.4,0.3,0.7c0,0.3-0.1,0.5-0.3,0.7c-0.1,0.1-0.2,0.2-0.3,0.2
							C31.4,54.9,31.3,54.9,31.1,54.9z"/>
					</g>
				</g>
				<g>
					<g>
						<path class="st2" d="M12,74.1c-0.3,0-0.5-0.1-0.7-0.3c-0.2-0.2-0.3-0.4-0.3-0.7c0-0.1,0-0.3,0.1-0.4c0.1-0.1,0.1-0.2,0.2-0.3
							c0.4-0.4,1-0.4,1.4,0c0.1,0.1,0.2,0.2,0.2,0.3s0.1,0.2,0.1,0.4c0,0.3-0.1,0.5-0.3,0.7C12.5,73.9,12.3,74.1,12,74.1z"/>
					</g>
					<g>
						<path class="st2" d="M26,49.8c-0.3,0-0.5-0.1-0.7-0.3c-0.2-0.2-0.3-0.4-0.3-0.7c0-0.3,0.1-0.5,0.3-0.7
							c0.2-0.2,0.6-0.3,0.9-0.3c0.1,0,0.1,0,0.2,0.1c0.1,0,0.1,0,0.2,0.1c0.1,0,0.1,0.1,0.2,0.1c0.2,0.2,0.3,0.5,0.3,0.7
							c0,0.3-0.1,0.5-0.3,0.7C26.5,49.7,26.3,49.8,26,49.8z"/>
					</g>
				</g>
			</g>
			<g>
				<g>
					<path class="st2" d="M88,34h-6v-4.4c-1.4-0.3-2.6-0.8-3.8-1.6l-3.1,3.1l-4.2-4.2l3.1-3.1c-0.7-1.2-1.3-2.5-1.6-3.8H68v-6h4.4
						c0.3-1.4,0.8-2.6,1.6-3.8l-3.1-3.1l4.2-4.2L78.2,6c1.2-0.7,2.5-1.3,3.8-1.6V0h6v4.4c1.4,0.3,2.6,0.8,3.8,1.6l3.1-3.1l4.2,4.2
						l-3.1,3.1c0.7,1.2,1.3,2.5,1.6,3.8h4.4v6h-4.4c-0.3,1.4-0.8,2.6-1.6,3.8l3.1,3.1l-4.2,4.2l-3.1-3.1c-1.2,0.7-2.5,1.3-3.8,1.6
						V34z M84,32h2v-4l0.8-0.1c1.6-0.3,3.2-0.9,4.5-1.9l0.7-0.5l2.8,2.8l1.4-1.4l-2.8-2.8l0.5-0.7c1-1.4,1.6-2.9,1.9-4.5L96,18h4v-2
						h-4l-0.1-0.8c-0.3-1.6-0.9-3.2-1.9-4.5L93.5,10l2.8-2.8l-1.4-1.4l-2.8,2.8l-0.7-0.5c-1.4-1-2.9-1.6-4.5-1.9L86,6V2h-2v4
						l-0.8,0.1c-1.6,0.3-3.2,0.9-4.5,1.9L78,8.6l-2.8-2.8l-1.4,1.4l2.8,2.8l-0.5,0.7c-1,1.4-1.6,2.9-1.9,4.5L74,16h-4v2h4l0.1,0.8
						c0.3,1.6,0.9,3.2,1.9,4.5l0.5,0.7l-2.8,2.8l1.4,1.4l2.8-2.8l0.7,0.5c1.4,1,2.9,1.6,4.5,1.9L84,28V32z"/>
				</g>
				<g>
					<path class="st2" d="M85,22c-2.8,0-5-2.2-5-5s2.2-5,5-5s5,2.2,5,5S87.8,22,85,22z M85,14c-1.7,0-3,1.3-3,3s1.3,3,3,3s3-1.3,3-3
						S86.7,14,85,14z"/>
				</g>
			</g>
		</g>
	</g>
</g>
</svg>
