<?xml version="1.0" encoding="utf-8"?>
<!-- Generator: Adobe Illustrator 20.1.0, SVG Export Plug-In . SVG Version: 6.00 Build 0)  -->
<svg version="1.1" id="Layer_1" xmlns="http://www.w3.org/2000/svg" xmlns:xlink="http://www.w3.org/1999/xlink" x="0px" y="0px"
	 viewBox="0 0 192.0053711 173.9130859" style="enable-background:new 0 0 192.0053711 173.9130859;" xml:space="preserve">
<title>Color line, plane insurance concept illustration, icon</title>
<desc>Color line, flight insurance concept illustration, icon, background and graphics. The illustration is colorful, flat, vector, pixel perfect, suitable for web and print. It is linear stokes and fills.</desc>
<metadata><?xpacket begin="﻿" id="W5M0MpCehiHzreSzNTczkc9d"?>
<x:xmpmeta xmlns:x="adobe:ns:meta/" x:xmptk="Adobe XMP Core 5.6-c111 79.158366, 2015/09/25-01:12:00        ">
   <rdf:RDF xmlns:rdf="http://www.w3.org/1999/02/22-rdf-syntax-ns#">
      <rdf:Description rdf:about=""
            xmlns:dc="http://purl.org/dc/elements/1.1/"
            xmlns:xmp="http://ns.adobe.com/xap/1.0/"
            xmlns:xmpMM="http://ns.adobe.com/xap/1.0/mm/"
            xmlns:stEvt="http://ns.adobe.com/xap/1.0/sType/ResourceEvent#">
         <dc:subject>
            <rdf:Bag>
               <rdf:li>plane insurance</rdf:li>
               <rdf:li>tourism protection</rdf:li>
               <rdf:li>flight</rdf:li>
               <rdf:li>business travel</rdf:li>
               <rdf:li>trip commerce</rdf:li>
               <rdf:li>application</rdf:li>
               <rdf:li>passenger safety</rdf:li>
               <rdf:li>tourist security</rdf:li>
               <rdf:li>transportation document</rdf:li>
               <rdf:li>boarding line</rdf:li>
               <rdf:li>airline accident</rdf:li>
               <rdf:li>fly guaranty</rdf:li>
               <rdf:li>finance risk</rdf:li>
               <rdf:li>airplane transport</rdf:li>
               <rdf:li>vacation journey</rdf:li>
               <rdf:li>direct insurance</rdf:li>
               <rdf:li>cheap insurance</rdf:li>
               <rdf:li>general insurance</rdf:li>
               <rdf:li>insurance quote</rdf:li>
               <rdf:li>flat</rdf:li>
               <rdf:li>vector</rdf:li>
               <rdf:li>isolated sign</rdf:li>
               <rdf:li>responsive icon</rdf:li>
               <rdf:li>safe</rdf:li>
               <rdf:li>shipping warranty</rdf:li>
               <rdf:li>concept</rdf:li>
               <rdf:li>service</rdf:li>
               <rdf:li>aircraft care</rdf:li>
               <rdf:li>human reliability</rdf:li>
               <rdf:li>passenger assurance</rdf:li>
               <rdf:li>airline tourism</rdf:li>
               <rdf:li>support</rdf:li>
               <rdf:li>protect</rdf:li>
               <rdf:li>worry</rdf:li>
               <rdf:li>attention</rdf:li>
               <rdf:li>aviation insurance</rdf:li>
               <rdf:li>Vehicle insurance</rdf:li>
               <rdf:li>Life insurance</rdf:li>
               <rdf:li>Travel insurance</rdf:li>
               <rdf:li>plane crash</rdf:li>
               <rdf:li>contract policy</rdf:li>
            </rdf:Bag>
         </dc:subject>
         <dc:description>
            <rdf:Alt>
               <rdf:li xml:lang="x-default">Color line, flight insurance concept illustration, icon, background and graphics. The illustration is colorful, flat, vector, pixel perfect, suitable for web and print. It is linear stokes and fills.</rdf:li>
            </rdf:Alt>
         </dc:description>
         <dc:title>
            <rdf:Alt>
               <rdf:li xml:lang="x-default">Color line, plane insurance concept illustration, icon</rdf:li>
            </rdf:Alt>
         </dc:title>
         <xmp:MetadataDate>2016-10-10T16:20:10+03:00</xmp:MetadataDate>
         <xmpMM:InstanceID>xmp.iid:21daa51a-e883-4027-a5ae-8d5ab0033974</xmpMM:InstanceID>
         <xmpMM:DocumentID>xmp.did:950f6826-2490-4262-a03f-9f14e44f4879</xmpMM:DocumentID>
         <xmpMM:OriginalDocumentID>xmp.did:950f6826-2490-4262-a03f-9f14e44f4879</xmpMM:OriginalDocumentID>
         <xmpMM:History>
            <rdf:Seq>
               <rdf:li>
                  <rdf:Description>
                     <stEvt:action>saved</stEvt:action>
                     <stEvt:instanceID>xmp.iid:950f6826-2490-4262-a03f-9f14e44f4879</stEvt:instanceID>
                     <stEvt:when>2016-10-08T15:14:41+03:00</stEvt:when>
                     <stEvt:softwareAgent>Adobe Bridge CC 2015 (Macintosh)</stEvt:softwareAgent>
                     <stEvt:changed>/metadata</stEvt:changed>
                  </rdf:Description>
               </rdf:li>
               <rdf:li>
                  <rdf:Description>
                     <stEvt:action>saved</stEvt:action>
                     <stEvt:instanceID>xmp.iid:21daa51a-e883-4027-a5ae-8d5ab0033974</stEvt:instanceID>
                     <stEvt:when>2016-10-10T16:20:10+03:00</stEvt:when>
                     <stEvt:softwareAgent>Adobe Bridge CC 2015 (Macintosh)</stEvt:softwareAgent>
                     <stEvt:changed>/metadata</stEvt:changed>
                  </rdf:Description>
               </rdf:li>
            </rdf:Seq>
         </xmpMM:History>
      </rdf:Description>
   </rdf:RDF>
</x:xmpmeta>
                                                                                                    
                                                                                                    
                                                                                                    
                                                                                                    
                                                                                                    
                                                                                                    
                                                                                                    
                                                                                                    
                                                                                                    
                                     
<?xpacket end="w"?></metadata>
<style type="text/css">
	.st0{fill:#5FE0ED;}
	.st1{fill:#48515A;}
	.st2{fill:#FFD15D;}
	.st3{fill:#DEDEDD;}
	.st4{fill:#475059;}
	.st5{fill:none;stroke:#475059;stroke-width:2;stroke-linecap:round;stroke-linejoin:round;stroke-miterlimit:10;}
	.st6{fill:#F58E70;}
</style>
<g>
	<g>
		<g>
			<g>
				<g>
					<path class="st0" d="M142.3947906,102.0690155c0.3569031-1.5808563,0.9612274-3.0675354,1.7954102-4.400116
						c1.9156189-3.0602417,4.9623566-5.3387451,8.557312-6.2504578c0.9842834-6.4588013,6.5244904-11.4177704,13.2389374-11.5008316
						h0.171524c7.4127655,0.0917053,13.3945923,6.1262054,13.3945007,13.5608597
						c0,0.739212-0.0613098,1.4638672-0.1750183,2.1710052c3.9478149,0.134613,7.2434082,2.7980652,8.3415833,6.4195404H142.3947906
						z"/>
				</g>
			</g>
			<g>
				<g>
					<g>
						<rect x="10" y="109.9941406" class="st1" width="2" height="4"/>
					</g>
					<g>
						<rect x="10" y="119.9941406" class="st1" width="2" height="4"/>
					</g>
				</g>
				<g>
					<g>
						<rect x="14" y="115.9941406" class="st1" width="4" height="2"/>
					</g>
					<g>
						<rect x="4" y="115.9941406" class="st1" width="4" height="2"/>
					</g>
				</g>
			</g>
			<g>
				<g>
					<g>
						<rect x="58" class="st1" width="2" height="4"/>
					</g>
					<g>
						<rect x="58" y="10" class="st1" width="2" height="4"/>
					</g>
				</g>
				<g>
					<g>
						<rect x="62" y="6" class="st1" width="4" height="2"/>
					</g>
					<g>
						<rect x="52" y="6" class="st1" width="4" height="2"/>
					</g>
				</g>
			</g>
			<g>
				<circle class="st2" cx="124" cy="13.9939156" r="2"/>
			</g>
			<g>
				<circle class="st2" cx="36" cy="121.9939117" r="2"/>
			</g>
			<g>
				<circle class="st2" cx="65" cy="104.9939117" r="1"/>
			</g>
			<g>
				<g>
					<path class="st0" d="M90.3157043,40.7544479c0.3569031-1.5808563,0.9612274-3.0675354,1.7954102-4.400116
						c1.9156113-3.0602493,4.9623489-5.3387527,8.557312-6.2504578c0.9842834-6.4587975,6.5244904-11.4177742,13.2389374-11.5008316
						h0.171524c7.4127655,0.0917053,13.3945923,6.1262093,13.3945007,13.5608673
						c0,0.7391968-0.0613098,1.4638519-0.1750183,2.1709976c3.9478149,0.1346054,7.2434082,2.7980576,8.3415833,6.419548
						L90.3157043,40.7544479z"/>
				</g>
			</g>
			<g>
				<g>
					<path class="st0" d="M16.2713013,84.7808456c0.3569031-1.5808563,0.9612274-3.0675354,1.795414-4.400116
						c1.9156113-3.0602417,4.9623489-5.3387451,8.5573158-6.2504578c0.9842796-6.4587936,6.5244789-11.4177704,13.2389297-11.500824
						h0.171524c7.4127731,0.0916977,13.3945999,6.1262054,13.3945084,13.5608597
						c0,0.7391968-0.0613098,1.4638596-0.1750259,2.1709976c3.9478149,0.1346054,7.2434158,2.7980652,8.3415833,6.419548
						L16.2713013,84.7808456z"/>
				</g>
			</g>
			<g>
				<g>
					<g>
						<rect x="176" y="134.0180664" class="st1" width="2" height="4"/>
					</g>
					<g>
						<rect x="176" y="144.0180664" class="st1" width="2" height="4"/>
					</g>
				</g>
				<g>
					<g>
						<rect x="180" y="140.0180664" class="st1" width="4" height="2"/>
					</g>
					<g>
						<rect x="170" y="140.0180664" class="st1" width="4" height="2"/>
					</g>
				</g>
			</g>
			<g>
				<g>
					<g>
						<path class="st3" d="M151.8063812,110.1544952c3.0148926-0.4911499,6.0229492,0.1608887,8.2524414,1.7891846
							c0.1833496,0.1339722,0.3615723,0.2728882,0.5344238,0.416748l-7.0644531,4.9998779L120.875,132.7342987
							c0,0-15.9697113,0.0342102-15.75-0.027359C106.5145111,132.3175507,150.3866119,110.38591,151.8063812,110.1544952z"/>
					</g>
					<g>
						<path class="st3" d="M30,167.7159119v0.0022583c0,1.19104-0.7978668,1.9887695-1.9887848,1.9887695
							c-0.0007324,0-0.0014648,0-0.0014648,0L21,169.8702087v-14.1740723l7.0587082,0.0071411
							c0.5715332,0.0005493,1.1178551,0.2275391,1.5284996,0.6390991c0.4106445,0.411499,0.5525894,0.9528809,0.5521011,1.5220947
							L30,167.7159119z"/>
					</g>
					<g>
						<g>
							<g>
								<g>
									<path class="st4" d="M54.059082,166.7070312H33v-2h20.8671875l77.1269531-14.9467773l43.5307617-26.6972656
										c-5.7578125-5.1601562-12.7631836-6.1098633-18.9550781-2.5l-27.2607422,13.144043H81.5341797v-2h18.3154297
										c7.8881836,0,14.1396484-5.7182617,14.6557617-13.1948242l-48.6318359,0.1948242
										c-4.1704102,0-8.2578125,1.6982422-11.21875,4.6586914l-20.8339844,20.8139648l-1.4130859-1.4150391l20.8334961-20.8134766
										c3.3325195-3.3325195,7.9355469-5.2441406,12.628418-5.2441406l50.6704102-0.2026367v1.0039062
										c0,6.1894531-3.4047852,11.465332-8.534668,14.1987305h19.8466797l26.7802734-12.9086914
										c7.2910156-4.2539062,15.6303711-2.8754883,22.2333984,3.7285156l0.8964844,0.8964844l-46.0317383,28.2314453
										l-0.1777344,0.034668L54.059082,166.7070312z"/>
								</g>
							</g>
						</g>
						<g>
							<g>
								<g>
									<path class="st4" d="M113.6850586,126.3642578c-0.3618164,0.0004883-0.7109375-0.1967773-0.8886719-0.5400391
										c-0.2543945-0.4902344-0.0625-1.09375,0.4277344-1.3476562l31.3027344-16.2172852
										c2.1328125-0.9960938,4.3530273-1.6806641,6.6357422-2.0527344
										c4.065918-0.6635742,8.1674805,0.2514648,11.2553711,2.5068359
										c1.3754883,1.0043945,2.5429688,2.2182617,3.4707031,3.6083984
										c0.3046875,0.4560547,0.1850586,1.0717773-0.2675781,1.3808594l-9.9907227,6.8222656
										c-0.4550781,0.3125-1.0776367,0.1948242-1.3896484-0.2617188c-0.3115234-0.4560547-0.1943359-1.078125,0.2617188-1.3896484
										l9.1401367-6.2416992c-0.6860352-0.8647461-1.4916992-1.637207-2.4042969-2.3032227
										c-2.6586914-1.9418945-6.2143555-2.7231445-9.7539062-2.1484375
										c-2.1015625,0.3427734-4.1455078,0.9731445-6.074707,1.8730469l-31.265625,16.1987305
										C113.9970703,126.328125,113.8398438,126.3642578,113.6850586,126.3642578z"/>
								</g>
							</g>
						</g>
						<g>
							<path class="st4" d="M28.0009766,173.9130859c-0.0024414,0-0.0039062,0-0.0063477,0L17,173.9018555v-43.300293
								l11.0625,0.0112305c3.402832,0.003418,6.1689453,2.7700195,6.1660156,6.1674805l-0.0556641,30.9790039
								C34.1689453,171.1538086,31.4008789,173.9130859,28.0009766,173.9130859z M19,171.9038086l8.996582,0.0092773
								c0.0014648,0,0.0029297,0,0.0043945,0c2.2983398,0,4.1694336-1.8637695,4.171875-4.1567383v-0.0009766l0.0556641-30.9780273
								c0.0019531-2.293457-1.8676758-4.1621094-4.1679688-4.1645508L19,132.6035156V171.9038086z"/>
						</g>
					</g>
					<g>
						<g>
							<path class="st3" d="M81.5344086,128.7069397L81.5344086,128.7069397h23.4428711c3.5874023-1,6.2700195-4,7.203125-8
								h-4.7919922c-2.0957031,2-4.6904297,2-7.5388184,2H87.5344009
								C84.2206955,122.7069397,81.5344086,125.3932343,81.5344086,128.7069397z"/>
						</g>
						<g>
							<path class="st3" d="M163.3879242,120.6373444l-33.1289062,20.2779236l-76.5834961,14.7916718h-17.480957l-0.0126953,7
								h17.4936523l76.5834961-14.7794952l40.7409668-24.9403381
								C168.5810394,121.4159393,165.9870453,120.6369171,163.3879242,120.6373444z"/>
						</g>
					</g>
				</g>
			</g>
			<g>
				<g>
					<g>
						<g>
							<g>
								<polygon class="st3" points="36.0054016,50.4493713 25.3345032,21.9933167 27.7016907,21.9933167 54.7683411,50.9933167 
									36.0054016,50.9933167 								"/>
							</g>
						</g>
						<g>
							<g>
								<polygon class="st3" points="128.0054016,75.9933167 128.0054016,79.9942932 121.3979797,79.9942932 
									117.7245789,79.2289124 123.5023499,75.9933167 								"/>
							</g>
							<g>
								<path class="st3" d="M62.0054016,61.068512v-2.0751953h99h0.9990234h16.0004883v0.0004883h8.6950073
									c0.3807983,0.3386841,0.7518921,0.6881714,1.1121216,1.0483398
									c0.1455078,0.1459961,0.1933594,0.2612305,0.1933594,0.3837891c0,0.4506836-0.2495117,0.8574219-0.6503906,1.0625
									c-3.512207,1.7924805-7.2675781,3.0214844-11.1621094,3.6523438l-2.2539062,0.3652344
									c-0.9879761,0.1600342-1.9862671,0.2804565-2.987915,0.3618774c0,0-7.1522217,0.1254272-4.9466553,0.1254272h-28.9990234v-3
									h-42v1.0917969l-1.2722778,1.9082031H76.5049133c-4.7094727,0-9.4013672-0.628418-13.9458008-1.8676758
									l-5.0273438-1.3710938L62.0054016,61.068512z"/>
							</g>
						</g>
					</g>
					<g>
						<path class="st5" d="M173.0054016,68.9933167"/>
					</g>
					<g>
						<path class="st4" d="M167.8828125,69.9931641h-37.8779297v-2h37.8779297c2.1293945,0,4.2749023-0.1723633,6.3764648-0.5131836
							l2.253418-0.3647461c4.0991211-0.6640625,8.0527344-1.9580078,11.7514648-3.8457031
							c1.0742188-0.5478516,1.7412109-1.637207,1.7412109-2.8432617c0-0.6572266-0.2558594-1.2744141-0.7202148-1.7382812
							c-3.1738281-3.1748047-7.0288086-5.5571289-11.2075195-6.949707
							c-3.4731445-1.1582031-7.0908203-1.7451172-10.7519531-1.7451172H56.5708008l-28-30h-6.1225586l11.5571289,30.8188477
							v2.9619141l-8,2v0.4555664l7.2631836,1.980957l-0.5263672,1.9296875l-8.7368164-2.3833008v-3.5444336l8-2v-1.0380859
							L19.5625,17.9931641h9.8774414l28,30h109.8857422c3.8769531,0,7.7070312,0.621582,11.3842773,1.8476562
							c4.4716797,1.4902344,8.597168,4.0400391,11.9301758,7.3730469c0.9013672,0.9008789,1.3652344,2.0205078,1.3652344,3.2119141
							c0,1.9619141-1.0854492,3.7338867-2.8320312,4.625c-3.8842773,1.9829102-8.0361328,3.3413086-12.3408203,4.0390625
							l-2.2539062,0.3647461C172.3720703,69.8120117,170.1191406,69.9931641,167.8828125,69.9931641z"/>
					</g>
					<g>
						<path class="st4" d="M87.2661133,93.9931641H70.8950195l19.3364258-23.6333008l3.7739258-5.6689453v-2.6977539h44v3.5859375
							L87.2661133,93.9931641z M75.1152344,91.9931641h11.6293945l49.2607422-27.5859375v-0.4140625h-40v1.3027344
							l-4.1679688,6.2519531L75.1152344,91.9931641z"/>
					</g>
					<g>
						<rect x="178.0048828" y="54.9941406" class="st4" width="10" height="2"/>
					</g>
					<g>
						<path class="st4" d="M170.0043945,63.9931641h-4c-1.1030273,0-2-0.8969727-2-2v-6c0-1.1030273,0.8969727-2,2-2h4
							c1.1030273,0,2,0.8969727,2,2v6C172.0043945,63.0961914,171.1074219,63.9931641,170.0043945,63.9931641z
							 M170.0043945,55.9916992l-4,0.0014648v6h4V55.9916992z"/>
					</g>
					<g>
						<path class="st4" d="M129.0053711,83.9946289l-8.1206055-0.0209961l-11.8276367-2.4643555l0.4082031-1.9580078
							l11.7265625,2.4433594h7.8134766c0.5512695,0,1-0.4487305,1-1v-6.0014648c0-0.5512695-0.4487305-1-1-1h-6v-2h6
							c1.6542969,0,3,1.3457031,3,3v6.0014648C132.0053711,82.6489258,130.659668,83.9946289,129.0053711,83.9946289z"/>
					</g>
					<g>
						<path class="st4" d="M130.121582,49.9931641H90.5307617L70.8950195,25.9946289h16.3710938L130.121582,49.9931641z
							 M91.4780273,47.9931641h30.9785156L86.7446289,27.9946289H75.1157227L91.4780273,47.9931641z"/>
					</g>
					<g>
						<path class="st4" d="M31.2255859,71.9931641h-12.777832l14.5571289-13.4379883v-2.5620117h27.0004883v3.6918945
							l-8.9545898,3.375l10.9824219,2.9951172c4.715332,1.2861328,9.5844727,1.9379883,14.4716797,1.9379883h15.5v2h-15.5
							c-5.0649414,0-10.1108398-0.6757812-14.9980469-2.0083008l-13.6074219-3.7114258L31.2255859,71.9931641z
							 M23.5629883,69.9931641h7.222168l16.9365234-7.8408203l0.0395508,0.0107422l10.2441406-3.8618164v-0.3081055H35.0048828
							v1.4379883L23.5629883,69.9931641z"/>
					</g>
				</g>
				<g>
					<rect x="54" y="90.9941406" class="st4" width="14" height="2"/>
				</g>
				<g>
					<rect x="50" y="90.9941406" class="st4" width="2" height="2"/>
				</g>
				<g>
					<rect x="66" y="86.9941406" class="st4" width="6" height="2"/>
				</g>
				<g>
					<rect x="62" y="86.9941406" class="st4" width="2" height="2"/>
				</g>
				<g>
					<rect x="56" y="82.9941406" class="st4" width="18" height="2"/>
				</g>
				<g>
					<rect x="52" y="82.9941406" class="st4" width="2" height="2"/>
				</g>
				<g>
					<g>
						<rect x="16" y="64.9941406" class="st4" width="6" height="2"/>
					</g>
					<g>
						<rect x="12" y="64.9941406" class="st4" width="2" height="2"/>
					</g>
				</g>
				<g>
					<rect x="14" y="44.9941406" class="st4" width="12" height="2"/>
				</g>
				<g>
					<rect x="10" y="44.9941406" class="st4" width="2" height="2"/>
				</g>
				<g>
					<rect x="4" y="48.9941406" class="st4" width="18" height="2"/>
				</g>
				<g>
					<rect y="48.9941406" class="st4" width="2" height="2"/>
				</g>
				<g>
					<g>
						<rect x="64" y="28.9941406" class="st4" width="6" height="2"/>
					</g>
					<g>
						<rect x="60" y="28.9941406" class="st4" width="2" height="2"/>
					</g>
				</g>
				<g>
					<g>
						<rect x="66" y="34.9941406" class="st4" width="10" height="2"/>
					</g>
					<g>
						<rect x="62" y="34.9941406" class="st4" width="2" height="2"/>
					</g>
				</g>
			</g>
			<g>
				<circle class="st3" cx="142" cy="35.9939194" r="2"/>
			</g>
			<g>
				<circle class="st6" cx="132" cy="93.9939117" r="2"/>
			</g>
			<g>
				<circle class="st3" cx="78" cy="17.9939156" r="2"/>
			</g>
		</g>
	</g>
</g>
</svg>
