<?xml version="1.0" encoding="utf-8"?>
<!-- Generator: Adobe Illustrator 20.1.0, SVG Export Plug-In . SVG Version: 6.00 Build 0)  -->
<svg version="1.1" id="Layer_1" xmlns="http://www.w3.org/2000/svg" xmlns:xlink="http://www.w3.org/1999/xlink" x="0px" y="0px"
	 viewBox="0 0 192 192" style="enable-background:new 0 0 192 192;" xml:space="preserve">
<style type="text/css">
	.st0{fill:#48515A;}
	.st1{fill:#DEDEDD;}
	.st2{fill:#FFD45C;}
	.st3{fill:#5FE0ED;}
	.st4{fill:#FFFFFF;}
	.st5{fill:#FFD15D;}
</style>
<title>Color line, digital marketingconcept illustration, icon</title>
<desc>Color line, digital marketing concept illustration, icon, background and graphics. The illustration is colorful, flat, vector, pixel perfect, suitable for web and print. It is linear stokes and fills.</desc>
<metadata><?xpacket begin="﻿" id="W5M0MpCehiHzreSzNTczkc9d"?>
<x:xmpmeta xmlns:x="adobe:ns:meta/" x:xmptk="Adobe XMP Core 5.6-c111 79.158366, 2015/09/25-01:12:00        ">
   <rdf:RDF xmlns:rdf="http://www.w3.org/1999/02/22-rdf-syntax-ns#">
      <rdf:Description rdf:about=""
            xmlns:dc="http://purl.org/dc/elements/1.1/"
            xmlns:xmp="http://ns.adobe.com/xap/1.0/"
            xmlns:xmpMM="http://ns.adobe.com/xap/1.0/mm/"
            xmlns:stEvt="http://ns.adobe.com/xap/1.0/sType/ResourceEvent#">
         <dc:description>
            <rdf:Alt>
               <rdf:li xml:lang="x-default">Color line, digital marketing concept illustration, icon, background and graphics. The illustration is colorful, flat, vector, pixel perfect, suitable for web and print. It is linear stokes and fills.</rdf:li>
            </rdf:Alt>
         </dc:description>
         <dc:title>
            <rdf:Alt>
               <rdf:li xml:lang="x-default">Color line, digital marketingconcept illustration, icon</rdf:li>
            </rdf:Alt>
         </dc:title>
         <dc:subject>
            <rdf:Bag>
               <rdf:li>marketing</rdf:li>
               <rdf:li>digital</rdf:li>
               <rdf:li>megaphone</rdf:li>
               <rdf:li>business</rdf:li>
               <rdf:li>online</rdf:li>
               <rdf:li>design</rdf:li>
               <rdf:li>website</rdf:li>
               <rdf:li>laptop</rdf:li>
               <rdf:li>technology</rdf:li>
               <rdf:li>concept</rdf:li>
               <rdf:li>computer</rdf:li>
               <rdf:li>media</rdf:li>
               <rdf:li>advertising</rdf:li>
               <rdf:li>mobile</rdf:li>
               <rdf:li>internet</rdf:li>
               <rdf:li>icon</rdf:li>
               <rdf:li>web</rdf:li>
               <rdf:li>communication</rdf:li>
               <rdf:li>social</rdf:li>
               <rdf:li>strategy</rdf:li>
               <rdf:li>market</rdf:li>
               <rdf:li>analytics</rdf:li>
               <rdf:li>office</rdf:li>
               <rdf:li>analysis</rdf:li>
               <rdf:li>device</rdf:li>
               <rdf:li>promotion</rdf:li>
               <rdf:li>flat</rdf:li>
               <rdf:li>vector</rdf:li>
               <rdf:li>sign</rdf:li>
               <rdf:li>commerce</rdf:li>
               <rdf:li>responsive icon</rdf:li>
               <rdf:li>isolated</rdf:li>
               <rdf:li>line</rdf:li>
               <rdf:li>icon set</rdf:li>
               <rdf:li>icons</rdf:li>
            </rdf:Bag>
         </dc:subject>
         <xmp:MetadataDate>2017-01-15T21:32:35+03:00</xmp:MetadataDate>
         <xmpMM:InstanceID>xmp.iid:1ea477df-0358-4c22-9ad8-ab7e5093dea0</xmpMM:InstanceID>
         <xmpMM:DocumentID>xmp.did:c07f73ee-86ff-478b-8702-f348ac21d43a</xmpMM:DocumentID>
         <xmpMM:OriginalDocumentID>xmp.did:c07f73ee-86ff-478b-8702-f348ac21d43a</xmpMM:OriginalDocumentID>
         <xmpMM:History>
            <rdf:Seq>
               <rdf:li>
                  <rdf:Description>
                     <stEvt:action>saved</stEvt:action>
                     <stEvt:instanceID>xmp.iid:c07f73ee-86ff-478b-8702-f348ac21d43a</stEvt:instanceID>
                     <stEvt:when>2017-01-15T18:35:01+03:00</stEvt:when>
                     <stEvt:softwareAgent>Adobe Bridge CC 2015 (Macintosh)</stEvt:softwareAgent>
                     <stEvt:changed>/metadata</stEvt:changed>
                  </rdf:Description>
               </rdf:li>
               <rdf:li>
                  <rdf:Description>
                     <stEvt:action>saved</stEvt:action>
                     <stEvt:instanceID>xmp.iid:1ea477df-0358-4c22-9ad8-ab7e5093dea0</stEvt:instanceID>
                     <stEvt:when>2017-01-15T21:32:35+03:00</stEvt:when>
                     <stEvt:softwareAgent>Adobe Bridge CC 2015 (Macintosh)</stEvt:softwareAgent>
                     <stEvt:changed>/metadata</stEvt:changed>
                  </rdf:Description>
               </rdf:li>
            </rdf:Seq>
         </xmpMM:History>
      </rdf:Description>
   </rdf:RDF>
</x:xmpmeta>
                                    
<?xpacket end="w"?></metadata>
<g id="Layer_4">
	<path class="st0" d="M49.9,11.6c-1.9,0-3.4-1.5-3.4-3.4c0-1.9,1.5-3.4,3.4-3.4c1.9,0,3.4,1.5,3.4,3.4v0
		C53.3,10.1,51.8,11.6,49.9,11.6z M49.9,6.8c-0.8,0-1.4,0.6-1.4,1.4c0,0.8,0.6,1.4,1.4,1.4c0.8,0,1.4-0.6,1.4-1.4v0
		C51.3,7.4,50.7,6.8,49.9,6.8L49.9,6.8z"/>
	<path class="st0" d="M59.5,11.6c-1.9,0-3.4-1.5-3.4-3.4c0-1.9,1.5-3.4,3.4-3.4c1.9,0,3.4,1.5,3.4,3.4v0
		C62.9,10.1,61.4,11.6,59.5,11.6z M59.5,6.8c-0.8,0-1.4,0.6-1.4,1.4c0,0.8,0.6,1.4,1.4,1.4c0.8,0,1.4-0.6,1.4-1.4v0
		C60.9,7.4,60.3,6.8,59.5,6.8L59.5,6.8z"/>
	<path class="st0" d="M69.2,11.6c-1.9,0-3.4-1.5-3.4-3.4c0-1.9,1.5-3.4,3.4-3.4c1.9,0,3.4,1.5,3.4,3.4v0
		C72.6,10.1,71,11.6,69.2,11.6z M69.2,6.8c-0.8,0-1.4,0.6-1.4,1.4c0,0.8,0.6,1.4,1.4,1.4c0.8,0,1.4-0.6,1.4-1.4v0
		C70.6,7.4,69.9,6.8,69.2,6.8L69.2,6.8z"/>
	<g>
		<rect x="97.9" y="76" class="st1" width="44" height="26"/>
		<rect x="49.9" y="76" class="st1" width="44" height="26"/>
		<rect x="50" y="49" class="st2" width="92.1" height="23"/>
		<circle class="st3" cx="179" cy="29" r="3"/>
		<path class="st1" d="M152.8,64.4l-28-12L137.1,82l4.8-9.7l7.1,7.1l2.9-2.7l-7.3-7.3L152.8,64.4z"/>
		<polygon class="st1" points="42,112 42,34 23.3,34 		"/>
		<polygon class="st1" points="149,112 149,34 168,34 		"/>
		<path class="st1" d="M21,115v13.2c0,1.3,1.1,2.9,2.4,2.9h144.2c1.3,0,2.4-1.5,2.4-2.9v-12.9L21,115z"/>
		<rect x="79" y="131" class="st1" width="34" height="14"/>
		<rect x="43" y="1" class="st1" width="106" height="14"/>
		<g>
			<path class="st0" d="M167.6,132H23.4c-2,0-3.4-2-3.4-3.9V36.2c0-1.8,1.5-3.2,3.3-3.2c0,0,0.1,0,0.1,0H42v2H23.4
				c-0.7-0.1-1.3,0.4-1.4,1.1c0,0,0,0,0,0.1v91.9c0,0.9,0.7,1.9,1.4,1.9h144.2c0.7,0,1.4-1,1.4-1.9V36.1c0-0.8-0.6-1.4-1.4-1.4
				l-18.8,0.1l0-2l18.8-0.1c1.9,0,3.4,1.5,3.4,3.4v92.1C171,130,169.6,132,167.6,132z"/>
			<rect x="69" y="144" class="st0" width="53" height="2"/>
			<rect x="78" y="131" class="st0" width="2" height="14"/>
			<rect x="111" y="131" class="st0" width="2" height="14"/>
		</g>
		<polygon class="st0" points="150,115 148,115 148,2 44,2 44,115 42,115 42,0 150,0 		"/>
		<g>
			<path class="st1" d="M33,155h100c1.1,0,2,0.9,2,2v32c0,1.1-0.9,2-2,2H33c-1.1,0-2-0.9-2-2v-32C31,155.9,31.9,155,33,155z"/>
			<path class="st0" d="M133,192H33c-1.7,0-3-1.3-3-3v-32c0-1.7,1.3-3,3-3h100c1.7,0,3,1.3,3,3v32C136,190.7,134.7,192,133,192z
				 M33,156c-0.6,0-1,0.4-1,1v32c0,0.6,0.4,1,1,1h100c0.6,0,1-0.4,1-1v-32c0-0.6-0.4-1-1-1H33z"/>
			<g>
				<path class="st4" d="M44,164H34v-6h10V164z M36,162h6v-2h-6V162z"/>
				<path class="st4" d="M52,164h-6v-6h6V164z M48,162h2v-2h-2V162z"/>
				<path class="st4" d="M60,164h-6v-6h6V164z M56,162h2v-2h-2V162z"/>
				<path class="st4" d="M68,164h-6v-6h6V164z M64,162h2v-2h-2V162z"/>
				<path class="st4" d="M76,164h-6v-6h6V164z M72,162h2v-2h-2V162z"/>
				<path class="st4" d="M84,164h-6v-6h6V164z M80,162h2v-2h-2V162z"/>
				<path class="st4" d="M92,164h-6v-6h6V164z M88,162h2v-2h-2V162z"/>
				<path class="st4" d="M100,164h-6v-6h6V164z M96,162h2v-2h-2V162z"/>
				<path class="st4" d="M108,164h-6v-6h6V164z M104,162h2v-2h-2V162z"/>
				<path class="st4" d="M116,164h-6v-6h6V164z M112,162h2v-2h-2V162z"/>
				<path class="st4" d="M124,164h-6v-6h6V164z M120,162h2v-2h-2V162z"/>
				<path class="st4" d="M132,164h-6v-6h6V164z M128,162h2v-2h-2V162z"/>
				<path class="st4" d="M40,172h-6v-6h6V172z M36,170h2v-2h-2V170z"/>
				<path class="st4" d="M48,172h-6v-6h6V172z M44,170h2v-2h-2V170z"/>
				<path class="st4" d="M56,172h-6v-6h6V172z M52,170h2v-2h-2V170z"/>
				<path class="st4" d="M64,172h-6v-6h6V172z M60,170h2v-2h-2V170z"/>
				<path class="st4" d="M72,172h-6v-6h6V172z M68,170h2v-2h-2V170z"/>
				<path class="st4" d="M80,172h-6v-6h6V172z M76,170h2v-2h-2V170z"/>
				<path class="st4" d="M88,172h-6v-6h6V172z M84,170h2v-2h-2V170z"/>
				<path class="st4" d="M96,172h-6v-6h6V172z M92,170h2v-2h-2V170z"/>
				<path class="st4" d="M104,172h-6v-6h6V172z M100,170h2v-2h-2V170z"/>
				<path class="st4" d="M112,172h-6v-6h6V172z M108,170h2v-2h-2V170z"/>
				<path class="st4" d="M120,172h-6v-6h6V172z M116,170h2v-2h-2V170z"/>
				<path class="st4" d="M132,172h-10v-6h10V172z M124,170h6v-2h-6V170z"/>
				<path class="st4" d="M44,180H34v-6h10V180z M36,178h6v-2h-6V178z"/>
				<path class="st4" d="M52,180h-6v-6h6V180z M48,178h2v-2h-2V178z"/>
				<path class="st4" d="M60,180h-6v-6h6V180z M56,178h2v-2h-2V178z"/>
				<path class="st4" d="M68,180h-6v-6h6V180z M64,178h2v-2h-2V178z"/>
				<path class="st4" d="M76,180h-6v-6h6V180z M72,178h2v-2h-2V178z"/>
				<path class="st4" d="M84,180h-6v-6h6V180z M80,178h2v-2h-2V178z"/>
				<path class="st4" d="M92,180h-6v-6h6V180z M88,178h2v-2h-2V178z"/>
				<path class="st4" d="M100,180h-6v-6h6V180z M96,178h2v-2h-2V178z"/>
				<path class="st4" d="M108,180h-6v-6h6V180z M104,178h2v-2h-2V178z"/>
				<path class="st4" d="M116,180h-6v-6h6V180z M112,178h2v-2h-2V178z"/>
				<path class="st4" d="M124,180h-6v-6h6V180z M120,178h2v-2h-2V178z"/>
				<path class="st4" d="M132,180h-6v-6h6V180z M128,178h2v-2h-2V178z"/>
				<path class="st4" d="M40,188h-6v-6h6V188z M36,186h2v-2h-2V186z"/>
				<path class="st4" d="M48,188h-6v-6h6V188z M44,186h2v-2h-2V186z"/>
				<path class="st4" d="M56,188h-6v-6h6V188z M52,186h2v-2h-2V186z"/>
				<path class="st4" d="M64,188h-6v-6h6V188z M60,186h2v-2h-2V186z"/>
				<path class="st4" d="M108,188H66v-6h42V188z M68,186h38v-2H68V186z"/>
				<path class="st4" d="M116,188h-6v-6h6V188z M112,186h2v-2h-2V186z"/>
				<path class="st4" d="M124,188h-6v-6h6V188z M120,186h2v-2h-2V186z"/>
				<path class="st4" d="M132,188h-6v-6h6V188z M128,186h2v-2h-2V186z"/>
			</g>
			<path class="st0" d="M80,154L80,154c0-2.8,2.3-5,5-5h85c1.7,0,3-1.3,3-3s-1.3-3-3-3h-32c-2.8,0-5-2.2-5.1-5v-8h2v8
				c0,1.7,1.4,3,3.1,3h32c2.8,0,5,2.2,5,5s-2.2,5-5,5H85c-1.7,0-3,1.3-3,3L80,154z"/>
			<path class="st1" d="M150,158h12c2.2,0,4,1.8,4,4v22c0,2.2-1.8,4-4,4h-12c-2.2,0-4-1.8-4-4v-22C146,159.8,147.8,158,150,158z"/>
			<rect x="155" y="158" class="st0" width="2" height="8"/>
			<path class="st0" d="M162,189h-12c-2.8,0-5-2.2-5-5v-22c0-2.8,2.2-5,5-5h12c2.8,0,5,2.2,5,5v22C167,186.8,164.8,189,162,189z
				 M150,159c-1.7,0-3,1.3-3,3v22c0,1.7,1.3,3,3,3h12c1.7,0,3-1.3,3-3v-22c0-1.7-1.3-3-3-3H150z"/>
		</g>
		<g>
			<path class="st4" d="M142.8,54.4l-28-12L127,72l4.8-9.7l8.1,8.1l2.8-2.8l-8.2-8.2L142.8,54.4z"/>
			<path class="st0" d="M127,74.4l-14-33.9L145,54.2l-8.8,5.3l8,8l-4.2,4.2l-7.8-7.8L127,74.4z M116.7,44.3l10.5,25.3l4.5-9L140,69
				l1.4-1.4l-8.4-8.4l7.7-4.6L116.7,44.3z"/>
		</g>
		<g>
			<path class="st4" d="M76.4,111H9c-2.2,0-4,1.7-4,3.8c0,0,0,0,0,0.1v0c0,2.2,1.8,4,4,4h67.4l8.7-4L76.4,111z"/>
			<g>
				<g>
					<path class="st0" d="M76.6,120H9c-2.8,0-5-2.3-5-5c0-2.7,2.2-4.9,4.9-5c0,0,0.1,0,0.1,0h67.6l10.8,5L76.6,120z M9,112
						c-1.6,0-3,1.2-3,2.8c0,0,0,0,0,0.1c0,1.7,1.3,3.1,3,3.1c0,0,0,0,0,0h67.2l6.5-3l-6.5-3H9z"/>
					<rect x="15" y="111" class="st0" width="2" height="8"/>
				</g>
				<rect x="16" y="114" class="st0" width="60" height="2"/>
			</g>
		</g>
		<path class="st0" d="M17,21c-2.2,0-4-1.8-4-4c0-2.2,1.8-4,4-4c2.2,0,4,1.8,4,4C21,19.2,19.2,21,17,21z M17,15c-1.1,0-2,0.9-2,2
			s0.9,2,2,2s2-0.9,2-2C19,15.9,18.1,15,17,15z"/>
		<circle class="st5" cx="19" cy="143" r="5"/>
		<g>
			<g>
				<rect x="184" y="154" class="st0" width="2" height="4"/>
				<rect x="184" y="164" class="st0" width="2" height="4"/>
			</g>
			<g>
				<rect x="188" y="160" class="st0" width="4" height="2"/>
				<rect x="178" y="160" class="st0" width="4" height="2"/>
			</g>
		</g>
		<g>
			<g>
				<rect x="6" y="36" class="st0" width="2" height="4"/>
				<rect x="6" y="46" class="st0" width="2" height="4"/>
			</g>
			<g>
				<rect x="10" y="42" class="st0" width="4" height="2"/>
				<rect y="42" class="st0" width="4" height="2"/>
			</g>
		</g>
		<path class="st3" d="M46,24h100v-6.1l-100,0V24z M99,21L99,21c0,0.6-0.4,1-1,1H74c-0.6,0-1-0.4-1-1l0,0c0-0.6,0.4-1,1-1h24
			C98.5,20,99,20.4,99,21z"/>
		<rect x="50" y="34" class="st0" width="50" height="2"/>
		<rect x="50" y="30" class="st0" width="40" height="2"/>
		<rect x="50" y="42" class="st0" width="50" height="2"/>
		<rect x="50" y="38" class="st0" width="40" height="2"/>
		<g>
			<circle class="st5" cx="43" cy="84.5" r="18"/>
			<g>
				<path class="st0" d="M45.5,91.5h-5.6c-1.8,0-3.2-1.4-3.2-3.2h2c0,0.7,0.5,1.2,1.2,1.2h5.6c0.8,0,1.5-0.7,1.5-1.5v-1
					c0-0.8-0.7-1.5-1.5-1.5H40c-1.9,0-3.5-1.6-3.5-3.5v-1c0-1.9,1.6-3.5,3.5-3.5h5.9c1.5,0,2.8,1.2,2.8,2.8h-2
					c0-0.4-0.3-0.8-0.8-0.8H40c-0.8,0-1.5,0.7-1.5,1.5v1c0,0.8,0.7,1.5,1.5,1.5h5.5c1.9,0,3.5,1.6,3.5,3.5v1
					C49,89.9,47.4,91.5,45.5,91.5z"/>
				<rect x="42" y="75.5" class="st0" width="2" height="18"/>
			</g>
		</g>
		<g>
			<circle class="st5" cx="149" cy="33.5" r="18"/>
			<g>
				<path class="st0" d="M151.5,40.5H146c-1.8,0-3.2-1.4-3.2-3.2h2c0,0.7,0.5,1.2,1.2,1.2h5.6c0.8,0,1.5-0.7,1.5-1.5v-1
					c0-0.8-0.7-1.5-1.5-1.5H146c-1.9,0-3.5-1.6-3.5-3.5v-1c0-1.9,1.6-3.5,3.5-3.5h5.9c1.5,0,2.8,1.2,2.8,2.8h-2
					c0-0.4-0.3-0.8-0.8-0.8H146c-0.8,0-1.5,0.7-1.5,1.5v1c0,0.8,0.7,1.5,1.5,1.5h5.5c1.9,0,3.5,1.6,3.5,3.5v1
					C155,38.9,153.5,40.4,151.5,40.5z"/>
				<rect x="148.1" y="24.5" class="st0" width="2" height="18"/>
			</g>
		</g>
	</g>
</g>
</svg>
